<?xml version="1.0" encoding="UTF-8" standalone="no"?>
<!-- Created with Inkscape (http://www.inkscape.org/) -->

<svg
   xmlns:dc="http://purl.org/dc/elements/1.1/"
   xmlns:cc="http://creativecommons.org/ns#"
   xmlns:rdf="http://www.w3.org/1999/02/22-rdf-syntax-ns#"
   xmlns:svg="http://www.w3.org/2000/svg"
   xmlns="http://www.w3.org/2000/svg"
   xmlns:sodipodi="http://sodipodi.sourceforge.net/DTD/sodipodi-0.dtd"
   xmlns:inkscape="http://www.inkscape.org/namespaces/inkscape"
   width="1052.3622"
   height="5000"
   viewBox="0 0 1052.3622 5000"
   id="svg4573"
   version="1.1"
   inkscape:version="0.91 r13725"
   sodipodi:docname="essay.svg">
  <defs
     id="defs4575" />
  <sodipodi:namedview
     id="base"
     pagecolor="#ffffff"
     bordercolor="#666666"
     borderopacity="1.0"
     inkscape:pageopacity="0.0"
     inkscape:pageshadow="2"
     inkscape:zoom="0.67454545"
     inkscape:cx="544.71698"
     inkscape:cy="4005.0867"
     inkscape:document-units="px"
     inkscape:current-layer="text4242"
     showgrid="false"
     inkscape:window-width="1366"
     inkscape:window-height="705"
     inkscape:window-x="-8"
     inkscape:window-y="-8"
     inkscape:window-maximized="1"
     units="px" />
  <metadata
     id="metadata4578">
    <rdf:RDF>
      <cc:Work
         rdf:about="">
        <dc:format>image/svg+xml</dc:format>
        <dc:type
           rdf:resource="http://purl.org/dc/dcmitype/StillImage" />
        <dc:title></dc:title>
      </cc:Work>
    </rdf:RDF>
  </metadata>
  <g
     inkscape:label="Layer 1"
     inkscape:groupmode="layer"
     id="layer1"
     transform="translate(0,3947.6378)">
    <g
       style="font-style:normal;font-weight:normal;font-size:40px;line-height:125%;font-family:sans-serif;letter-spacing:0px;word-spacing:0px;fill:#000000;fill-opacity:1;stroke:none;stroke-width:1px;stroke-linecap:butt;stroke-linejoin:miter;stroke-opacity:1"
       id="text5121">
      <g
         transform="scale(0.97155906,1.0292735)"
         style="font-style:normal;font-weight:normal;font-size:152.53001404px;line-height:125%;font-family:sans-serif;letter-spacing:0px;word-spacing:0px;fill:#000000;fill-opacity:1;stroke:none;stroke-width:1px;stroke-linecap:butt;stroke-linejoin:miter;stroke-opacity:1"
         id="text4156">
        <path
           style="fill:none;stroke:#000000;stroke-width:5.30000019;stroke-miterlimit:4;stroke-dasharray:none;stroke-opacity:1"
           d="m 202.3545,-3773.2572 c -23.04205,1.2064 -46.28035,0.1458 -69.39648,0.5039 -4.98806,1.0452 -15.37191,-3.3055 -12.99219,5.1075 13.20768,0 26.41536,0 39.62304,0 0,32.6556 1e-5,65.3112 0,97.9668 3.25012,0.7228 9.29065,0.05 7.0293,-4.8614 -0.66395,-30.9597 -0.0921,-62.0831 -0.2832,-93.1054 13.2458,-0.2116 27.22588,0.4226 40.01367,-0.3165 0.64511,-2.8955 -0.46235,-5.9493 -3.99414,-5.2949 z"
           id="path4182"
           inkscape:connector-curvature="0" />
        <path
           style="fill:none;stroke:#000000;stroke-width:5.30000019;stroke-miterlimit:4;stroke-dasharray:none;stroke-opacity:1"
           d="m 231.07325,-3778.1029 c -4.77307,-0.7117 -3.90343,4.421 -3.18945,7.3594 0,33.7038 0,67.4076 0,101.1113 3.31611,0.9029 8.5463,-0.399 6.27343,-4.9707 -0.64079,-18.3741 -0.0852,-36.9101 -0.27148,-55.3457 10.91456,-9.0938 27.20072,-16.487 40.85352,-9.0332 10.28184,6.9389 8.34373,21.0604 8.70507,31.7578 0,12.5306 0,25.0612 0,37.5918 3.31612,0.9029 8.54631,-0.399 6.27344,-4.9707 -1.58845,-19.493 1.98945,-39.5378 -2.15625,-58.8164 -3.86882,-12.1992 -18.29291,-16.3539 -29.61133,-12.9023 -9.40552,2.555 -16.94888,8.7169 -24.06445,15.0801 0,-15.5756 0,-31.1511 0,-46.7266 -0.93336,-0.099 -1.87355,-0.1579 -2.8125,-0.1348 z"
           id="path4184"
           inkscape:connector-curvature="0" />
        <path
           style="fill:none;stroke:#000000;stroke-width:5.30000019;stroke-miterlimit:4;stroke-dasharray:none;stroke-opacity:1"
           d="m 327.28028,-3774.1087 c -3.04373,-0.3062 -4.87978,1.465 -3.61719,4.6093 -1.24137,4.2455 5.89048,2.9994 8.16993,1.7266 0.0281,-1.7426 0.39309,-4.251 -0.47852,-5.6035 -1.23037,-0.682 -2.6978,-0.7598 -4.07422,-0.7324 z m 0.46485,28.7011 c -4.77307,-0.7117 -3.90344,4.421 -3.18946,7.3594 0,22.8053 0,45.6107 0,68.416 3.31612,0.9029 8.54631,-0.399 6.27344,-4.9707 -0.63828,-23.4825 -0.0869,-47.126 -0.27148,-70.6699 -0.93336,-0.099 -1.87356,-0.1578 -2.8125,-0.1348 z"
           id="path4186"
           inkscape:connector-curvature="0" />
        <path
           style="fill:none;stroke:#000000;stroke-width:5.30000019;stroke-miterlimit:4;stroke-dasharray:none;stroke-opacity:1"
           d="m 389.26075,-3747.0521 c -11.95408,-0.3641 -27.03762,5.828 -28.58398,19.1875 -1.92492,10.7825 7.52218,19.3145 17.40429,20.8848 10.18825,2.9049 22.99509,2.0563 30.5625,10.664 6.13088,8.8507 -0.2325,22.3707 -10.91001,23.4224 -12.69714,3.2123 -26.34093,-0.2177 -37.38686,-6.5981 -0.55368,2.9623 -1.2888,7.366 3.04492,7.3789 14.9887,5.6533 34.77937,7.2585 48.19726,-3.9375 8.48512,-8.0327 7.65562,-24.9483 -4.18164,-29.6348 -12.11948,-5.9734 -28.58548,-2.7388 -38.21289,-13.6055 -5.91787,-8.4333 0.0508,-21.2578 10.21094,-22.5547 11.58179,-3.3845 24.12659,-0.1296 34.45117,5.209 0.50648,-2.7791 1.30728,-6.9363 -2.88281,-6.7617 -6.98018,-2.3554 -14.32665,-3.7772 -21.71289,-3.6543 z"
           id="path4188"
           inkscape:connector-curvature="0" />
        <path
           style="fill:none;stroke:#000000;stroke-width:5.30000019;stroke-miterlimit:4;stroke-dasharray:none;stroke-opacity:1"
           d="m 501.85645,-3774.1087 c -3.88694,-0.5667 -4.44967,2.4193 -3.61914,5.6093 -0.15096,2.7869 6.58638,2.231 8.2793,0.459 -0.54485,-2.2295 1.218,-6.1022 -2.53125,-5.959 -0.70398,-0.108 -1.41782,-0.1338 -2.12891,-0.1093 z m 0.46485,28.7011 c -4.77307,-0.7117 -3.90344,4.421 -3.18946,7.3594 0,22.8053 0,45.6107 0,68.416 3.31612,0.9029 8.54631,-0.399 6.27344,-4.9707 -0.63828,-23.4825 -0.0869,-47.126 -0.27148,-70.6699 -0.93336,-0.099 -1.87355,-0.1578 -2.8125,-0.1348 z"
           id="path4190"
           inkscape:connector-curvature="0" />
        <path
           style="fill:none;stroke:#000000;stroke-width:5.30000019;stroke-miterlimit:4;stroke-dasharray:none;stroke-opacity:1"
           d="m 563.85255,-3747.0521 c -12.34781,-0.3739 -27.78778,6.2427 -28.72852,20.1719 -1.00979,9.9721 7.22428,17.8966 16.50586,19.6172 10.50997,3.1703 23.69855,2.1204 31.58789,10.9472 6.13322,8.8501 -0.23248,22.3714 -10.91002,23.4224 -12.6971,3.2124 -26.34084,-0.218 -37.38685,-6.5981 -0.54286,2.9489 -1.29937,7.3549 3.02343,7.371 15.31432,5.723 34.61874,7.1848 48.04688,-3.7929 8.63118,-8.0552 7.92421,-24.8795 -3.84766,-29.6856 -12.1277,-6.0587 -28.55648,-2.8131 -38.29492,-13.5761 -6.05057,-8.4335 -0.0675,-21.3555 10.13477,-22.6719 11.58196,-3.3761 24.1169,-0.1369 34.44726,5.2148 0.50514,-2.78 1.30907,-6.9394 -2.88281,-6.7656 -7.00608,-2.3579 -14.22541,-3.7651 -21.69531,-3.6543 z"
           id="path4192"
           inkscape:connector-curvature="0" />
        <path
           style="fill:none;stroke:#000000;stroke-width:5.30000019;stroke-miterlimit:4;stroke-dasharray:none;stroke-opacity:1"
           d="m 677.04591,-3769.3158 c -4.77307,-0.7117 -3.90344,4.421 -3.18946,7.3594 -1.16342,4.8718 2.2815,11.6414 -1.58593,15.541 -2.41067,2.2367 -6.65235,0.4427 -8.70313,2.5938 0.13418,3.8669 6.15322,1.3332 8.54102,3.9394 4.75464,3.5923 0.66571,9.9427 1.88281,14.6914 0.52271,15.7235 -2.32875,32.0501 2.42773,47.2266 6.24199,11.6776 21.23044,10.7193 32.27344,8.2012 0.33793,-3.0062 0.79719,-5.2972 -2.67578,-3.4746 -8.78216,2.1682 -21.18689,0.6102 -24.2793,-9.3418 -3.95979,-12.6074 -0.74457,-25.8928 -1.8789,-38.793 0,-6.6361 0,-13.2721 0,-19.9082 9.64331,-0.3799 20.55938,0.7498 29.42968,-0.5469 0.5103,-5.6703 -7.56435,-2.6571 -10.71679,-3.3164 -6.17554,-0.477 -13.07391,1.7873 -18.71289,-1.7031 0,-7.4447 0,-14.8893 0,-22.334 -0.93336,-0.099 -1.87355,-0.1578 -2.8125,-0.1348 z"
           id="path4194"
           inkscape:connector-curvature="0" />
        <path
           style="fill:none;stroke:#000000;stroke-width:5.30000019;stroke-miterlimit:4;stroke-dasharray:none;stroke-opacity:1"
           d="m 761.75684,-3747.3587 c -17.05628,0.1343 -32.07977,14.7632 -33.26562,31.6621 -2.97518,16.3606 2.16143,36.9884 18.95312,43.8183 14.60876,6.4917 32.02073,4.517 46.16016,-1.8398 0.44128,-1.3261 1.55336,-6.6599 -0.82227,-4.9844 -15.21713,8.2023 -36.69671,10.2666 -49.9375,-2.7422 -7.26396,-7.4768 -9.43375,-18.4582 -8.72265,-28.5566 20.44922,0 40.89844,0 61.34765,0 0.83913,-13.4336 -3.4633,-30.0914 -17.49023,-35.0781 -5.15182,-2.0273 -10.74429,-2.3798 -16.22266,-2.2793 z m 3.72657,3.4843 c 12.13269,-0.2342 23.33525,9.6226 23.91015,21.8926 0.39709,3.0684 0.3907,6.168 0.41797,9.2559 -18.67318,0 -37.34635,0 -56.01953,0 -1.11516,-15.4925 11.69291,-31.2493 27.54492,-31.0254 1.38228,-0.047 2.76334,-0.1125 4.14649,-0.1231 z"
           id="path4196"
           inkscape:connector-curvature="0" />
        <path
           style="fill:none;stroke:#000000;stroke-width:5.30000019;stroke-miterlimit:4;stroke-dasharray:none;stroke-opacity:1"
           d="m 881.60255,-3745.1947 c -6.67676,-0.3608 -7.62166,7.8028 -11.7563,11.3527 -5.71738,7.6344 -11.43403,15.2692 -17.15191,22.9032 -8.50483,-11.3278 -16.93482,-22.803 -25.48047,-34.043 -2.32977,0.2604 -6.50261,-0.7095 -7.79492,0.059 9.6869,11.6493 19.11406,23.9551 27.91602,36.1621 0.16551,7.4153 -7.85498,11.2279 -10.90463,17.2702 -5.68088,7.2576 -11.36176,14.5152 -17.04264,21.7728 4.46426,0.7467 9.07117,-1.1441 10.37407,-5.7517 7.20291,-9.6855 14.4048,-19.3718 21.60836,-29.0569 8.55008,11.5192 17.03858,23.1603 25.62695,34.6035 2.39512,-0.2208 6.29702,0.6399 7.80078,-0.029 -10.48123,-12.2684 -19.88725,-25.5304 -29.96484,-38.1719 9.86346,-12.3511 19.7223,-24.706 29.58398,-37.0586 -0.9375,-0.044 -1.87667,-0.053 -2.81445,-0.012 z"
           id="path4198"
           inkscape:connector-curvature="0" />
        <path
           style="fill:none;stroke:#000000;stroke-width:5.30000019;stroke-miterlimit:4;stroke-dasharray:none;stroke-opacity:1"
           d="m 918.35255,-3769.3158 c -4.77307,-0.7117 -3.90344,4.421 -3.18946,7.3594 -1.16342,4.8718 2.28151,11.6414 -1.58593,15.541 -2.41067,2.2367 -6.65235,0.4427 -8.70313,2.5938 0.13418,3.8669 6.15322,1.3332 8.54102,3.9394 4.75603,3.5928 0.66435,9.944 1.8789,14.6934 0.50077,15.6913 -2.25634,32.056 2.4043,47.1211 5.81277,11.3192 20.24123,10.9152 30.94828,8.576 2.64195,-0.3368 2.34004,-6.9312 -1.29008,-3.7518 -8.78986,2.1752 -21.21342,0.6282 -24.3125,-9.3359 -3.95926,-12.6085 -0.74417,-25.8975 -1.8789,-38.793 0,-6.6361 0,-13.2721 0,-19.9082 9.64331,-0.3799 20.55938,0.7498 29.42968,-0.5469 0.5103,-5.6703 -7.56435,-2.6571 -10.71679,-3.3164 -6.17553,-0.477 -13.07392,1.7873 -18.71289,-1.7031 0,-7.4447 0,-14.8893 0,-22.334 -0.93336,-0.099 -1.87355,-0.1578 -2.8125,-0.1348 z"
           id="path4200"
           inkscape:connector-curvature="0" />
        <g
           transform="scale(1.0682337,0.93612475)"
           style="font-style:normal;font-weight:normal;font-size:56.47247314px;line-height:125%;font-family:sans-serif;letter-spacing:0px;word-spacing:0px;fill:none;fill-opacity:1;stroke:#000000;stroke-width:3.95307302;stroke-linecap:butt;stroke-linejoin:miter;stroke-miterlimit:4;stroke-dasharray:none;stroke-opacity:1"
           id="text4242">
          <path
             style="color:#000000;font-style:normal;font-variant:normal;font-weight:normal;font-stretch:normal;font-size:medium;line-height:125%;font-family:'Bauhaus 93';-inkscape-font-specification:'Bauhaus 93, ';text-indent:0;text-align:start;text-decoration:none;text-decoration-line:none;text-decoration-style:solid;text-decoration-color:#000000;letter-spacing:0px;word-spacing:0px;text-transform:none;direction:ltr;block-progression:tb;writing-mode:lr-tb;baseline-shift:baseline;text-anchor:start;white-space:normal;clip-rule:nonzero;display:inline;overflow:visible;visibility:visible;opacity:1;isolation:auto;mix-blend-mode:normal;color-interpolation:sRGB;color-interpolation-filters:linearRGB;solid-color:#000000;solid-opacity:1;fill:none;fill-opacity:1;fill-rule:nonzero;stroke:#000000;stroke-width:2.153;stroke-linecap:butt;stroke-linejoin:miter;stroke-miterlimit:4;stroke-dasharray:none;stroke-dashoffset:0;stroke-opacity:1;color-rendering:auto;image-rendering:auto;shape-rendering:auto;text-rendering:auto;enable-background:accumulate"
             d="m 80.21875,-2930.5215 0,14.7617 8.576172,0 0,26.8301 15.148438,0 0,-26.8301 8.54687,0 0,-14.7617 -32.27148,0 z m 3.953125,3.9531 24.365235,0 0,6.8555 -8.546876,0 0,1.9766 0,24.8535 -7.242187,0 0,-26.8301 -8.576172,0 0,-6.8555 z"
             id="path4361"
             inkscape:connector-curvature="0" />
          <path
             style="color:#000000;font-style:normal;font-variant:normal;font-weight:normal;font-stretch:normal;font-size:medium;line-height:125%;font-family:'Bauhaus 93';-inkscape-font-specification:'Bauhaus 93, ';text-indent:0;text-align:start;text-decoration:none;text-decoration-line:none;text-decoration-style:solid;text-decoration-color:#000000;letter-spacing:0px;word-spacing:0px;text-transform:none;direction:ltr;block-progression:tb;writing-mode:lr-tb;baseline-shift:baseline;text-anchor:start;white-space:normal;clip-rule:nonzero;display:inline;overflow:visible;visibility:visible;opacity:1;isolation:auto;mix-blend-mode:normal;color-interpolation:sRGB;color-interpolation-filters:linearRGB;solid-color:#000000;solid-opacity:1;fill:none;fill-opacity:1;fill-rule:nonzero;stroke:#000000;stroke-width:2.153;stroke-linecap:butt;stroke-linejoin:miter;stroke-miterlimit:4;stroke-dasharray:none;stroke-dashoffset:0;stroke-opacity:1;color-rendering:auto;image-rendering:auto;shape-rendering:auto;text-rendering:auto;enable-background:accumulate"
             d="m 111.95703,-2930.5215 0,41.5918 13.86914,0 0.39649,0 13.86914,0 0,-19.4043 c 0,-3.5702 -0.87882,-6.6607 -2.78907,-8.998 -1.891,-2.3357 -4.69928,-3.5938 -7.81835,-3.5938 -1.10518,0 -2.1963,0.2083 -3.26172,0.5918 l 0,-10.1875 -1.97657,0 -12.28906,0 z m 3.95313,3.9531 6.35937,0 0,13.4004 3.13867,-2.2793 c 1.49292,-1.0843 2.80832,-1.5254 4.07618,-1.5254 2.17132,0 3.55272,0.6505 4.75,2.1329 l 0.004,0 0.004,0 c 1.21486,1.4864 1.89648,3.5606 1.89648,6.498 l 0,15.4512 -6.35937,0 0,-12.5547 c 0,-1.3051 0.016,-2.2747 -0.68164,-3.3945 -0.68437,-1.1306 -2.03469,-1.5606 -3.11524,-1.5606 -1.06537,0 -2.30677,0.5758 -2.93945,1.5098 -0.63268,0.934 -0.77344,1.9533 -0.77344,3.0312 l 0,12.9688 -6.35937,0 0,-33.6856 z"
             id="path4363"
             inkscape:connector-curvature="0" />
          <path
             style="color:#000000;font-style:normal;font-variant:normal;font-weight:normal;font-stretch:normal;font-size:medium;line-height:125%;font-family:'Bauhaus 93';-inkscape-font-specification:'Bauhaus 93, ';text-indent:0;text-align:start;text-decoration:none;text-decoration-line:none;text-decoration-style:solid;text-decoration-color:#000000;letter-spacing:0px;word-spacing:0px;text-transform:none;direction:ltr;block-progression:tb;writing-mode:lr-tb;baseline-shift:baseline;text-anchor:start;white-space:normal;clip-rule:nonzero;display:inline;overflow:visible;visibility:visible;opacity:1;isolation:auto;mix-blend-mode:normal;color-interpolation:sRGB;color-interpolation-filters:linearRGB;solid-color:#000000;solid-opacity:1;fill:none;fill-opacity:1;fill-rule:nonzero;stroke:#000000;stroke-width:2.153;stroke-linecap:butt;stroke-linejoin:miter;stroke-miterlimit:4;stroke-dasharray:none;stroke-dashoffset:0;stroke-opacity:1;color-rendering:auto;image-rendering:auto;shape-rendering:auto;text-rendering:auto;enable-background:accumulate"
             d="m 149.33789,-2932.6445 c -1.86471,0 -3.65885,0.7388 -5.00977,2.041 -1.33758,1.2889 -2.12304,3.06 -2.12304,4.8984 0,1.8731 0.71494,3.6781 2.04101,4.9531 l 0.008,0.01 0.006,0.01 c 0.17031,0.1607 0.40489,0.2226 0.58984,0.3633 l -2.67188,0 0,31.4453 14.26563,0 0,-31.4453 -1.97656,0 -0.66602,0 c 0.18693,-0.1435 0.4243,-0.2087 0.5957,-0.373 1.34213,-1.2708 2.07618,-3.0794 2.07618,-4.9571 0,-1.8408 -0.80063,-3.6099 -2.15039,-4.8945 -1.33454,-1.3042 -3.1248,-2.0449 -4.98438,-2.0449 z m 0,3.9531 c 0.92896,0 1.54221,0.248 2.22852,0.9219 l 0.0137,0.014 0.0117,0.012 c 0.70037,0.6628 0.92773,1.2024 0.92773,2.039 0,0.9862 -0.24068,1.5247 -0.8418,2.0918 l -0.008,0.01 -0.006,0.01 c -0.58175,0.5594 -1.2205,0.8282 -2.32617,0.8282 -1.10034,0 -1.75369,-0.2697 -2.35547,-0.834 -0.58166,-0.5613 -0.82422,-1.1062 -0.82422,-2.0977 0,-0.8456 0.22758,-1.3911 0.91211,-2.0508 l 0,-0 c 0.70785,-0.6826 1.33863,-0.9336 2.26758,-0.9336 z m -3.20703,12.2695 6.35937,0 0,23.5391 -6.35937,0 0,-23.5391 z"
             id="path4365"
             inkscape:connector-curvature="0" />
          <path
             style="color:#000000;font-style:normal;font-variant:normal;font-weight:normal;font-stretch:normal;font-size:medium;line-height:125%;font-family:'Bauhaus 93';-inkscape-font-specification:'Bauhaus 93, ';text-indent:0;text-align:start;text-decoration:none;text-decoration-line:none;text-decoration-style:solid;text-decoration-color:#000000;letter-spacing:0px;word-spacing:0px;text-transform:none;direction:ltr;block-progression:tb;writing-mode:lr-tb;baseline-shift:baseline;text-anchor:start;white-space:normal;clip-rule:nonzero;display:inline;overflow:visible;visibility:visible;opacity:1;isolation:auto;mix-blend-mode:normal;color-interpolation:sRGB;color-interpolation-filters:linearRGB;solid-color:#000000;solid-opacity:1;fill:none;fill-opacity:1;fill-rule:nonzero;stroke:#000000;stroke-width:2.153;stroke-linecap:butt;stroke-linejoin:miter;stroke-miterlimit:4;stroke-dasharray:none;stroke-dashoffset:0;stroke-opacity:1;color-rendering:auto;image-rendering:auto;shape-rendering:auto;text-rendering:auto;enable-background:accumulate"
             d="m 174.70703,-2919.9883 c -3.94406,0 -7.34487,1.1345 -9.78515,3.5059 -7e-4,6e-4 -0.001,0 -0.002,0 -6.6e-4,7e-4 -0.001,0 -0.002,0 -1.31761,1.2766 -2.2936,2.6534 -2.80859,4.1738 l -0.006,0.014 -0.004,0.014 c -0.48984,1.5185 -0.71442,3.5491 -0.86523,6.4335 l 0.002,-0.023 c -0.094,1.4732 -0.47869,2.1842 -0.64844,2.3496 -0.14046,0.1363 -0.76797,0.459 -2.15039,0.459 l -2.44531,0 0,14.8731 3.41211,0 c 3.75956,0 6.83393,-0.5751 9.2207,-1.9844 l 0.008,-0 0.006,-0 c 4.21162,-2.5313 6.61029,-7.0311 7.12695,-12.7637 l 0,-0 c 0.12981,-1.3971 0.55056,-2.0799 0.44922,-1.9785 -0.0619,0.062 0.40535,-0.2481 1.60743,-0.2481 l 1.97656,0 0,-14.8164 -1.97656,0 -3.11524,0 z m 0,3.9531 1.13867,0 0,7.1309 c -0.90103,0.1848 -1.74011,0.4999 -2.42578,1.1855 -1.16774,1.1677 -1.42663,2.6198 -1.5918,4.4161 l 0,0 0,0 c -0.43966,4.8869 -2.15819,7.8828 -5.2207,9.7265 -1.38139,0.8136 -3.64964,1.3193 -6.66211,1.3848 l 0,-7.1016 c 1.29343,-0.1719 2.4954,-0.5134 3.40235,-1.3964 1.26411,-1.2317 1.70742,-2.9469 1.83398,-4.9297 l 0,-0.012 0,-0.012 c 0.14279,-2.7309 0.43282,-4.6377 0.67774,-5.4043 0.25766,-0.7559 0.819,-1.6376 1.8125,-2.5996 l 0.002,0 0.002,-0 c 1.60369,-1.56 3.8081,-2.3907 7.03125,-2.3907 z"
             id="path4367"
             inkscape:connector-curvature="0" />
          <path
             style="color:#000000;font-style:normal;font-variant:normal;font-weight:normal;font-stretch:normal;font-size:medium;line-height:125%;font-family:'Bauhaus 93';-inkscape-font-specification:'Bauhaus 93, ';text-indent:0;text-align:start;text-decoration:none;text-decoration-line:none;text-decoration-style:solid;text-decoration-color:#000000;letter-spacing:0px;word-spacing:0px;text-transform:none;direction:ltr;block-progression:tb;writing-mode:lr-tb;baseline-shift:baseline;text-anchor:start;white-space:normal;clip-rule:nonzero;display:inline;overflow:visible;visibility:visible;opacity:1;isolation:auto;mix-blend-mode:normal;color-interpolation:sRGB;color-interpolation-filters:linearRGB;solid-color:#000000;solid-opacity:1;fill:none;fill-opacity:1;fill-rule:nonzero;stroke:#000000;stroke-width:2.153;stroke-linecap:butt;stroke-linejoin:miter;stroke-miterlimit:4;stroke-dasharray:none;stroke-dashoffset:0;stroke-opacity:1;color-rendering:auto;image-rendering:auto;shape-rendering:auto;text-rendering:auto;enable-background:accumulate"
             d="m 200.51758,-2932.6445 c -1.86526,0 -3.66067,0.7381 -5.01172,2.041 -1.33759,1.2889 -2.12109,3.06 -2.12109,4.8984 0,1.8731 0.71298,3.6781 2.03906,4.9531 l 0.008,0.01 0.006,0.01 c 0.17032,0.1607 0.4049,0.2226 0.58984,0.3633 l -2.67187,0 0,31.4453 14.26758,0 0,-31.4453 -1.97657,0 -0.66796,0 c 0.18692,-0.1435 0.42429,-0.2087 0.5957,-0.373 1.34213,-1.2708 2.07617,-3.0794 2.07617,-4.9571 0,-1.8408 -0.80062,-3.6099 -2.15039,-4.8945 -1.33454,-1.3042 -3.12285,-2.0449 -4.98242,-2.0449 z m 0,3.9531 c 0.92894,0 1.54025,0.248 2.22656,0.9219 l 0.0137,0.014 0.0137,0.012 c 0.70038,0.6628 0.92579,1.2024 0.92579,2.039 0,0.9862 -0.24068,1.5247 -0.8418,2.0918 l -0.006,0.01 -0.008,0.01 c -0.58175,0.5594 -1.21855,0.8282 -2.32422,0.8282 -1.10035,0 -1.75564,-0.2697 -2.35742,-0.834 -0.58167,-0.5613 -0.82227,-1.1062 -0.82227,-2.0977 0,-0.8456 0.22562,-1.3911 0.91016,-2.0508 l 0.002,-0 c 0.70784,-0.6826 1.33862,-0.9336 2.26758,-0.9336 z m -3.20899,12.2695 6.36133,0 0,23.5391 -6.36133,0 0,-23.5391 z"
             id="path4369"
             inkscape:connector-curvature="0" />
          <path
             style="color:#000000;font-style:normal;font-variant:normal;font-weight:normal;font-stretch:normal;font-size:medium;line-height:125%;font-family:'Bauhaus 93';-inkscape-font-specification:'Bauhaus 93, ';text-indent:0;text-align:start;text-decoration:none;text-decoration-line:none;text-decoration-style:solid;text-decoration-color:#000000;letter-spacing:0px;word-spacing:0px;text-transform:none;direction:ltr;block-progression:tb;writing-mode:lr-tb;baseline-shift:baseline;text-anchor:start;white-space:normal;clip-rule:nonzero;display:inline;overflow:visible;visibility:visible;opacity:1;isolation:auto;mix-blend-mode:normal;color-interpolation:sRGB;color-interpolation-filters:linearRGB;solid-color:#000000;solid-opacity:1;fill:none;fill-opacity:1;fill-rule:nonzero;stroke:#000000;stroke-width:2.153;stroke-linecap:butt;stroke-linejoin:miter;stroke-miterlimit:4;stroke-dasharray:none;stroke-dashoffset:0;stroke-opacity:1;color-rendering:auto;image-rendering:auto;shape-rendering:auto;text-rendering:auto;enable-background:accumulate"
             d="m 225.88477,-2919.9883 c -3.94621,0 -7.34655,1.1358 -9.78711,3.5098 -1.31809,1.2769 -2.29544,2.653 -2.81055,4.1738 l -0.004,0.014 -0.006,0.014 c -0.48984,1.5185 -0.71441,3.5491 -0.86523,6.4335 l 0.002,-0.023 c -0.094,1.4732 -0.47673,2.1842 -0.64648,2.3496 -0.13974,0.1361 -0.76677,0.459 -2.15039,0.459 l -2.44531,0 0,14.8731 3.41015,0 c 3.75956,0 6.83589,-0.5751 9.22266,-1.9844 l 0.006,-0 0.006,-0 c 4.21161,-2.5313 6.61028,-7.0311 7.12695,-12.7637 l 0,-0 c 0.12981,-1.3971 0.55055,-2.0799 0.44922,-1.9785 -0.0619,0.062 0.4073,-0.2481 1.60937,-0.2481 l 1.97657,0 0,-14.8164 -1.97657,0 -3.11718,0 z m 0,3.9531 1.14062,0 0,7.1309 c -0.90163,0.1847 -1.74168,0.4995 -2.42773,1.1855 -1.16774,1.1677 -1.42467,2.6198 -1.58985,4.4161 l 0,0 0,0 c -0.43959,4.8862 -2.15709,7.8827 -5.21875,9.7265 -1.3809,0.8143 -3.6508,1.3191 -6.66406,1.3848 l 0,-7.1016 c 1.29299,-0.172 2.49369,-0.5137 3.40039,-1.3964 1.26413,-1.2317 1.70743,-2.9469 1.83399,-4.9297 l 0,-0.012 0.002,-0.012 c 0.14289,-2.7328 0.4327,-4.6427 0.67773,-5.4082 0.25815,-0.7552 0.81841,-1.6351 1.81055,-2.5957 l 0.002,0 0.002,-0 c 1.60368,-1.56 3.80809,-2.3907 7.03125,-2.3907 z"
             id="path4371"
             inkscape:connector-curvature="0" />
          <path
             style="color:#000000;font-style:normal;font-variant:normal;font-weight:normal;font-stretch:normal;font-size:medium;line-height:125%;font-family:'Bauhaus 93';-inkscape-font-specification:'Bauhaus 93, ';text-indent:0;text-align:start;text-decoration:none;text-decoration-line:none;text-decoration-style:solid;text-decoration-color:#000000;letter-spacing:0px;word-spacing:0px;text-transform:none;direction:ltr;block-progression:tb;writing-mode:lr-tb;baseline-shift:baseline;text-anchor:start;white-space:normal;clip-rule:nonzero;display:inline;overflow:visible;visibility:visible;opacity:1;isolation:auto;mix-blend-mode:normal;color-interpolation:sRGB;color-interpolation-filters:linearRGB;solid-color:#000000;solid-opacity:1;fill:none;fill-opacity:1;fill-rule:nonzero;stroke:#000000;stroke-width:2.153;stroke-linecap:butt;stroke-linejoin:miter;stroke-miterlimit:4;stroke-dasharray:none;stroke-dashoffset:0;stroke-opacity:1;color-rendering:auto;image-rendering:auto;shape-rendering:auto;text-rendering:auto;enable-background:accumulate"
             d="m 260.62891,-2919.9883 c -3.94621,0 -7.34655,1.1357 -9.78711,3.5098 -1.3181,1.2769 -2.29544,2.653 -2.81055,4.1738 l -0.006,0.014 -0.004,0.014 c -0.48984,1.5185 -0.71441,3.5491 -0.86523,6.4335 l 0.002,-0.023 c -0.094,1.4732 -0.47869,2.1842 -0.64843,2.3496 -0.14047,0.1363 -0.76797,0.459 -2.15039,0.459 l -2.44336,0 0,14.8731 3.41015,0 c 3.75956,0 6.83393,-0.5751 9.22071,-1.9844 l 0.008,-0 0.006,-0 c 4.21161,-2.5313 6.61028,-7.0311 7.12695,-12.7637 l 0,-0 c 0.12981,-1.3971 0.55056,-2.0799 0.44922,-1.9785 -0.0619,0.062 0.4073,-0.2481 1.60937,-0.2481 l 1.97657,0 0,-14.8164 -1.97657,0 -3.11718,0 z m 0,3.9531 1.14062,0 0,7.1309 c -0.90164,0.1847 -1.74168,0.4995 -2.42773,1.1855 -1.16775,1.1677 -1.42468,2.6198 -1.58985,4.4161 l -0.002,0 0,0 c -0.4396,4.8862 -2.15514,7.8827 -5.2168,9.7265 -1.38124,0.8145 -3.65163,1.3193 -6.66601,1.3848 l 0,-7.1016 c 1.29343,-0.1719 2.49539,-0.5134 3.40234,-1.3964 1.26412,-1.2317 1.70742,-2.9469 1.83399,-4.9297 l 0,-0.012 0.002,-0.012 c 0.14279,-2.7309 0.43086,-4.6377 0.67578,-5.4043 0.25766,-0.7559 0.819,-1.6377 1.8125,-2.5996 l 0.002,0 0.002,-0 c 1.60367,-1.56 3.80809,-2.3907 7.03125,-2.3907 z"
             id="path4373"
             inkscape:connector-curvature="0" />
          <path
             style="color:#000000;font-style:normal;font-variant:normal;font-weight:normal;font-stretch:normal;font-size:medium;line-height:125%;font-family:'Bauhaus 93';-inkscape-font-specification:'Bauhaus 93, ';text-indent:0;text-align:start;text-decoration:none;text-decoration-line:none;text-decoration-style:solid;text-decoration-color:#000000;letter-spacing:0px;word-spacing:0px;text-transform:none;direction:ltr;block-progression:tb;writing-mode:lr-tb;baseline-shift:baseline;text-anchor:start;white-space:normal;clip-rule:nonzero;display:inline;overflow:visible;visibility:visible;opacity:1;isolation:auto;mix-blend-mode:normal;color-interpolation:sRGB;color-interpolation-filters:linearRGB;solid-color:#000000;solid-opacity:1;fill:none;fill-opacity:1;fill-rule:nonzero;stroke:#000000;stroke-width:2.153;stroke-linecap:butt;stroke-linejoin:miter;stroke-miterlimit:4;stroke-dasharray:none;stroke-dashoffset:0;stroke-opacity:1;color-rendering:auto;image-rendering:auto;shape-rendering:auto;text-rendering:auto;enable-background:accumulate"
             d="m 280.17969,-2920.9531 c -4.58991,0 -8.67692,1.5993 -11.85352,4.6914 -6.7e-4,6e-4 -0.001,0 -0.002,0 -6.7e-4,7e-4 -0.001,0 -0.002,0 -3.17613,3.075 -4.84375,7.0772 -4.84375,11.5644 0,4.4243 1.67071,8.41 4.83007,11.5489 l 0.002,0 0.002,0 c 3.16132,3.1203 7.16854,4.7598 11.61914,4.7598 4.44777,0 8.44671,-1.6401 11.58984,-4.7598 l 0.002,-0 c 3.16212,-3.1225 4.83398,-7.1117 4.83398,-11.5508 0,-4.3811 -1.64752,-8.334 -4.76172,-11.4531 l -0.006,-0 c -3.09991,-3.1384 -7.03984,-4.8027 -11.41015,-4.8027 z m 0,3.9531 c 3.4217,0 6.15254,1.1474 8.60351,3.6309 l 0.004,0 0.004,0 c 2.46779,2.4678 3.61328,5.2225 3.61328,8.6679 0,3.501 -1.16037,6.2749 -3.65821,8.7403 l -0.002,0 -0.004,0 c -2.48114,2.4649 -5.28098,3.6172 -8.80859,3.6172 -3.52565,0 -6.33829,-1.1519 -8.83789,-3.6172 l -0.002,-0 c -7e-4,-7e-4 -0.001,-0 -0.002,-0 -2.49969,-2.4853 -3.6582,-5.2618 -3.6582,-8.7403 0,-3.5625 1.16134,-6.3239 3.64453,-8.7265 l 0.002,-0 0.002,-0 c 2.48479,-2.4202 5.38234,-3.5742 9.09961,-3.5742 z m -0.27539,6.2207 c -1.58286,0 -3.13807,0.6757 -4.23438,1.8203 -1.10295,1.1349 -1.71289,2.7004 -1.71289,4.293 0,1.586 0.6128,3.1429 1.70508,4.2871 l 0.008,0.01 0.008,0.01 c 1.1063,1.132 2.65062,1.8086 4.22657,1.8086 1.58286,0 3.13806,-0.6758 4.23437,-1.8203 1.10868,-1.1399 1.74024,-2.7011 1.74024,-4.293 0,-1.5926 -0.60994,-3.1581 -1.71289,-4.293 -1.10174,-1.1502 -2.66841,-1.8203 -4.26172,-1.8203 z m 0,3.9531 c 0.64611,0 0.96806,0.1384 1.41015,0.6016 l 0.008,0.01 0.008,0.01 c 0.43493,0.4453 0.5957,0.8221 0.5957,1.541 0,0.6828 -0.15695,1.0641 -0.62305,1.541 l -0.008,0.01 -0.008,0.01 c -0.44749,0.4688 -0.763,0.6015 -1.38281,0.6015 -0.58748,0 -0.91942,-0.139 -1.38672,-0.6132 -0.4443,-0.4688 -0.60742,-0.8586 -0.60742,-1.5469 0,-0.7189 0.16076,-1.0957 0.5957,-1.541 l 0.008,-0.01 0.008,-0.01 c 0.4475,-0.4688 0.763,-0.6016 1.38282,-0.6016 z"
             id="path4375"
             inkscape:connector-curvature="0" />
          <path
             style="color:#000000;font-style:normal;font-variant:normal;font-weight:normal;font-stretch:normal;font-size:medium;line-height:125%;font-family:'Bauhaus 93';-inkscape-font-specification:'Bauhaus 93, ';text-indent:0;text-align:start;text-decoration:none;text-decoration-line:none;text-decoration-style:solid;text-decoration-color:#000000;letter-spacing:0px;word-spacing:0px;text-transform:none;direction:ltr;block-progression:tb;writing-mode:lr-tb;baseline-shift:baseline;text-anchor:start;white-space:normal;clip-rule:nonzero;display:inline;overflow:visible;visibility:visible;opacity:1;isolation:auto;mix-blend-mode:normal;color-interpolation:sRGB;color-interpolation-filters:linearRGB;solid-color:#000000;solid-opacity:1;fill:none;fill-opacity:1;fill-rule:nonzero;stroke:#000000;stroke-width:2.153;stroke-linecap:butt;stroke-linejoin:miter;stroke-miterlimit:4;stroke-dasharray:none;stroke-dashoffset:0;stroke-opacity:1;color-rendering:auto;image-rendering:auto;shape-rendering:auto;text-rendering:auto;enable-background:accumulate"
             d="m 309.35352,-2920.9258 c -3.43976,0 -6.57573,1.3535 -8.97657,3.8574 -6.4e-4,7e-4 -0.001,0 -0.002,0 -2.40443,2.4905 -3.66992,5.698 -3.66992,9.2285 l 0,18.9082 13.70508,0 0.56054,0 13.14453,0 0.56055,0 13.70508,0 0,-1.9765 0,-15.7735 c 0,-4.0206 -0.88235,-7.3665 -2.91797,-9.791 -2.41942,-2.9067 -5.87228,-4.4551 -9.78516,-4.4551 -2.78073,0 -5.43288,1.3318 -7.95703,3.332 -2.45671,-2.113 -5.30138,-3.332 -8.36718,-3.332 z m 0,3.9531 c 2.49592,0 4.63645,0.9676 6.77929,3.2403 l 1.36328,1.4453 1.4375,-1.3711 c 2.46404,-2.3467 4.66932,-3.3145 6.74414,-3.3145 2.95847,0 5.01718,0.9493 6.75196,3.0372 l 0.004,0 0.002,0 c 1.23653,1.4727 1.99218,3.8051 1.99218,7.248 l 0,13.7969 -6.35937,0 0,-12.8594 c 0,-1.2779 -0.0192,-2.2445 -0.59766,-3.3125 -0.58274,-1.0757 -1.94317,-1.6973 -3.0332,-1.6973 -1.15946,0 -2.45469,0.7656 -3.02344,1.7676 -0.56875,1.0021 -0.6914,2.0623 -0.6914,3.2696 l 0,12.832 -6.35938,0 0,-12.8594 c 0,-1.2736 -0.0331,-2.2634 -0.64258,-3.3301 -0.58925,-1.0622 -1.93302,-1.6797 -3.01562,-1.6797 -1.15963,0 -2.44931,0.7795 -3.00781,1.7793 -0.55851,0.9999 -0.67969,2.0536 -0.67969,3.2579 l 0,12.832 -6.35938,0 0,-14.9551 c 0,-2.6452 0.81169,-4.6736 2.56055,-6.4844 l 0.004,-0 0.002,-0 c 1.75295,-1.8306 3.65213,-2.6446 6.12891,-2.6446 z"
             id="path4377"
             inkscape:connector-curvature="0" />
          <path
             style="color:#000000;font-style:normal;font-variant:normal;font-weight:normal;font-stretch:normal;font-size:medium;line-height:125%;font-family:'Bauhaus 93';-inkscape-font-specification:'Bauhaus 93, ';text-indent:0;text-align:start;text-decoration:none;text-decoration-line:none;text-decoration-style:solid;text-decoration-color:#000000;letter-spacing:0px;word-spacing:0px;text-transform:none;direction:ltr;block-progression:tb;writing-mode:lr-tb;baseline-shift:baseline;text-anchor:start;white-space:normal;clip-rule:nonzero;display:inline;overflow:visible;visibility:visible;opacity:1;isolation:auto;mix-blend-mode:normal;color-interpolation:sRGB;color-interpolation-filters:linearRGB;solid-color:#000000;solid-opacity:1;fill:none;fill-opacity:1;fill-rule:nonzero;stroke:#000000;stroke-width:2.153;stroke-linecap:butt;stroke-linejoin:miter;stroke-miterlimit:4;stroke-dasharray:none;stroke-dashoffset:0;stroke-opacity:1;color-rendering:auto;image-rendering:auto;shape-rendering:auto;text-rendering:auto;enable-background:accumulate"
             d="m 355.48633,-2920.9805 c -4.52916,0 -8.57771,1.6209 -11.73047,4.7325 l -0.002,0 -0.002,0 c -3.13315,3.1125 -4.77539,7.1223 -4.77539,11.6054 0,4.4965 1.62994,8.5014 4.75196,11.5821 3.12053,3.0792 7.15061,4.6777 11.67382,4.6777 3.76925,0 7.30116,-1.2562 10.34766,-3.6484 l 1.59961,-1.2559 -6.42773,-7.7246 10.39062,0 0.15039,-1.8125 c 0.0756,-0.9073 0.11719,-1.5696 0.11719,-2.0938 0,-4.4173 -1.59667,-8.3603 -4.6543,-11.4023 l -0.006,-0 c -3.0443,-3.0625 -6.99757,-4.6602 -11.43359,-4.6602 z m 0,3.9512 c 3.53975,0 6.2732,1.1223 8.63281,3.4981 l 0.006,0.01 0.004,0 c 2.36551,2.3495 3.47923,5.0664 3.49023,8.5606 l -12.10742,0 c -0.003,-0.057 -0.0352,-0.1481 -0.0352,-0.2012 0,-0.2468 0.10298,-0.4847 0.13477,-0.7266 l 5.98828,0 -0.41797,-2.3261 c -0.23735,-1.3173 -0.78609,-2.5489 -1.77148,-3.4239 -0.98539,-0.875 -2.30775,-1.2636 -3.6211,-1.2636 -1.84916,0 -3.62765,0.9562 -4.73242,2.4589 -1.10198,1.4822 -1.60156,3.3458 -1.60156,5.3633 0,2.0685 0.45655,3.95 1.51562,5.4629 l 0.006,0.01 0.008,0.01 c 1.08205,1.5099 2.85201,2.4805 4.69335,2.4805 0.95405,0 1.83757,-0.3316 2.66211,-0.8106 l 3.16602,3.8067 c -1.905,1.0888 -3.88014,1.791 -6.10352,1.791 -3.63882,0 -6.46536,-1.1402 -8.89648,-3.5391 -2.42964,-2.3975 -3.57617,-5.1755 -3.57617,-8.7676 0,-3.566 1.15195,-6.3571 3.60351,-8.7949 2.47242,-2.4401 5.32025,-3.5957 8.95313,-3.5957 z"
             id="path4379"
             inkscape:connector-curvature="0" />
          <path
             style="color:#000000;font-style:normal;font-variant:normal;font-weight:normal;font-stretch:normal;font-size:medium;line-height:125%;font-family:'Bauhaus 93';-inkscape-font-specification:'Bauhaus 93, ';text-indent:0;text-align:start;text-decoration:none;text-decoration-line:none;text-decoration-style:solid;text-decoration-color:#000000;letter-spacing:0px;word-spacing:0px;text-transform:none;direction:ltr;block-progression:tb;writing-mode:lr-tb;baseline-shift:baseline;text-anchor:start;white-space:normal;clip-rule:nonzero;display:inline;overflow:visible;visibility:visible;opacity:1;isolation:auto;mix-blend-mode:normal;color-interpolation:sRGB;color-interpolation-filters:linearRGB;solid-color:#000000;solid-opacity:1;fill:none;fill-opacity:1;fill-rule:nonzero;stroke:#000000;stroke-width:2.153;stroke-linecap:butt;stroke-linejoin:miter;stroke-miterlimit:4;stroke-dasharray:none;stroke-dashoffset:0;stroke-opacity:1;color-rendering:auto;image-rendering:auto;shape-rendering:auto;text-rendering:auto;enable-background:accumulate"
             d="m 398.58398,-2920.9258 c -3.43975,0 -6.57572,1.3535 -8.97656,3.8574 -6.4e-4,7e-4 -0.001,0 -0.002,0 -2.40443,2.4905 -3.66992,5.698 -3.66992,9.2285 l 0,18.9082 13.70507,0 0.5625,0 13.14258,0 0.56055,0 13.70508,0 0,-1.9765 0,-15.7735 c 0,-4.0165 -0.87897,-7.3593 -2.91016,-9.7832 l -0.002,-0 c -2.41969,-2.9109 -5.87521,-4.461 -9.79102,-4.461 -2.78073,0 -5.43289,1.3318 -7.95703,3.332 -2.45647,-2.1124 -5.30184,-3.332 -8.36719,-3.332 z m 0,3.9531 c 2.49593,0 4.63645,0.9676 6.7793,3.2403 l 1.36328,1.4453 1.4375,-1.3711 c 2.46403,-2.3467 4.66932,-3.3145 6.74414,-3.3145 2.95847,0 5.01718,0.9493 6.75196,3.0372 l 0.004,0 0.002,0 c 1.23654,1.4727 1.99218,3.8051 1.99218,7.248 l 0,13.7969 -6.35937,0 0,-12.8594 c 0,-1.2779 -0.0192,-2.2445 -0.59766,-3.3125 -0.58273,-1.0757 -1.94317,-1.6973 -3.0332,-1.6973 -1.15946,0 -2.45273,0.7656 -3.02149,1.7676 -0.56875,1.0021 -0.69336,2.0623 -0.69336,3.2696 l 0,12.832 -6.35937,0 0,-12.8594 c 0,-1.2722 -0.0331,-2.2608 -0.64063,-3.3262 -0.58819,-1.0644 -1.93375,-1.6836 -3.01757,-1.6836 -1.15964,0 -2.44931,0.7795 -3.00782,1.7793 -0.5585,0.9999 -0.67773,2.0536 -0.67773,3.2579 l 0,12.832 -6.36133,0 0,-14.9551 c 0,-2.6452 0.81364,-4.6736 2.5625,-6.4844 l 0.002,-0 0.004,-0 c 1.75295,-1.8306 3.65018,-2.6446 6.12695,-2.6446 z"
             id="path4381"
             inkscape:connector-curvature="0" />
          <path
             style="color:#000000;font-style:normal;font-variant:normal;font-weight:normal;font-stretch:normal;font-size:medium;line-height:125%;font-family:'Bauhaus 93';-inkscape-font-specification:'Bauhaus 93, ';text-indent:0;text-align:start;text-decoration:none;text-decoration-line:none;text-decoration-style:solid;text-decoration-color:#000000;letter-spacing:0px;word-spacing:0px;text-transform:none;direction:ltr;block-progression:tb;writing-mode:lr-tb;baseline-shift:baseline;text-anchor:start;white-space:normal;clip-rule:nonzero;display:inline;overflow:visible;visibility:visible;opacity:1;isolation:auto;mix-blend-mode:normal;color-interpolation:sRGB;color-interpolation-filters:linearRGB;solid-color:#000000;solid-opacity:1;fill:none;fill-opacity:1;fill-rule:nonzero;stroke:#000000;stroke-width:2.153;stroke-linecap:butt;stroke-linejoin:miter;stroke-miterlimit:4;stroke-dasharray:none;stroke-dashoffset:0;stroke-opacity:1;color-rendering:auto;image-rendering:auto;shape-rendering:auto;text-rendering:auto;enable-background:accumulate"
             d="m 444.74414,-2920.9531 c -4.5899,0 -8.67692,1.5993 -11.85352,4.6914 -6.7e-4,6e-4 -0.001,0 -0.002,0 -6.7e-4,7e-4 -0.001,0 -0.002,0 -3.17614,3.075 -4.84375,7.0772 -4.84375,11.5644 0,4.4243 1.67071,8.41 4.83008,11.5489 l 0.002,0 0.002,0 c 3.16132,3.1203 7.16855,4.7598 11.61914,4.7598 4.44778,0 8.44671,-1.6401 11.58985,-4.7598 l 0.002,-0 c 3.16212,-3.1225 4.83399,-7.1117 4.83399,-11.5508 0,-4.3811 -1.64754,-8.334 -4.76172,-11.4531 l -0.006,-0 c -3.09992,-3.1384 -7.03985,-4.8027 -11.41016,-4.8027 z m 0,3.9531 c 3.4217,0 6.15058,1.1474 8.60156,3.6309 l 0.006,0 0.004,0 c 2.46778,2.4678 3.61328,5.2225 3.61328,8.6679 0,3.501 -1.16038,6.2749 -3.6582,8.7403 l -0.004,0 -0.002,0 c -2.48115,2.4649 -5.28098,3.6172 -8.8086,3.6172 -3.52564,0 -6.33829,-1.1519 -8.83789,-3.6172 l -0.002,-0 c -7e-4,-7e-4 -0.001,-0 -0.002,-0 -2.4997,-2.4853 -3.65821,-5.2618 -3.65821,-8.7403 0,-3.5625 1.16134,-6.3239 3.64453,-8.7265 l 0.002,-0 0.002,-0 c 2.48479,-2.4202 5.38235,-3.5742 9.09961,-3.5742 z m -0.27539,6.2207 c -1.58286,0 -3.13806,0.6757 -4.23437,1.8203 -1.10295,1.1349 -1.7129,2.7004 -1.7129,4.293 0,1.586 0.61281,3.1429 1.70508,4.2871 l 0.008,0.01 0.008,0.01 c 1.1063,1.132 2.65061,1.8086 4.22656,1.8086 1.5814,0 3.13432,-0.6757 4.23047,-1.8184 1.10985,-1.14 1.74414,-2.7021 1.74414,-4.2949 0,-1.5926 -0.60994,-3.1581 -1.71289,-4.293 -1.10173,-1.1502 -2.66841,-1.8203 -4.26172,-1.8203 z m 0,3.9531 c 0.64612,0 0.96807,0.1384 1.41016,0.6016 l 0.008,0.01 0.008,0.01 c 0.43494,0.4453 0.5957,0.8221 0.5957,1.541 0,0.6828 -0.15695,1.0641 -0.62304,1.541 l -0.008,0.01 -0.008,0.01 c -0.4475,0.4688 -0.763,0.6015 -1.38281,0.6015 -0.58749,0 -0.91942,-0.139 -1.38672,-0.6132 -0.44429,-0.4688 -0.60742,-0.8586 -0.60742,-1.5469 0,-0.7189 0.16077,-1.0957 0.5957,-1.541 l 0.008,-0.01 0.008,-0.01 c 0.4475,-0.4688 0.76299,-0.6016 1.38281,-0.6016 z"
             id="path4383"
             inkscape:connector-curvature="0" />
          <path
             style="color:#000000;font-style:normal;font-variant:normal;font-weight:normal;font-stretch:normal;font-size:medium;line-height:125%;font-family:'Bauhaus 93';-inkscape-font-specification:'Bauhaus 93, ';text-indent:0;text-align:start;text-decoration:none;text-decoration-line:none;text-decoration-style:solid;text-decoration-color:#000000;letter-spacing:0px;word-spacing:0px;text-transform:none;direction:ltr;block-progression:tb;writing-mode:lr-tb;baseline-shift:baseline;text-anchor:start;white-space:normal;clip-rule:nonzero;display:inline;overflow:visible;visibility:visible;opacity:1;isolation:auto;mix-blend-mode:normal;color-interpolation:sRGB;color-interpolation-filters:linearRGB;solid-color:#000000;solid-opacity:1;fill:none;fill-opacity:1;fill-rule:nonzero;stroke:#000000;stroke-width:2.153;stroke-linecap:butt;stroke-linejoin:miter;stroke-miterlimit:4;stroke-dasharray:none;stroke-dashoffset:0;stroke-opacity:1;color-rendering:auto;image-rendering:auto;shape-rendering:auto;text-rendering:auto;enable-background:accumulate"
             d="m 475.18555,-2920.9531 c -4.04986,0 -7.60014,1.4218 -10.13867,4.1933 -6.3e-4,7e-4 -0.001,0 -0.002,0 -0.001,0 -0.003,0 -0.004,0 -2.54096,2.7598 -3.77149,6.4909 -3.77149,10.8184 l 0,17.0058 14.26563,0 0,-15.0195 c 0,-1.2185 0.24238,-1.9328 0.38086,-2.1446 0.13847,-0.2117 0.0214,-0.1796 0.45507,-0.1796 0.13533,0 0.47283,0.061 0.98829,0.3515 l 2.94726,1.6621 0,-16.1035 -1.66992,-0.2637 c -1.34955,-0.212 -2.47762,-0.3261 -3.45117,-0.3261 z m 0,3.9531 c 0.26511,0 0.79777,0.084 1.16797,0.1152 l 0,6.6621 c -1.43608,0.01 -2.95033,0.7478 -3.7461,1.9649 -0.79905,1.2221 -1.02539,2.6593 -1.02539,4.3086 l 0,11.0664 -6.35937,0 0,-13.0527 c 0,-3.6109 0.93683,-6.199 2.73046,-8.1446 l 0.002,-0 0.004,-0 c 1.79946,-1.9672 4.03655,-2.9141 7.22657,-2.9141 z"
             id="path4385"
             inkscape:connector-curvature="0" />
          <path
             style="color:#000000;font-style:normal;font-variant:normal;font-weight:normal;font-stretch:normal;font-size:medium;line-height:125%;font-family:'Bauhaus 93';-inkscape-font-specification:'Bauhaus 93, ';text-indent:0;text-align:start;text-decoration:none;text-decoration-line:none;text-decoration-style:solid;text-decoration-color:#000000;letter-spacing:0px;word-spacing:0px;text-transform:none;direction:ltr;block-progression:tb;writing-mode:lr-tb;baseline-shift:baseline;text-anchor:start;white-space:normal;clip-rule:nonzero;display:inline;overflow:visible;visibility:visible;opacity:1;isolation:auto;mix-blend-mode:normal;color-interpolation:sRGB;color-interpolation-filters:linearRGB;solid-color:#000000;solid-opacity:1;fill:none;fill-opacity:1;fill-rule:nonzero;stroke:#000000;stroke-width:2.153;stroke-linecap:butt;stroke-linejoin:miter;stroke-miterlimit:4;stroke-dasharray:none;stroke-dashoffset:0;stroke-opacity:1;color-rendering:auto;image-rendering:auto;shape-rendering:auto;text-rendering:auto;enable-background:accumulate"
             d="m 494.34961,-2920.9805 c -4.52916,0 -8.57575,1.6209 -11.72852,4.7325 l -0.002,0 -0.002,0 c -3.13316,3.1125 -4.77539,7.1223 -4.77539,11.6054 0,4.4965 1.62993,8.5014 4.75195,11.5821 3.12054,3.0792 7.15061,4.6777 11.67383,4.6777 3.76924,0 7.30115,-1.2562 10.34765,-3.6484 l 1.59961,-1.2559 -6.42773,-7.7246 10.39062,0 0.15039,-1.8125 c 0.0756,-0.9073 0.11719,-1.5696 0.11719,-2.0938 0,-4.4173 -1.59862,-8.3603 -4.65625,-11.4023 l -0.006,-0 c -3.0443,-3.0625 -6.99758,-4.6602 -11.43359,-4.6602 z m 0,3.9512 c 3.53974,0 6.27514,1.1223 8.63477,3.4981 l 0.006,0.01 0.004,0 c 2.36552,2.3495 3.47923,5.0664 3.49024,8.5606 l -12.10743,0 c -0.003,-0.057 -0.0352,-0.1481 -0.0352,-0.2012 0,-0.2468 0.10297,-0.4847 0.13476,-0.7266 l 5.98828,0 -0.41992,-2.3261 c -0.23735,-1.3173 -0.78414,-2.5489 -1.76953,-3.4239 -0.98539,-0.875 -2.30775,-1.2636 -3.62109,-1.2636 -1.84916,0 -3.62766,0.9562 -4.73242,2.4589 -1.10198,1.4822 -1.60157,3.3458 -1.60157,5.3633 0,2.0685 0.45656,3.95 1.51563,5.4629 l 0.006,0.01 0.006,0.01 c 1.08205,1.5099 2.85396,2.4805 4.69531,2.4805 0.95404,0 1.83756,-0.3316 2.66211,-0.8106 l 3.16601,3.8067 c -1.905,1.0888 -3.88013,1.791 -6.10351,1.791 -3.63882,0 -6.46537,-1.1402 -8.89649,-3.5391 -2.42964,-2.3975 -3.57617,-5.1755 -3.57617,-8.7676 0,-3.566 1.15195,-6.3571 3.60352,-8.7949 2.47242,-2.4401 5.31829,-3.5957 8.95117,-3.5957 z"
             id="path4387"
             inkscape:connector-curvature="0" />
          <path
             style="color:#000000;font-style:normal;font-variant:normal;font-weight:normal;font-stretch:normal;font-size:medium;line-height:125%;font-family:'Bauhaus 93';-inkscape-font-specification:'Bauhaus 93, ';text-indent:0;text-align:start;text-decoration:none;text-decoration-line:none;text-decoration-style:solid;text-decoration-color:#000000;letter-spacing:0px;word-spacing:0px;text-transform:none;direction:ltr;block-progression:tb;writing-mode:lr-tb;baseline-shift:baseline;text-anchor:start;white-space:normal;clip-rule:nonzero;display:inline;overflow:visible;visibility:visible;opacity:1;isolation:auto;mix-blend-mode:normal;color-interpolation:sRGB;color-interpolation-filters:linearRGB;solid-color:#000000;solid-opacity:1;fill:none;fill-opacity:1;fill-rule:nonzero;stroke:#000000;stroke-width:2.153;stroke-linecap:butt;stroke-linejoin:miter;stroke-miterlimit:4;stroke-dasharray:none;stroke-dashoffset:0;stroke-opacity:1;color-rendering:auto;image-rendering:auto;shape-rendering:auto;text-rendering:auto;enable-background:accumulate"
             d="m 523.66992,-2930.5215 0,24.5606 c 0,4.1815 0.84563,7.7362 2.70508,10.5254 l 0.002,0 0.002,0 c 1.43122,2.1257 3.35721,3.8321 5.68164,5.0566 l 0.004,0 0.002,0 c 2.34657,1.2252 4.89248,1.8516 7.5332,1.8516 0.30515,0 0.71164,-0.01 1.25586,-0.029 l 1.90625,-0.066 0,-14.7227 -1.97656,0 c -1.52469,0 -2.12559,-0.3548 -2.28125,-0.5312 -0.0799,-0.1013 -0.23285,-0.5832 -0.36719,-1.2793 l 4.43164,0 0,-14.8438 -4.63086,0 0,-6.5801 0,-1.9765 -3.95312,0 1.97656,-1.9766 -12.29102,0 z m 3.95313,3.9531 6.36133,0 0,10.5332 4.63085,0 0,6.9375 -4.63085,0 0,1.9766 c 0,2.3925 0.2457,4.2919 1.46874,5.7793 l 0.008,0.01 0.01,0.01 c 0.83656,0.9907 2.03437,1.4208 3.33789,1.6661 l 0,7.0937 c -1.71889,-0.1074 -3.34789,-0.4919 -4.91211,-1.3086 -1.78709,-0.9426 -3.16562,-2.1742 -4.23242,-3.7559 l 0,-0 c -1.30186,-1.9536 -2.04101,-4.6834 -2.04101,-8.332 l 0,-20.6075 z"
             id="path4389"
             inkscape:connector-curvature="0" />
          <path
             style="color:#000000;font-style:normal;font-variant:normal;font-weight:normal;font-stretch:normal;font-size:medium;line-height:125%;font-family:'Bauhaus 93';-inkscape-font-specification:'Bauhaus 93, ';text-indent:0;text-align:start;text-decoration:none;text-decoration-line:none;text-decoration-style:solid;text-decoration-color:#000000;letter-spacing:0px;word-spacing:0px;text-transform:none;direction:ltr;block-progression:tb;writing-mode:lr-tb;baseline-shift:baseline;text-anchor:start;white-space:normal;clip-rule:nonzero;display:inline;overflow:visible;visibility:visible;opacity:1;isolation:auto;mix-blend-mode:normal;color-interpolation:sRGB;color-interpolation-filters:linearRGB;solid-color:#000000;solid-opacity:1;fill:none;fill-opacity:1;fill-rule:nonzero;stroke:#000000;stroke-width:2.153;stroke-linecap:butt;stroke-linejoin:miter;stroke-miterlimit:4;stroke-dasharray:none;stroke-dashoffset:0;stroke-opacity:1;color-rendering:auto;image-rendering:auto;shape-rendering:auto;text-rendering:auto;enable-background:accumulate"
             d="m 558.6543,-2920.9805 c -4.52916,0 -8.57575,1.6209 -11.72852,4.7325 l -0.004,0 -0.002,0 c -3.13316,3.1125 -4.77344,7.1223 -4.77344,11.6054 0,4.4965 1.62994,8.5014 4.75196,11.5821 3.12053,3.0792 7.14865,4.6777 11.67187,4.6777 3.76924,0 7.30311,-1.2562 10.34961,-3.6484 l 1.59766,-1.2559 -6.42774,-7.7246 10.39063,0 0.15039,-1.8125 c 0.0756,-0.9073 0.11719,-1.5696 0.11719,-2.0938 0,-4.4173 -1.59668,-8.3603 -4.6543,-11.4023 l -0.006,-0 c -3.0443,-3.0625 -6.99758,-4.6602 -11.43359,-4.6602 z m 0,3.9512 c 3.53974,0 6.27514,1.1223 8.63476,3.4981 l 0.004,0.01 0.006,0 c 2.36552,2.3495 3.47728,5.0664 3.48828,8.5606 l -12.10742,0 c -0.003,-0.057 -0.0352,-0.1481 -0.0352,-0.2012 0,-0.2468 0.10298,-0.4847 0.13477,-0.7266 l 5.98828,0 -0.41797,-2.3261 c -0.23735,-1.3173 -0.7861,-2.5489 -1.77149,-3.4239 -0.98538,-0.875 -2.30774,-1.2636 -3.62109,-1.2636 -1.85058,0 -3.62979,0.9562 -4.73437,2.4609 -5.6e-4,7e-4 -0.001,0 -0.002,0 -1.0998,1.4816 -1.59765,3.3438 -1.59765,5.3594 0,2.0685 0.45654,3.95 1.51562,5.4629 l 0.008,0.01 0.006,0.01 c 1.08206,1.5099 2.85397,2.4805 4.69532,2.4805 0.95455,0 1.83721,-0.3312 2.66211,-0.8106 l 3.16601,3.8067 c -1.905,1.0888 -3.88209,1.791 -6.10547,1.791 -3.63882,0 -6.46536,-1.1402 -8.89648,-3.5391 -2.42965,-2.3975 -3.57422,-5.1755 -3.57422,-8.7676 0,-3.567 1.15247,-6.3585 3.60547,-8.7968 2.47165,-2.438 5.31795,-3.5938 8.94922,-3.5938 z"
             id="path4391"
             inkscape:connector-curvature="0" />
          <path
             style="color:#000000;font-style:normal;font-variant:normal;font-weight:normal;font-stretch:normal;font-size:medium;line-height:125%;font-family:'Bauhaus 93';-inkscape-font-specification:'Bauhaus 93, ';text-indent:0;text-align:start;text-decoration:none;text-decoration-line:none;text-decoration-style:solid;text-decoration-color:#000000;letter-spacing:0px;word-spacing:0px;text-transform:none;direction:ltr;block-progression:tb;writing-mode:lr-tb;baseline-shift:baseline;text-anchor:start;white-space:normal;clip-rule:nonzero;display:inline;overflow:visible;visibility:visible;opacity:1;isolation:auto;mix-blend-mode:normal;color-interpolation:sRGB;color-interpolation-filters:linearRGB;solid-color:#000000;solid-opacity:1;fill:none;fill-opacity:1;fill-rule:nonzero;stroke:#000000;stroke-width:2.153;stroke-linecap:butt;stroke-linejoin:miter;stroke-miterlimit:4;stroke-dasharray:none;stroke-dashoffset:0;stroke-opacity:1;color-rendering:auto;image-rendering:auto;shape-rendering:auto;text-rendering:auto;enable-background:accumulate"
             d="m 574.62891,-2920.375 0,7.6289 c 0,1.9434 0.33982,3.6911 1.15429,5.1719 l 0.006,0.012 0.006,0.01 c 0.43799,0.7729 1.02212,1.475 1.70899,2.1308 -0.67959,0.6244 -1.25493,1.297 -1.69336,2.0449 l -0.008,0.012 -0.006,0.01 c -0.82874,1.4567 -1.16797,3.1858 -1.16797,5.1133 l 0,9.3125 14.22851,0 0.0371,0 14.22852,0 0,-9.6973 c 0,-1.836 -0.26508,-3.4521 -0.94727,-4.8418 -0.34129,-0.6952 -0.79738,-1.3295 -1.34375,-1.914 0.53999,-0.5873 0.99172,-1.2306 1.32617,-1.9356 0.6932,-1.4406 0.96485,-3.1208 0.96485,-5.041 l 0,-8.0156 -14.22852,0 -0.0371,0 -14.22851,0 z m 3.95312,3.9531 6.35938,0 0,4.9727 c 0,1.0548 0.30354,2.1489 0.98437,3 0.67884,0.8486 1.84799,1.4297 2.94922,1.4297 1.06555,0 2.28679,-0.4463 3.01367,-1.3575 0.72689,-0.9112 0.92188,-1.9914 0.92188,-3.0722 l 0,-4.9727 6.35937,0 0,4.0625 c 0,1.5318 -0.2432,2.6423 -0.57617,3.3321 l -0.002,0.01 -0.004,0.01 c -0.3098,0.654 -0.88446,1.3178 -1.89062,1.9785 l -2.47852,1.627 2.45508,1.6621 c 1.04778,0.7088 1.64998,1.402 1.95312,2.0195 0.31049,0.6325 0.54297,1.6634 0.54297,3.0996 l 0,5.7442 -6.35937,0 0,-6.3242 c 0,-1.177 -0.16813,-2.2812 -0.85352,-3.2618 -0.68539,-0.9805 -1.97632,-1.5546 -3.10937,-1.5546 -1.06226,0 -2.28248,0.4568 -3,1.3691 -0.71753,0.9123 -0.90625,1.9853 -0.90625,3.0625 l 0,6.709 -6.35938,0 0,-5.3594 c 0,-1.4476 0.26505,-2.4666 0.64649,-3.1426 0.39935,-0.6776 1.20756,-1.4915 2.54687,-2.3144 l 2.66406,-1.6367 -2.62109,-1.7032 c -1.34452,-0.8747 -2.16458,-1.7324 -2.57617,-2.455 -0.3956,-0.7249 -0.66016,-1.7832 -0.66016,-3.252 l 0,-3.6758 z"
             id="path4393"
             inkscape:connector-curvature="0" />
          <path
             style="color:#000000;font-style:normal;font-variant:normal;font-weight:normal;font-stretch:normal;font-size:medium;line-height:125%;font-family:'Bauhaus 93';-inkscape-font-specification:'Bauhaus 93, ';text-indent:0;text-align:start;text-decoration:none;text-decoration-line:none;text-decoration-style:solid;text-decoration-color:#000000;letter-spacing:0px;word-spacing:0px;text-transform:none;direction:ltr;block-progression:tb;writing-mode:lr-tb;baseline-shift:baseline;text-anchor:start;white-space:normal;clip-rule:nonzero;display:inline;overflow:visible;visibility:visible;opacity:1;isolation:auto;mix-blend-mode:normal;color-interpolation:sRGB;color-interpolation-filters:linearRGB;solid-color:#000000;solid-opacity:1;fill:none;fill-opacity:1;fill-rule:nonzero;stroke:#000000;stroke-width:2.153;stroke-linecap:butt;stroke-linejoin:miter;stroke-miterlimit:4;stroke-dasharray:none;stroke-dashoffset:0;stroke-opacity:1;color-rendering:auto;image-rendering:auto;shape-rendering:auto;text-rendering:auto;enable-background:accumulate"
             d="m 603.63672,-2930.5215 0,24.5606 c 0,4.1815 0.84368,7.7362 2.70312,10.5254 l 0.002,0 0.004,0 c 1.43123,2.1257 3.35722,3.8321 5.68164,5.0566 l 0.002,0 0.004,0 c 2.34658,1.2252 4.89249,1.8516 7.53321,1.8516 0.30514,0 0.70968,-0.01 1.2539,-0.029 l 1.90821,-0.066 0,-14.7227 -1.97657,0 c -1.52752,0 -2.12895,-0.3571 -2.2832,-0.5332 -0.08,-0.102 -0.23306,-0.5822 -0.36719,-1.2773 l 4.4336,0 0,-14.8438 -4.63282,0 0,-6.5801 0,-1.9765 -3.95312,0 1.97656,-1.9766 -12.28906,0 z m 3.95312,3.9531 6.35938,0 0,10.5332 4.63281,0 0,6.9375 -4.63281,0 0,1.9766 c 0,2.3925 0.24765,4.2919 1.4707,5.7793 l 0.008,0.01 0.008,0.01 c 0.83682,0.9911 2.0358,1.4209 3.33984,1.6661 l 0,7.0937 c -1.71909,-0.1073 -3.34773,-0.4918 -4.91211,-1.3086 -1.78931,-0.9438 -3.16898,-2.1772 -4.23633,-3.7617 -5.2e-4,-8e-4 -0.001,-0 -0.002,-0 -1.29967,-1.9532 -2.03516,-4.6808 -2.03516,-8.3261 l 0,-20.6075 z"
             id="path4395"
             inkscape:connector-curvature="0" />
          <path
             style="color:#000000;font-style:normal;font-variant:normal;font-weight:normal;font-stretch:normal;font-size:medium;line-height:125%;font-family:'Bauhaus 93';-inkscape-font-specification:'Bauhaus 93, ';text-indent:0;text-align:start;text-decoration:none;text-decoration-line:none;text-decoration-style:solid;text-decoration-color:#000000;letter-spacing:0px;word-spacing:0px;text-transform:none;direction:ltr;block-progression:tb;writing-mode:lr-tb;baseline-shift:baseline;text-anchor:start;white-space:normal;clip-rule:nonzero;display:inline;overflow:visible;visibility:visible;opacity:1;isolation:auto;mix-blend-mode:normal;color-interpolation:sRGB;color-interpolation-filters:linearRGB;solid-color:#000000;solid-opacity:1;fill:none;fill-opacity:1;fill-rule:nonzero;stroke:#000000;stroke-width:2.153;stroke-linecap:butt;stroke-linejoin:miter;stroke-miterlimit:4;stroke-dasharray:none;stroke-dashoffset:0;stroke-opacity:1;color-rendering:auto;image-rendering:auto;shape-rendering:auto;text-rendering:auto;enable-background:accumulate"
             d="m 654.67773,-2930.5215 0,1.9766 0,7.7578 c -0.91464,-0.074 -1.77074,-0.1387 -2.35351,-0.1387 -4.31146,0 -8.22314,1.6822 -11.33399,4.834 -3.11125,3.1521 -4.75976,7.0997 -4.75976,11.4531 0,4.47 1.65614,8.4661 4.81055,11.5586 3.15537,3.0936 7.20938,4.7012 11.75195,4.7012 2.34715,0 4.65057,-0.5211 6.83984,-1.5332 2.20116,-1.009 4.07741,-2.4057 5.54297,-4.168 2.53584,-3.043 3.76758,-6.9958 3.76758,-11.5508 l 0,-24.8906 -14.26563,0 z m 3.95313,3.9531 6.35937,0 0,20.9375 c 0,3.8645 -0.97549,6.7683 -2.85156,9.0196 l -0.002,0 c -1.06958,1.2866 -2.42716,2.3137 -4.15625,3.1055 l -0.002,0 -0.004,0 c -1.70792,0.7895 -3.411,1.168 -5.18164,1.168 -3.65623,0 -6.51457,-1.1489 -8.98438,-3.5703 -2.47077,-2.4223 -3.625,-5.1912 -3.625,-8.7364 0,-3.4042 1.14393,-6.166 3.6211,-8.6758 2.47757,-2.5101 5.18367,-3.6582 8.51953,-3.6582 0.14731,0 0.56245,0.038 0.78125,0.047 l 0,6.6426 c -0.19005,-0.022 -0.36751,-0.1094 -0.56055,-0.1094 -1.55466,0 -3.08201,0.6655 -4.17187,1.7813 -1.0823,1.1087 -1.69336,2.6402 -1.69336,4.1933 0,1.5547 0.66547,3.082 1.78125,4.1719 l 0.01,0.01 0.008,0.01 c 1.12277,1.0705 2.6519,1.6778 4.20507,1.6778 1.77882,0 3.54947,-0.7679 4.57813,-2.1895 1.02866,-1.4215 1.36914,-3.2079 1.36914,-5.2754 l 0,-20.5508 z m -6.08594,20.1289 c 0.33,0 0.72457,0.1076 1.31836,0.5723 l 0.67383,0.5274 c -0.0998,1.0061 -0.24923,1.9651 -0.47656,2.2793 -0.29492,0.4075 -0.50863,0.5546 -1.37696,0.5546 -0.64772,0 -1.01164,-0.153 -1.46484,-0.582 -0.45364,-0.4469 -0.58594,-0.7582 -0.58594,-1.3301 0,-0.6527 0.14326,-0.9961 0.56836,-1.4316 0.4543,-0.4651 0.76599,-0.5899 1.34375,-0.5899 z"
             id="path4397"
             inkscape:connector-curvature="0" />
          <path
             style="color:#000000;font-style:normal;font-variant:normal;font-weight:normal;font-stretch:normal;font-size:medium;line-height:125%;font-family:'Bauhaus 93';-inkscape-font-specification:'Bauhaus 93, ';text-indent:0;text-align:start;text-decoration:none;text-decoration-line:none;text-decoration-style:solid;text-decoration-color:#000000;letter-spacing:0px;word-spacing:0px;text-transform:none;direction:ltr;block-progression:tb;writing-mode:lr-tb;baseline-shift:baseline;text-anchor:start;white-space:normal;clip-rule:nonzero;display:inline;overflow:visible;visibility:visible;opacity:1;isolation:auto;mix-blend-mode:normal;color-interpolation:sRGB;color-interpolation-filters:linearRGB;solid-color:#000000;solid-opacity:1;fill:none;fill-opacity:1;fill-rule:nonzero;stroke:#000000;stroke-width:2.153;stroke-linecap:butt;stroke-linejoin:miter;stroke-miterlimit:4;stroke-dasharray:none;stroke-dashoffset:0;stroke-opacity:1;color-rendering:auto;image-rendering:auto;shape-rendering:auto;text-rendering:auto;enable-background:accumulate"
             d="m 685.41406,-2920.9531 c -4.5899,0 -8.67691,1.5993 -11.85351,4.6914 -6.8e-4,6e-4 -0.001,0 -0.002,0 -6.6e-4,7e-4 -0.001,0 -0.002,0 -3.17613,3.075 -4.84375,7.0772 -4.84375,11.5644 0,4.4243 1.67071,8.41 4.83008,11.5489 l 0.002,0 0.002,0 c 3.16131,3.1203 7.16854,4.7598 11.61914,4.7598 4.44777,0 8.4467,-1.6401 11.58984,-4.7598 l 0.002,-0 c 3.16212,-3.1225 4.83399,-7.1117 4.83399,-11.5508 0,-4.3811 -1.64754,-8.334 -4.76172,-11.4531 l -0.006,-0 c -3.09992,-3.1384 -7.03985,-4.8027 -11.41016,-4.8027 z m 0,3.9531 c 3.4217,0 6.15058,1.1474 8.60156,3.6309 l 0.006,0 0.004,0 c 2.46778,2.4678 3.61328,5.2225 3.61328,8.6679 0,3.501 -1.16037,6.2749 -3.6582,8.7403 l -0.004,0 -0.002,0 c -2.48114,2.4649 -5.28098,3.6172 -8.80859,3.6172 -3.52565,0 -6.3383,-1.1519 -8.8379,-3.6172 l -0.002,-0 c -6.9e-4,-7e-4 -0.001,-0 -0.002,-0 -2.4997,-2.4853 -3.6582,-5.2618 -3.6582,-8.7403 0,-3.5625 1.16133,-6.3239 3.64453,-8.7265 l 0.002,-0 0.002,-0 c 2.48479,-2.4202 5.38236,-3.5742 9.09961,-3.5742 z m -0.27539,6.2207 c -1.58286,0 -3.13806,0.6757 -4.23437,1.8203 -1.10295,1.1349 -1.71289,2.7004 -1.71289,4.293 0,1.586 0.6128,3.1429 1.70507,4.2871 l 0.008,0.01 0.008,0.01 c 1.1063,1.132 2.65061,1.8086 4.22656,1.8086 1.5814,0 3.13432,-0.6757 4.23047,-1.8184 1.10986,-1.14 1.74414,-2.7021 1.74414,-4.2949 0,-1.5926 -0.60994,-3.1581 -1.71289,-4.293 -1.10173,-1.1502 -2.6684,-1.8203 -4.26172,-1.8203 z m 0,3.9531 c 0.64612,0 0.96807,0.1384 1.41016,0.6016 l 0.008,0.01 0.008,0.01 c 0.43494,0.4453 0.59571,0.8221 0.59571,1.541 0,0.6828 -0.15696,1.0641 -0.62305,1.541 l -0.008,0.01 -0.008,0.01 c -0.4475,0.4688 -0.763,0.6015 -1.38281,0.6015 -0.58749,0 -0.91942,-0.139 -1.38672,-0.6132 -0.44429,-0.4688 -0.60742,-0.8586 -0.60742,-1.5469 0,-0.7189 0.16077,-1.0957 0.5957,-1.541 l 0.008,-0.01 0.008,-0.01 c 0.4475,-0.4688 0.76299,-0.6016 1.38281,-0.6016 z"
             id="path4399"
             inkscape:connector-curvature="0" />
          <path
             style="color:#000000;font-style:normal;font-variant:normal;font-weight:normal;font-stretch:normal;font-size:medium;line-height:125%;font-family:'Bauhaus 93';-inkscape-font-specification:'Bauhaus 93, ';text-indent:0;text-align:start;text-decoration:none;text-decoration-line:none;text-decoration-style:solid;text-decoration-color:#000000;letter-spacing:0px;word-spacing:0px;text-transform:none;direction:ltr;block-progression:tb;writing-mode:lr-tb;baseline-shift:baseline;text-anchor:start;white-space:normal;clip-rule:nonzero;display:inline;overflow:visible;visibility:visible;opacity:1;isolation:auto;mix-blend-mode:normal;color-interpolation:sRGB;color-interpolation-filters:linearRGB;solid-color:#000000;solid-opacity:1;fill:none;fill-opacity:1;fill-rule:nonzero;stroke:#000000;stroke-width:2.153;stroke-linecap:butt;stroke-linejoin:miter;stroke-miterlimit:4;stroke-dasharray:none;stroke-dashoffset:0;stroke-opacity:1;color-rendering:auto;image-rendering:auto;shape-rendering:auto;text-rendering:auto;enable-background:accumulate"
             d="m 701.93945,-2919.9883 0,1.9766 0,15.7715 c 0,4.0036 0.885,7.348 2.91211,9.7851 2.41973,2.9116 5.87474,4.4629 9.79102,4.4629 2.79003,0 5.44222,-1.3327 7.95703,-3.332 2.45662,2.1128 5.30157,3.332 8.36719,3.332 3.43844,0 6.57341,-1.3419 8.97656,-3.8301 l 0.004,-0 0.002,-0 c 2.40135,-2.5076 3.66601,-5.7224 3.66601,-9.2539 l 0,-18.9063 -13.70507,0 -0.5625,0 -13.14258,0 -0.56055,0 -13.70508,0 z m 3.95313,3.9531 6.35937,0 0,12.8301 c 0,1.2941 0.0296,2.2754 0.58203,3.3379 l 0.008,0.016 0.008,0.016 c 0.58274,1.0756 1.94318,1.6953 3.0332,1.6953 1.1647,0 2.45982,-0.7739 3.02539,-1.7793 0.56558,-1.0055 0.68946,-2.0704 0.68946,-3.2852 l 0,-12.8301 6.35937,0 0,12.8301 c 0,1.2941 0.0296,2.2754 0.58203,3.3379 l 0.0215,0.043 0.0234,0.043 c 0.60831,1.0426 1.94123,1.6406 3.03125,1.6406 1.16496,0 2.45637,-0.7878 3.01172,-1.791 0.55536,-1.0032 0.67383,-2.0617 0.67383,-3.2735 l 0,-12.8301 6.36133,0 0,14.9532 c 0,2.6435 -0.81544,4.6857 -2.56641,6.5156 -1.7505,1.811 -3.6496,2.6211 -6.1289,2.6211 -2.49593,0 -4.63645,-0.9675 -6.7793,-3.2402 l -1.36719,-1.4493 -1.43945,1.3789 c -2.4431,2.3427 -4.64083,3.3106 -6.73828,3.3106 -2.95846,0 -5.01718,-0.9493 -6.75196,-3.0371 -1.24505,-1.4969 -1.99804,-3.8348 -1.99804,-7.2578 l 0,-13.795 z"
             id="path4401"
             inkscape:connector-curvature="0" />
          <path
             style="color:#000000;font-style:normal;font-variant:normal;font-weight:normal;font-stretch:normal;font-size:medium;line-height:125%;font-family:'Bauhaus 93';-inkscape-font-specification:'Bauhaus 93, ';text-indent:0;text-align:start;text-decoration:none;text-decoration-line:none;text-decoration-style:solid;text-decoration-color:#000000;letter-spacing:0px;word-spacing:0px;text-transform:none;direction:ltr;block-progression:tb;writing-mode:lr-tb;baseline-shift:baseline;text-anchor:start;white-space:normal;clip-rule:nonzero;display:inline;overflow:visible;visibility:visible;opacity:1;isolation:auto;mix-blend-mode:normal;color-interpolation:sRGB;color-interpolation-filters:linearRGB;solid-color:#000000;solid-opacity:1;fill:none;fill-opacity:1;fill-rule:nonzero;stroke:#000000;stroke-width:2.153;stroke-linecap:butt;stroke-linejoin:miter;stroke-miterlimit:4;stroke-dasharray:none;stroke-dashoffset:0;stroke-opacity:1;color-rendering:auto;image-rendering:auto;shape-rendering:auto;text-rendering:auto;enable-background:accumulate"
             d="m 759.97461,-2920.9531 c -3.90973,0 -7.43436,1.4936 -10.13672,4.3008 -2.70426,2.7907 -4.10937,6.396 -4.10937,10.414 l 0,17.3086 14.19921,0 0.0664,0 14.20117,0 0,-1.9765 0,-14.504 c 0,-4.2769 -1.01667,-7.8884 -3.24219,-10.5566 -2.71517,-3.2625 -6.56735,-4.9863 -10.97851,-4.9863 z m 0,3.9531 c 3.45674,0 5.91181,1.1242 7.93945,3.5605 l 0,0 0.002,0 c 1.48591,1.7802 2.32617,4.3648 2.32617,8.0273 l 0,12.5274 -6.36133,0 0,-13.5488 c 0,-1.0625 -0.20325,-2.143 -0.94141,-3.0372 -0.73816,-0.8941 -1.94057,-1.3105 -2.99218,-1.3105 -1.04813,0 -2.25152,0.4267 -2.98047,1.3223 -0.72896,0.8955 -0.92578,1.9668 -0.92578,3.0254 l 0,13.5488 -6.35938,0 0,-13.3555 c 0,-3.1488 0.96276,-5.5696 2.99805,-7.6679 l 0.004,-0 0.002,-0 c 2.04046,-2.1196 4.32356,-3.0879 7.28906,-3.0879 z"
             id="path4403"
             inkscape:connector-curvature="0" />
          <path
             style="color:#000000;font-style:normal;font-variant:normal;font-weight:normal;font-stretch:normal;font-size:medium;line-height:125%;font-family:'Bauhaus 93';-inkscape-font-specification:'Bauhaus 93, ';text-indent:0;text-align:start;text-decoration:none;text-decoration-line:none;text-decoration-style:solid;text-decoration-color:#000000;letter-spacing:0px;word-spacing:0px;text-transform:none;direction:ltr;block-progression:tb;writing-mode:lr-tb;baseline-shift:baseline;text-anchor:start;white-space:normal;clip-rule:nonzero;display:inline;overflow:visible;visibility:visible;opacity:1;isolation:auto;mix-blend-mode:normal;color-interpolation:sRGB;color-interpolation-filters:linearRGB;solid-color:#000000;solid-opacity:1;fill:none;fill-opacity:1;fill-rule:nonzero;stroke:#000000;stroke-width:2.153;stroke-linecap:butt;stroke-linejoin:miter;stroke-miterlimit:4;stroke-dasharray:none;stroke-dashoffset:0;stroke-opacity:1;color-rendering:auto;image-rendering:auto;shape-rendering:auto;text-rendering:auto;enable-background:accumulate"
             d="m 790.39844,-2930.5215 0,41.5918 13.86914,0 0.39648,0 13.8711,0 0,-19.4043 c 0,-3.5702 -0.88078,-6.6607 -2.79102,-8.998 -1.891,-2.3357 -4.69733,-3.5938 -7.81641,-3.5938 -1.10517,0 -2.19824,0.2083 -3.26367,0.5918 l 0,-10.1875 -1.97656,0 -12.28906,0 z m 3.95312,3.9531 6.35938,0 0,13.4004 3.13867,-2.2793 c 1.49291,-1.0843 2.81027,-1.5254 4.07812,-1.5254 2.17133,0 3.55078,0.6505 4.74805,2.1329 l 0.004,0 0.004,0 c 1.21487,1.4864 1.89844,3.5606 1.89844,6.498 l 0,15.4512 -6.36133,0 0,-12.5547 c 0,-1.3042 0.0184,-2.2738 -0.67773,-3.3926 -0.68362,-1.1335 -2.03541,-1.5625 -3.11719,-1.5625 -1.06537,0 -2.30677,0.5758 -2.93945,1.5098 -0.63268,0.934 -0.77539,1.9533 -0.77539,3.0312 l 0,12.9688 -6.35938,0 0,-33.6856 z"
             id="path4405"
             inkscape:connector-curvature="0" />
          <path
             style="color:#000000;font-style:normal;font-variant:normal;font-weight:normal;font-stretch:normal;font-size:medium;line-height:125%;font-family:'Bauhaus 93';-inkscape-font-specification:'Bauhaus 93, ';text-indent:0;text-align:start;text-decoration:none;text-decoration-line:none;text-decoration-style:solid;text-decoration-color:#000000;letter-spacing:0px;word-spacing:0px;text-transform:none;direction:ltr;block-progression:tb;writing-mode:lr-tb;baseline-shift:baseline;text-anchor:start;white-space:normal;clip-rule:nonzero;display:inline;overflow:visible;visibility:visible;opacity:1;isolation:auto;mix-blend-mode:normal;color-interpolation:sRGB;color-interpolation-filters:linearRGB;solid-color:#000000;solid-opacity:1;fill:none;fill-opacity:1;fill-rule:nonzero;stroke:#000000;stroke-width:2.153;stroke-linecap:butt;stroke-linejoin:miter;stroke-miterlimit:4;stroke-dasharray:none;stroke-dashoffset:0;stroke-opacity:1;color-rendering:auto;image-rendering:auto;shape-rendering:auto;text-rendering:auto;enable-background:accumulate"
             d="m 835.61133,-2920.9805 c -4.52916,0 -8.57575,1.6209 -11.72852,4.7325 l -0.002,0 -0.002,0 c -3.13316,3.1125 -4.77539,7.1223 -4.77539,11.6054 0,4.4965 1.62993,8.5014 4.75195,11.5821 3.12053,3.0792 7.15061,4.6777 11.67383,4.6777 3.76924,0 7.30115,-1.2562 10.34765,-3.6484 l 1.59961,-1.2559 -6.42773,-7.7246 10.38867,0 0.15234,-1.8125 c 0.0756,-0.9073 0.11719,-1.5696 0.11719,-2.0938 0,-4.4173 -1.59862,-8.3603 -4.65625,-11.4023 l -0.006,-0 c -3.0443,-3.0625 -6.99757,-4.6602 -11.43359,-4.6602 z m 0,3.9512 c 3.53975,0 6.27515,1.1223 8.63476,3.4981 l 0.006,0.01 0.004,0 c 2.36552,2.3495 3.47923,5.0664 3.49023,8.5606 l -12.10742,0 c -0.003,-0.057 -0.0352,-0.1481 -0.0352,-0.2012 0,-0.2467 0.10104,-0.4848 0.13281,-0.7266 l 5.99023,0 -0.41992,-2.3261 c -0.23735,-1.3173 -0.78414,-2.5489 -1.76953,-3.4239 -0.98539,-0.875 -2.3097,-1.2636 -3.62305,-1.2636 -1.84916,0 -3.6257,0.9562 -4.73047,2.4589 -1.10197,1.4822 -1.60156,3.3458 -1.60156,5.3633 0,2.0685 0.45655,3.95 1.51563,5.4629 l 0.006,0.01 0.006,0.01 c 1.08205,1.5099 2.85396,2.4805 4.69531,2.4805 0.95411,0 1.83751,-0.3316 2.66211,-0.8106 l 3.16601,3.8067 c -1.905,1.0888 -3.88014,1.791 -6.10351,1.791 -3.63882,0 -6.46537,-1.1402 -8.89649,-3.5391 -2.42964,-2.3975 -3.57617,-5.1755 -3.57617,-8.7676 0,-3.566 1.15195,-6.3571 3.60352,-8.7949 2.47242,-2.4401 5.31829,-3.5957 8.95117,-3.5957 z"
             id="path4407"
             inkscape:connector-curvature="0" />
          <path
             style="color:#000000;font-style:normal;font-variant:normal;font-weight:normal;font-stretch:normal;font-size:medium;line-height:125%;font-family:'Bauhaus 93';-inkscape-font-specification:'Bauhaus 93, ';text-indent:0;text-align:start;text-decoration:none;text-decoration-line:none;text-decoration-style:solid;text-decoration-color:#000000;letter-spacing:0px;word-spacing:0px;text-transform:none;direction:ltr;block-progression:tb;writing-mode:lr-tb;baseline-shift:baseline;text-anchor:start;white-space:normal;clip-rule:nonzero;display:inline;overflow:visible;visibility:visible;opacity:1;isolation:auto;mix-blend-mode:normal;color-interpolation:sRGB;color-interpolation-filters:linearRGB;solid-color:#000000;solid-opacity:1;fill:none;fill-opacity:1;fill-rule:nonzero;stroke:#000000;stroke-width:2.153;stroke-linecap:butt;stroke-linejoin:miter;stroke-miterlimit:4;stroke-dasharray:none;stroke-dashoffset:0;stroke-opacity:1;color-rendering:auto;image-rendering:auto;shape-rendering:auto;text-rendering:auto;enable-background:accumulate"
             d="m 865.86133,-2920.9531 c -4.05287,0 -7.60561,1.4236 -10.14453,4.1992 -2.54149,2.7599 -3.77149,6.4904 -3.77149,10.8184 l 0,17.0058 14.26563,0 0,-15.0195 c 0,-1.2185 0.24238,-1.9328 0.38086,-2.1446 0.13847,-0.2117 0.0214,-0.1796 0.45508,-0.1796 0.13532,0 0.47087,0.061 0.98632,0.3515 l 2.94727,1.6621 0,-16.1035 -1.66992,-0.2637 c -1.34955,-0.212 -2.47567,-0.3261 -3.44922,-0.3261 z m 0,3.9531 c 0.26485,0 0.79628,0.084 1.16601,0.1152 l 0,6.6621 c -1.43552,0.01 -2.94871,0.7484 -3.74414,1.9649 -0.79905,1.2221 -1.02539,2.6593 -1.02539,4.3086 l 0,11.0664 -6.35937,0 0,-13.0527 c 0,-3.6109 0.93683,-6.199 2.73047,-8.1446 l 0.002,-0 0.002,-0 c 1.79947,-1.9672 4.0385,-2.9141 7.22852,-2.9141 z"
             id="path4409"
             inkscape:connector-curvature="0" />
          <path
             style="color:#000000;font-style:normal;font-variant:normal;font-weight:normal;font-stretch:normal;font-size:medium;line-height:125%;font-family:'Bauhaus 93';-inkscape-font-specification:'Bauhaus 93, ';text-indent:0;text-align:start;text-decoration:none;text-decoration-line:none;text-decoration-style:solid;text-decoration-color:#000000;letter-spacing:0px;word-spacing:0px;text-transform:none;direction:ltr;block-progression:tb;writing-mode:lr-tb;baseline-shift:baseline;text-anchor:start;white-space:normal;clip-rule:nonzero;display:inline;overflow:visible;visibility:visible;opacity:1;isolation:auto;mix-blend-mode:normal;color-interpolation:sRGB;color-interpolation-filters:linearRGB;solid-color:#000000;solid-opacity:1;fill:none;fill-opacity:1;fill-rule:nonzero;stroke:#000000;stroke-width:2.153;stroke-linecap:butt;stroke-linejoin:miter;stroke-miterlimit:4;stroke-dasharray:none;stroke-dashoffset:0;stroke-opacity:1;color-rendering:auto;image-rendering:auto;shape-rendering:auto;text-rendering:auto;enable-background:accumulate"
             d="m 885.02539,-2920.9805 c -4.52915,0 -8.57575,1.6209 -11.72851,4.7325 l -0.002,0 -0.004,0 c -3.13316,3.1125 -4.77344,7.1223 -4.77344,11.6054 0,4.4965 1.62994,8.5014 4.75195,11.5821 3.12054,3.0792 7.15061,4.6777 11.67383,4.6777 3.76924,0 7.30115,-1.2562 10.34766,-3.6484 l 1.59765,-1.2559 -6.42773,-7.7246 10.39062,0 0.15039,-1.8125 c 0.0756,-0.9073 0.11719,-1.5696 0.11719,-2.0938 0,-4.4173 -1.59667,-8.3603 -4.6543,-11.4023 l -0.006,-0 c -3.04429,-3.0625 -6.99757,-4.6602 -11.43359,-4.6602 z m 0,3.9512 c 3.53975,0 6.27515,1.1223 8.63477,3.4981 l 0.004,0.01 0.006,0 c 2.36552,2.3495 3.47728,5.0664 3.48828,8.5606 l -12.10742,0 c -0.003,-0.057 -0.0352,-0.1481 -0.0352,-0.2012 0,-0.2468 0.10298,-0.4847 0.13477,-0.7266 l 5.99023,0 -0.41992,-2.3261 c -0.23735,-1.3173 -0.78414,-2.5489 -1.76953,-3.4239 -0.98539,-0.875 -2.3097,-1.2636 -3.62305,-1.2636 -1.85058,0 -3.6298,0.9562 -4.73437,2.4609 -5.5e-4,7e-4 -0.001,0 -0.002,0 -1.0998,1.4816 -1.59571,3.3438 -1.59571,5.3594 0,2.0685 0.4546,3.95 1.51368,5.4629 l 0.008,0.01 0.006,0.01 c 1.08205,1.5099 2.85396,2.4805 4.69531,2.4805 0.95455,0 1.83721,-0.3312 2.66211,-0.8106 l 3.16602,3.8067 c -1.90501,1.0888 -3.88014,1.791 -6.10352,1.791 -3.63882,0 -6.46732,-1.1402 -8.89844,-3.5391 -2.42964,-2.3975 -3.57422,-5.1755 -3.57422,-8.7676 0,-3.567 1.15248,-6.3585 3.60547,-8.7968 2.47166,-2.438 5.31796,-3.5938 8.94922,-3.5938 z"
             id="path4411"
             inkscape:connector-curvature="0" />
          <path
             style="color:#000000;font-style:normal;font-variant:normal;font-weight:normal;font-stretch:normal;font-size:medium;line-height:125%;font-family:'Bauhaus 93';-inkscape-font-specification:'Bauhaus 93, ';text-indent:0;text-align:start;text-decoration:none;text-decoration-line:none;text-decoration-style:solid;text-decoration-color:#000000;letter-spacing:0px;word-spacing:0px;text-transform:none;direction:ltr;block-progression:tb;writing-mode:lr-tb;baseline-shift:baseline;text-anchor:start;white-space:normal;clip-rule:nonzero;display:inline;overflow:visible;visibility:visible;opacity:1;isolation:auto;mix-blend-mode:normal;color-interpolation:sRGB;color-interpolation-filters:linearRGB;solid-color:#000000;solid-opacity:1;fill:none;fill-opacity:1;fill-rule:nonzero;stroke:#000000;stroke-width:2.153;stroke-linecap:butt;stroke-linejoin:miter;stroke-miterlimit:4;stroke-dasharray:none;stroke-dashoffset:0;stroke-opacity:1;color-rendering:auto;image-rendering:auto;shape-rendering:auto;text-rendering:auto;enable-background:accumulate"
             d="m 910.97266,-2905.2363 c -2.26973,0 -4.40956,0.8989 -6.00586,2.5156 -1.60278,1.6055 -2.47852,3.7603 -2.47852,6.0508 0,2.3156 0.82005,4.4818 2.38867,6.0742 l 0.01,0.012 0.0117,0.01 c 1.5924,1.5686 3.7586,2.3887 6.07422,2.3887 2.27243,0 4.41626,-0.8592 6.03711,-2.4336 l 0.006,-0.01 0.004,-0 c 1.61997,-1.5969 2.51953,-3.7415 2.51953,-6.0137 0,-2.2764 -0.90971,-4.4246 -2.5332,-6.0508 -1.61001,-1.6302 -3.75676,-2.5429 -6.0332,-2.5429 z m 0,3.9531 c 1.32422,0 2.26157,0.3924 3.22461,1.3691 l 0.006,0 0.004,0.01 c 0.98367,0.9837 1.37891,1.9375 1.37891,3.2617 0,1.3283 -0.38642,2.2533 -1.33594,3.1914 -0.95093,0.9216 -1.91264,1.3125 -3.27734,1.3125 -1.46453,0 -2.41938,-0.3944 -3.28711,-1.2441 -0.84974,-0.8677 -1.24414,-1.8226 -1.24414,-3.2871 0,-1.3837 0.39338,-2.3309 1.32421,-3.2617 l 0.004,-0.01 0.006,-0 c 0.94,-0.9536 1.86633,-1.3418 3.19727,-1.3418 z"
             id="path4413"
             inkscape:connector-curvature="0" />
        </g>
      </g>
    </g>
  </g>
</svg>
