<?xml version="1.0" encoding="UTF-8" standalone="no"?>
<!-- Created with Inkscape (http://www.inkscape.org/) -->

<svg
   xmlns:dc="http://purl.org/dc/elements/1.1/"
   xmlns:cc="http://creativecommons.org/ns#"
   xmlns:rdf="http://www.w3.org/1999/02/22-rdf-syntax-ns#"
   xmlns:svg="http://www.w3.org/2000/svg"
   xmlns="http://www.w3.org/2000/svg"
   xmlns:sodipodi="http://sodipodi.sourceforge.net/DTD/sodipodi-0.dtd"
   xmlns:inkscape="http://www.inkscape.org/namespaces/inkscape"
   width="297mm"
   height="210mm"
   viewBox="0 0 1052.3622 744.09448"
   id="svg4241"
   version="1.1"
   inkscape:version="0.91 r13725"
   sodipodi:docname="hand.svg">
  <defs
     id="defs4243" />
  <sodipodi:namedview
     id="base"
     pagecolor="#ffffff"
     bordercolor="#666666"
     borderopacity="1.0"
     inkscape:pageopacity="0.0"
     inkscape:pageshadow="2"
     inkscape:zoom="0.6486014"
     inkscape:cx="522.85714"
     inkscape:cy="368.57143"
     inkscape:document-units="px"
     inkscape:current-layer="layer1"
     showgrid="false"
     inkscape:window-width="1366"
     inkscape:window-height="705"
     inkscape:window-x="-8"
     inkscape:window-y="-8"
     inkscape:window-maximized="1" />
  <metadata
     id="metadata4246">
    <rdf:RDF>
      <cc:Work
         rdf:about="">
        <dc:format>image/svg+xml</dc:format>
        <dc:type
           rdf:resource="http://purl.org/dc/dcmitype/StillImage" />
        <dc:title></dc:title>
      </cc:Work>
    </rdf:RDF>
  </metadata>
  <g
     inkscape:label="Layer 1"
     inkscape:groupmode="layer"
     id="layer1"
     transform="translate(0,-308.26772)">
    <g
       style="font-style:normal;font-weight:normal;font-size:40px;line-height:125%;font-family:sans-serif;letter-spacing:0px;word-spacing:0px;fill:none;fill-opacity:1;stroke:#000000;stroke-width:2.70000005;stroke-linecap:butt;stroke-linejoin:miter;stroke-miterlimit:4;stroke-dasharray:none;stroke-opacity:1"
       id="text4789">
      <path
         d="m 117.29665,375.61819 q 0,0.58594 -0.13672,0.89844 -0.11719,0.29297 -0.33203,0.41016 -0.19532,0.11719 -0.46875,0.13672 -0.25391,0 -0.50782,0 -0.66406,0 -1.21093,0 -0.52735,-0.0195 -1.07422,-0.0391 -0.52735,-0.0195 -1.13282,-0.0195 -0.58593,-0.0195 -1.36718,-0.0195 -0.82032,0 -1.95313,0.15625 -1.13281,0.13672 -2.24609,0.35156 -1.09375,0.21485 -1.99219,0.46875 -0.89844,0.23438 -1.23047,0.42969 -0.15625,0.0977 -0.29297,0.29297 -0.13672,0.17578 -0.23437,0.41016 -0.0977,0.21484 -0.17578,0.44922 -0.0586,0.23437 -0.0586,0.41015 -0.19531,2.07031 -0.44922,4.10156 -0.23437,2.03125 -0.44921,4.04297 -0.19532,1.99219 -0.35157,3.96485 -0.13672,1.95312 -0.13672,3.88672 0,0.33203 0.0781,0.99609 0.0977,0.64453 0.19531,1.32812 0.11719,0.66407 0.19531,1.19141 0.0977,0.52734 0.0977,0.60547 0,0.39062 -0.11719,0.80078 -0.11718,0.39063 -0.33203,0.72266 -0.19531,0.3125 -0.50781,0.50781 -0.29297,0.21484 -0.64453,0.21484 -0.23438,0 -0.507814,-0.13672 -0.273437,-0.13671 -0.546875,-0.37109 -0.253906,-0.23437 -0.46875,-0.54687 -0.214844,-0.33204 -0.332031,-0.70313 -0.15625,-0.48828 -0.253906,-1.11328 -0.09766,-0.64453 -0.15625,-1.32813 -0.05859,-0.68359 -0.07813,-1.34765 -0.01953,-0.6836 -0.01953,-1.23047 0,-0.56641 0,-0.95703 0.01953,-0.39063 0.01953,-0.50781 0,-0.58594 0.117187,-1.85547 0.117188,-1.26953 0.292969,-2.83203 0.175781,-1.58204 0.371094,-3.24219 0.214843,-1.67969 0.390625,-3.06641 0.175781,-1.38672 0.292968,-2.28515 0.117188,-0.89844 0.117188,-0.91797 0,-0.3125 -0.136719,-0.44922 -0.136719,-0.13672 -0.3125,-0.17578 -0.175781,-0.0391 -0.332031,-0.0195 -0.136719,0.0195 -0.15625,0.0195 -0.742188,0 -1.914063,0.13672 -1.171875,0.13671 -2.5,0.3125 -1.328125,0.15625 -2.714843,0.29296 -1.367188,0.13672 -2.539063,0.13672 -0.273437,0 -0.546875,0 -0.273437,0 -0.566406,-0.0586 -0.273438,-0.0586 -0.566406,-0.21484 -0.273438,-0.15625 -0.566407,-0.44922 -0.01953,-0.19532 -0.03906,-0.50782 0,-0.3125 0.05859,-0.625 0.07813,-0.33203 0.273437,-0.58593 0.214844,-0.27344 0.625,-0.3711 0.878906,-0.19531 1.992188,-0.3125 1.132812,-0.11718 2.285156,-0.19531 1.171875,-0.0781 2.265625,-0.15625 1.113281,-0.0781 1.972656,-0.19531 0.605469,-0.0781 1.503906,-0.19531 0.898438,-0.11719 1.835938,-0.25391 0.957035,-0.13672 1.835935,-0.27344 0.89844,-0.13672 1.46485,-0.2539 1.17187,-0.23438 2.48046,-0.54688 1.32813,-0.3125 2.67579,-0.58594 1.34765,-0.29297 2.67578,-0.46875 1.32812,-0.19531 2.53906,-0.19531 0.13672,0 0.46875,0.0195 0.35156,0 0.78125,0.0391 0.42969,0.0391 0.91797,0.11719 0.48828,0.0781 0.91797,0.21485 0.21484,0.0586 0.37109,0.2539 0.17578,0.19531 0.29297,0.42969 0.11719,0.23437 0.17578,0.46875 0.0781,0.23437 0.0781,0.39062 z"
         style="font-style:normal;font-variant:normal;font-weight:normal;font-stretch:normal;font-family:'Segoe Script';-inkscape-font-specification:'Segoe Script';fill:none;stroke:#000000;stroke-width:2.70000005;stroke-miterlimit:4;stroke-dasharray:none;stroke-opacity:1"
         id="path4796" />
      <path
         d="m 152.43336,388.89944 q 0,0.41016 -0.58593,1.28907 -0.21485,0.35156 -0.54688,0.78125 -0.33203,0.42968 -0.70312,0.8789 -0.35157,0.42969 -0.70313,0.82032 -0.35156,0.39062 -0.625,0.66406 -1.13281,1.15234 -2.40234,2.20703 -1.26953,1.05469 -2.63672,1.89453 -1.34766,0.82031 -2.8125,1.32813 -1.44531,0.50781 -2.94922,0.52734 -1.15234,0 -2.05078,-0.42969 -0.87891,-0.42969 -1.38672,-1.38672 -0.50781,-0.95703 -0.76172,-2.14843 -0.2539,-1.19141 -0.41015,-2.5586 -0.0195,-0.21484 -0.0586,-0.64453 -0.0391,-0.42969 -0.0976,-0.9375 -0.0391,-0.52734 -0.11719,-1.07422 -0.0781,-0.54687 -0.17578,-0.99609 -0.0977,-0.44922 -0.23438,-0.72266 -0.11719,-0.29297 -0.27344,-0.29297 -0.60546,0 -1.66015,0.82032 -1.05469,0.80078 -2.30469,2.1289 -1.25,1.3086 -2.55859,2.96875 -1.3086,1.66016 -2.44141,3.37891 -0.99609,1.48437 -1.81641,2.98828 -0.80078,1.48437 -1.40625,2.59766 -0.33203,0.50781 -0.70312,0.70312 -0.37109,0.21484 -0.50781,0.21484 -0.3125,0 -0.64453,-0.15625 -0.3125,-0.13671 -0.58594,-0.37109 -0.25391,-0.23437 -0.42969,-0.54687 -0.15625,-0.29297 -0.15625,-0.58594 0,-0.25391 0.0781,-0.82031 0.0977,-0.58594 0.21484,-1.3086 0.11719,-0.72265 0.23437,-1.48437 0.11719,-0.78125 0.19532,-1.44532 0.13672,-1.28906 0.3125,-2.83203 0.17578,-1.54297 0.33203,-3.10547 0.15625,-1.58203 0.29297,-3.08593 0.13672,-1.50391 0.21484,-2.71485 0.0195,-0.39062 0.0586,-1.03515 0.0391,-0.64453 0.0781,-1.40625 0.0391,-0.78125 0.0781,-1.64063 0.0391,-0.85937 0.0781,-1.66015 0.0391,-0.82032 0.0586,-1.52344 0.0391,-0.72266 0.0586,-1.21094 0.0195,-0.54687 0.0586,-1.01562 0.0586,-0.46875 0.13672,-0.91797 0.0977,-0.46875 0.25391,-0.91797 0.17578,-0.46875 0.42968,-1.01563 0.0781,-0.17578 0.25391,-0.39062 0.17578,-0.21485 0.39062,-0.39063 0.23438,-0.17578 0.48829,-0.29297 0.27343,-0.13671 0.54687,-0.13671 0.56641,0 1.01563,0.44921 0.46875,0.44922 0.46875,1.25 0,0.25391 -0.0977,0.6836 -0.0781,0.42969 -0.19531,0.89844 -0.11719,0.44921 -0.23438,0.8789 -0.0977,0.41016 -0.13672,0.625 -0.15625,0.80078 -0.27343,1.83594 -0.11719,1.03516 -0.23438,2.10937 -0.0977,1.07422 -0.17578,2.12891 -0.0781,1.03516 -0.13672,1.85547 -0.0586,0.9375 -0.15625,1.75781 -0.0781,0.82031 -0.17578,1.64063 -0.0781,0.80078 -0.15625,1.64062 -0.0781,0.82031 -0.15625,1.77735 -0.13672,1.44531 -0.3125,2.55859 -0.17578,1.09375 -0.17578,1.875 0,0.11719 0.11719,0.27344 0.13671,0.15625 0.23437,0.15625 l 0.0781,0 q 0.17578,-0.21485 0.44921,-0.64453 0.27344,-0.42969 0.625,-0.9375 0.35157,-0.50782 0.72266,-1.05469 0.39063,-0.56641 0.76172,-1.03516 0.37109,-0.46875 0.80078,-1.01562 0.44922,-0.56641 0.91797,-1.13282 0.48828,-0.5664 0.97656,-1.13281 0.50781,-0.5664 0.97656,-1.05469 0.60547,-0.60546 1.34766,-1.26953 0.74219,-0.66406 1.54297,-1.21093 0.82031,-0.54688 1.64062,-0.89844 0.82032,-0.35156 1.5625,-0.35156 0.13672,0 0.35157,0.0781 0.23437,0.0781 0.44922,0.23438 0.23437,0.13671 0.42968,0.35156 0.19532,0.19531 0.29297,0.46875 0.39063,1.05469 0.56641,2.10937 0.17578,1.05469 0.3125,2.22657 0.11719,0.99609 0.2539,2.05078 0.13672,1.05468 0.35157,1.91406 0.21484,0.85937 0.54687,1.40625 0.35156,0.54687 0.87891,0.54687 2.40234,0 4.60937,-1.07421 1.17188,-0.56641 2.01172,-1.09375 0.85938,-0.52735 1.58203,-1.09375 0.74219,-0.56641 1.46485,-1.25 0.72265,-0.6836 1.67968,-1.58204 1.89454,-1.73828 2.20704,-1.73828 0.29296,0 0.29296,0.80078 z"
         style="font-style:normal;font-variant:normal;font-weight:normal;font-stretch:normal;font-family:'Segoe Script';-inkscape-font-specification:'Segoe Script';fill:none;stroke:#000000;stroke-width:2.70000005;stroke-miterlimit:4;stroke-dasharray:none;stroke-opacity:1"
         id="path4798" />
      <path
         d="m 157.98024,373.13773 q 0,1.26953 -0.66406,2.16796 -0.64453,0.89844 -1.89453,0.89844 -0.78125,0 -1.73829,-0.23437 -0.9375,-0.23438 -0.9375,-0.76172 0,-0.95703 0.58594,-1.81641 0.60547,-0.8789 1.44531,-1.42578 0.66407,-0.39062 0.87891,-0.39062 1.11328,0 1.71875,0.3125 0.60547,0.29296 0.60547,1.25 z m 12.79297,15.8789 q 0.0195,0.41016 -0.3711,1.11328 -0.37109,0.70313 -1.03515,1.60157 -0.64453,0.8789 -1.52344,1.89453 -0.85937,1.01562 -1.81641,2.03125 -1.09375,1.17187 -2.32421,2.26562 -1.21094,1.07422 -2.59766,2.08985 -2.73438,2.03125 -4.88281,2.03125 -2.36328,0 -3.67188,-1.58204 -1.30859,-1.60156 -1.77734,-3.86718 -0.46875,-2.2461 -0.46875,-4.62891 0,-0.99609 0.23437,-3.10547 0.11719,-1.05469 0.23438,-1.8164 0.11719,-0.76172 0.2539,-1.23047 0.27344,-0.91797 1.15235,-1.60157 0.89844,-0.72265 1.875,-0.72265 0.52734,0 0.52734,0.99609 0,0.66406 -0.13672,1.50391 -0.11718,0.83984 -0.2539,1.66015 -0.25391,1.54297 -0.3711,2.77344 -0.11718,1.21094 -0.11718,2.10938 0,1.97265 0.54687,3.98437 0.54688,2.05078 1.97266,2.05078 1.44531,0 3.35937,-1.05468 0.95703,-0.54688 1.91406,-1.21094 0.95704,-0.66406 1.91407,-1.48438 0.97656,-0.82031 1.875,-1.64062 0.89843,-0.83985 1.75781,-1.71875 0.85937,-0.87891 1.54297,-1.64063 0.68359,-0.76172 1.1914,-1.40625 0.0195,-0.0391 0.0586,-0.11718 0.0586,-0.0977 0.11719,-0.17579 0.0586,-0.0977 0.11718,-0.15625 0.0586,-0.0586 0.11719,-0.0391 0.27344,0 0.41016,0.42969 0.17578,0.41016 0.17578,0.66406 z"
         style="font-style:normal;font-variant:normal;font-weight:normal;font-stretch:normal;font-family:'Segoe Script';-inkscape-font-specification:'Segoe Script';fill:none;stroke:#000000;stroke-width:2.70000005;stroke-miterlimit:4;stroke-dasharray:none;stroke-opacity:1"
         id="path4800" />
      <path
         d="m 188.46852,387.61038 q 0,0.3125 -0.17578,0.70313 -0.17578,0.37109 -0.46875,0.78125 -0.29297,0.41015 -0.66406,0.83984 -0.3711,0.41016 -0.74219,0.82031 -0.29297,0.33203 -0.625,0.6836 -0.33203,0.33203 -0.76172,0.76172 -0.41016,0.41015 -0.97656,0.97656 -0.56641,0.54687 -1.32813,1.28906 -0.68359,0.66406 -1.52343,1.40625 -0.82032,0.72266 -1.67969,1.42578 -0.83985,0.70313 -1.64063,1.34766 -0.80078,0.64453 -1.38672,1.13281 -1.40625,1.15234 -2.67578,2.16797 -1.26953,1.03516 -2.5,1.85547 -2.4414,1.64062 -3.86718,1.64062 -0.48829,0 -1.13282,-0.2539 -0.66406,-0.25391 -0.66406,-0.70313 0,-1.26953 0.95703,-1.99219 0.9375,-0.68359 2.92969,-1.48437 1.95312,-0.78125 2.92969,-1.52344 0.97656,-0.74219 0.97656,-2.03125 0,-0.64453 -1.34766,-2.61719 -0.66406,-0.99609 -1.1914,-1.8164 -0.50782,-0.83985 -0.87891,-1.50391 -0.74219,-1.36719 -0.74219,-2.87109 0,-1.3086 0.48828,-2.75391 0.23438,-0.82031 0.74219,-1.64062 0.52735,-0.83985 1.13281,-1.48438 0.60547,-0.66406 1.23047,-1.05469 0.625,-0.39062 1.09375,-0.37109 1.71875,0 1.71875,2.03125 0,0.78125 -0.5664,1.52344 -0.27344,0.35156 -0.66407,0.74219 -0.39062,0.37109 -0.89843,0.80078 -0.48828,0.41015 -0.83985,0.72265 -0.33203,0.3125 -0.54687,0.52735 0,1.01562 0.625,2.38281 0.33203,0.66406 0.76172,1.44531 0.42968,0.78125 0.99609,1.67969 0.56641,0.89844 0.95703,1.62109 0.39063,0.70313 0.58594,1.03516 0.0195,0.0781 0.21484,0.0781 0.27344,0 0.9375,-0.39062 0.6836,-0.41016 1.60157,-1.07422 0.9375,-0.68359 2.03125,-1.5625 1.09375,-0.89844 2.1875,-1.89453 1.13281,-1.01563 1.875,-1.77734 0.74218,-0.76172 1.40625,-1.42579 0.66406,-0.66406 0.97656,-1.01562 0.33203,-0.37109 0.37109,-0.37109 0.15625,0 0.29297,0.11718 0.13672,0.11719 0.23438,0.3125 0.11718,0.17578 0.17578,0.39063 0.0586,0.19531 0.0586,0.37109 z"
         style="font-style:normal;font-variant:normal;font-weight:normal;font-stretch:normal;font-family:'Segoe Script';-inkscape-font-specification:'Segoe Script';fill:none;stroke:#000000;stroke-width:2.70000005;stroke-miterlimit:4;stroke-dasharray:none;stroke-opacity:1"
         id="path4802" />
      <path
         d="m 209.38649,373.13773 q 0,1.26953 -0.66406,2.16796 -0.64453,0.89844 -1.89453,0.89844 -0.78125,0 -1.73829,-0.23437 -0.9375,-0.23438 -0.9375,-0.76172 0,-0.95703 0.58594,-1.81641 0.60547,-0.8789 1.44531,-1.42578 0.66407,-0.39062 0.87891,-0.39062 1.11328,0 1.71875,0.3125 0.60547,0.29296 0.60547,1.25 z m 12.79297,15.8789 q 0.0195,0.41016 -0.3711,1.11328 -0.37109,0.70313 -1.03515,1.60157 -0.64453,0.8789 -1.52344,1.89453 -0.85937,1.01562 -1.81641,2.03125 -1.09375,1.17187 -2.32421,2.26562 -1.21094,1.07422 -2.59766,2.08985 -2.73438,2.03125 -4.88281,2.03125 -2.36328,0 -3.67188,-1.58204 -1.30859,-1.60156 -1.77734,-3.86718 -0.46875,-2.2461 -0.46875,-4.62891 0,-0.99609 0.23437,-3.10547 0.11719,-1.05469 0.23438,-1.8164 0.11719,-0.76172 0.2539,-1.23047 0.27344,-0.91797 1.15235,-1.60157 0.89844,-0.72265 1.875,-0.72265 0.52734,0 0.52734,0.99609 0,0.66406 -0.13672,1.50391 -0.11718,0.83984 -0.2539,1.66015 -0.25391,1.54297 -0.3711,2.77344 -0.11718,1.21094 -0.11718,2.10938 0,1.97265 0.54687,3.98437 0.54688,2.05078 1.97266,2.05078 1.44531,0 3.35937,-1.05468 0.95703,-0.54688 1.91406,-1.21094 0.95704,-0.66406 1.91407,-1.48438 0.97656,-0.82031 1.875,-1.64062 0.89843,-0.83985 1.75781,-1.71875 0.85937,-0.87891 1.54297,-1.64063 0.68359,-0.76172 1.1914,-1.40625 0.0195,-0.0391 0.0586,-0.11718 0.0586,-0.0977 0.11719,-0.17579 0.0586,-0.0977 0.11718,-0.15625 0.0586,-0.0586 0.11719,-0.0391 0.27344,0 0.41016,0.42969 0.17578,0.41016 0.17578,0.66406 z"
         style="font-style:normal;font-variant:normal;font-weight:normal;font-stretch:normal;font-family:'Segoe Script';-inkscape-font-specification:'Segoe Script';fill:none;stroke:#000000;stroke-width:2.70000005;stroke-miterlimit:4;stroke-dasharray:none;stroke-opacity:1"
         id="path4804" />
      <path
         d="m 239.87477,387.61038 q 0,0.3125 -0.17578,0.70313 -0.17578,0.37109 -0.46875,0.78125 -0.29297,0.41015 -0.66406,0.83984 -0.3711,0.41016 -0.74219,0.82031 -0.29297,0.33203 -0.625,0.6836 -0.33203,0.33203 -0.76172,0.76172 -0.41016,0.41015 -0.97656,0.97656 -0.56641,0.54687 -1.32813,1.28906 -0.68359,0.66406 -1.52343,1.40625 -0.82032,0.72266 -1.67969,1.42578 -0.83985,0.70313 -1.64063,1.34766 -0.80078,0.64453 -1.38672,1.13281 -1.40625,1.15234 -2.67578,2.16797 -1.26953,1.03516 -2.5,1.85547 -2.4414,1.64062 -3.86718,1.64062 -0.48829,0 -1.13282,-0.2539 -0.66406,-0.25391 -0.66406,-0.70313 0,-1.26953 0.95703,-1.99219 0.9375,-0.68359 2.92969,-1.48437 1.95312,-0.78125 2.92969,-1.52344 0.97656,-0.74219 0.97656,-2.03125 0,-0.64453 -1.34766,-2.61719 -0.66406,-0.99609 -1.1914,-1.8164 -0.50782,-0.83985 -0.87891,-1.50391 -0.74219,-1.36719 -0.74219,-2.87109 0,-1.3086 0.48828,-2.75391 0.23438,-0.82031 0.74219,-1.64062 0.52735,-0.83985 1.13281,-1.48438 0.60547,-0.66406 1.23047,-1.05469 0.625,-0.39062 1.09375,-0.37109 1.71875,0 1.71875,2.03125 0,0.78125 -0.5664,1.52344 -0.27344,0.35156 -0.66407,0.74219 -0.39062,0.37109 -0.89843,0.80078 -0.48828,0.41015 -0.83985,0.72265 -0.33203,0.3125 -0.54687,0.52735 0,1.01562 0.625,2.38281 0.33203,0.66406 0.76172,1.44531 0.42968,0.78125 0.99609,1.67969 0.56641,0.89844 0.95703,1.62109 0.39063,0.70313 0.58594,1.03516 0.0195,0.0781 0.21484,0.0781 0.27344,0 0.9375,-0.39062 0.6836,-0.41016 1.60157,-1.07422 0.9375,-0.68359 2.03125,-1.5625 1.09375,-0.89844 2.1875,-1.89453 1.13281,-1.01563 1.875,-1.77734 0.74218,-0.76172 1.40625,-1.42579 0.66406,-0.66406 0.97656,-1.01562 0.33203,-0.37109 0.37109,-0.37109 0.15625,0 0.29297,0.11718 0.13672,0.11719 0.23438,0.3125 0.11718,0.17578 0.17578,0.39063 0.0586,0.19531 0.0586,0.37109 z"
         style="font-style:normal;font-variant:normal;font-weight:normal;font-stretch:normal;font-family:'Segoe Script';-inkscape-font-specification:'Segoe Script';fill:none;stroke:#000000;stroke-width:2.70000005;stroke-miterlimit:4;stroke-dasharray:none;stroke-opacity:1"
         id="path4806" />
      <path
         d="m 281.30055,388.43069 q 0,0.23438 -0.0586,0.56641 -0.0586,0.3125 -0.17578,0.64453 -0.0977,0.33203 -0.23438,0.64453 -0.11719,0.29297 -0.2539,0.46875 -0.11719,0.15625 -0.35157,0.42969 -0.21484,0.25391 -0.48828,0.56641 -0.27344,0.3125 -0.60547,0.66406 -0.3125,0.33203 -0.66406,0.64453 -1.21094,1.11328 -2.38281,2.16797 -1.15235,1.03516 -2.38281,1.83594 -1.23047,0.80078 -2.57813,1.28906 -1.32812,0.46875 -2.89062,0.44922 -0.72266,0 -1.46485,-0.25391 -0.72265,-0.27344 -1.36719,-0.76172 -0.64453,-0.48828 -1.11328,-1.17187 -0.46875,-0.6836 -0.66406,-1.50391 -0.56641,0.58594 -1.19141,1.23047 -0.625,0.625 -1.30859,1.26953 -0.66406,0.64453 -1.38672,1.25 -0.72265,0.60547 -1.48437,1.11328 -0.42969,0.27344 -1.03516,0.58594 -0.58594,0.3125 -1.25,0.58594 -0.64453,0.2539 -1.30859,0.42969 -0.64453,0.15625 -1.17188,0.15625 -0.80078,0 -1.38672,-0.48829 -0.5664,-0.50781 -0.95703,-1.23046 -0.37109,-0.72266 -0.5664,-1.54297 -0.17579,-0.82032 -0.17579,-1.46485 0,-1.28906 0.3711,-2.63672 0.37109,-1.34765 0.95703,-2.61718 0.60547,-1.28907 1.32812,-2.44141 0.74219,-1.15234 1.44532,-2.05078 0.74218,-0.9375 1.75781,-1.85547 1.01562,-0.9375 2.10937,-1.66016 1.09375,-0.74218 2.14844,-1.1914 1.05469,-0.44922 1.875,-0.44922 0.41016,0 0.85938,0 0.46875,0 0.91797,0.0586 0.44921,0.0391 0.8789,0.15625 0.42969,0.0977 0.78125,0.3125 0.17578,0.11719 0.41016,0.44922 0.23437,0.33203 0.42969,0.74219 0.21484,0.41016 0.35156,0.82031 0.13672,0.41016 0.13672,0.64453 0,0.64453 -0.29297,1.71875 -0.3125,1.34766 -0.58594,2.46094 -0.25391,1.09375 -0.25391,2.26563 0,0.66406 0.21485,1.36718 0.21484,0.6836 0.60547,1.25 0.41015,0.56641 0.97656,0.9375 0.58594,0.35157 1.30859,0.35157 1.19141,0 2.44141,-0.48829 1.25,-0.50781 2.51953,-1.36718 1.28906,-0.87891 2.55859,-2.01172 1.26954,-1.15235 2.5,-2.44141 0.0977,-0.11719 0.33204,-0.39062 0.2539,-0.29297 0.50781,-0.56641 0.27344,-0.29297 0.52734,-0.50781 0.25391,-0.23438 0.3711,-0.23438 0.41015,0 0.41015,0.80078 z m -17.38281,-1.62109 q 0,-0.33203 -0.0391,-0.82031 -0.0391,-0.48828 -0.25391,-0.80078 -0.21484,-0.3125 -0.52734,-0.29297 -0.3125,0 -0.625,0 -0.6836,0 -1.32813,0.21484 -0.625,0.21485 -1.23047,0.60547 -0.60547,0.37109 -1.17187,0.87891 -0.54688,0.48828 -1.07422,1.03515 -0.44922,0.44922 -0.95703,1.11328 -0.48828,0.66407 -0.97656,1.46485 -0.46875,0.78125 -0.91797,1.66015 -0.44922,0.85938 -0.78125,1.71875 -0.33203,0.83985 -0.52735,1.64063 -0.19531,0.78125 -0.19531,1.42578 0,0.19531 0.0391,0.52734 0.0586,0.3125 0.15625,0.625 0.11719,0.29297 0.29297,0.50782 0.19531,0.21484 0.46875,0.21484 0.89844,0 2.2461,-0.56641 1.83593,-0.78125 3.32031,-2.1289 1.5039,-1.36719 2.55859,-3.14453 1.52344,-2.75391 1.52344,-5.87891 z"
         style="font-style:normal;font-variant:normal;font-weight:normal;font-stretch:normal;font-family:'Segoe Script';-inkscape-font-specification:'Segoe Script';fill:none;stroke:#000000;stroke-width:2.70000005;stroke-miterlimit:4;stroke-dasharray:none;stroke-opacity:1"
         id="path4808" />
      <path
         d="m 312.19899,387.76663 q 0,0.3711 -0.13672,0.76172 -0.11719,0.37109 -0.3125,0.76172 -0.17578,0.37109 -0.41016,0.74219 -0.23437,0.35156 -0.44921,0.68359 -0.56641,0.87891 -1.32813,1.79688 -0.76172,0.89843 -1.64062,1.75781 -0.85938,0.85937 -1.77735,1.62109 -0.91797,0.76172 -1.79687,1.34766 -0.70313,0.46875 -1.34766,0.8789 -0.625,0.41016 -1.26953,0.70313 -0.64453,0.29297 -1.34766,0.46875 -0.70312,0.17578 -1.54297,0.17578 -1.62109,0 -2.63671,-0.82031 -0.50782,-0.41016 -0.89844,-1.05469 -0.3711,-0.66406 -0.66406,-1.46484 -0.27344,-0.80078 -0.48829,-1.69922 -0.19531,-0.89844 -0.33203,-1.77735 -0.17578,-1.09375 -0.33203,-1.95312 -0.15625,-0.87891 -0.37109,-1.46484 -0.19531,-0.60547 -0.48828,-0.91797 -0.29297,-0.33203 -0.76172,-0.33203 -0.3711,0 -0.70313,0.0781 -0.33203,0.0781 -0.70312,0.3125 -0.35156,0.23438 -0.78125,0.66406 -0.42969,0.42969 -1.01563,1.13282 -0.5664,0.70312 -1.30859,1.71875 -0.74219,1.01562 -1.73828,2.42187 -0.48828,0.68359 -1.15235,1.50391 -0.66406,0.82031 -1.36718,1.5625 -0.6836,0.74218 -1.34766,1.30859 -0.66406,0.56641 -1.17187,0.72266 -1.71875,-0.3711 -1.71875,-4.27735 0,-1.03515 0.23437,-3.14453 0.11719,-0.95703 0.27344,-1.99219 0.15625,-1.05468 0.39062,-2.08984 0.23438,-1.05469 0.52735,-2.03125 0.3125,-0.99609 0.72265,-1.83594 0.19532,-0.39062 0.41016,-0.60547 0.21484,-0.23437 0.42969,-0.33203 0.23437,-0.11718 0.46875,-0.13672 0.2539,-0.0391 0.50781,-0.0391 0.3125,0 0.54687,0.42969 0.25391,0.42969 0.25391,1.19141 0,0.46875 -0.0781,0.8789 -0.0781,0.41016 -0.21485,0.83985 -0.13672,0.42968 -0.29297,0.9375 -0.15625,0.48828 -0.3125,1.13281 -0.11718,0.52734 -0.27343,1.17187 -0.13672,0.64453 -0.27344,1.3086 -0.11719,0.66406 -0.21485,1.30859 -0.0781,0.625 -0.0781,1.13281 0,0.35157 0.11719,0.72266 0.54687,-0.0586 1.79687,-1.64063 0.64453,-0.80078 1.40625,-1.75781 0.78125,-0.95703 1.67969,-2.10937 0.66406,-0.85938 1.30859,-1.60157 0.66407,-0.74218 1.36719,-1.28906 0.70313,-0.5664 1.48438,-0.8789 0.80078,-0.33204 1.75781,-0.33204 1.01562,0 1.67969,0.44922 0.68359,0.42969 1.09375,1.21094 0.41015,0.76172 0.625,1.83594 0.23437,1.07422 0.37109,2.36328 0.11719,1.09375 0.21484,2.16797 0.11719,1.07422 0.42969,1.93359 0.3125,0.83985 0.89844,1.36719 0.58594,0.52734 1.67969,0.52734 0.83984,0 1.75781,-0.39062 0.91797,-0.39063 1.93359,-1.07422 1.01563,-0.70313 2.08985,-1.64063 1.09375,-0.9375 2.24609,-2.05078 0.44922,-0.42968 0.97656,-1.07422 0.54688,-0.66406 1.05469,-1.26953 0.52734,-0.60547 0.97656,-1.03515 0.44922,-0.42969 0.72266,-0.42969 0.11719,0 0.37109,0.11719 0.27344,0.11718 0.27344,0.39062 z"
         style="font-style:normal;font-variant:normal;font-weight:normal;font-stretch:normal;font-family:'Segoe Script';-inkscape-font-specification:'Segoe Script';fill:none;stroke:#000000;stroke-width:2.70000005;stroke-miterlimit:4;stroke-dasharray:none;stroke-opacity:1"
         id="path4810" />
      <path
         d="m 348.89821,388.25491 q 0,0.29297 -0.42969,1.03516 -1.01562,1.46484 -2.28516,2.92969 -1.25,1.46484 -2.67578,2.79297 -1.40625,1.30859 -2.94922,2.46093 -1.52343,1.13282 -3.08593,1.97266 -1.5625,0.82031 -3.125,1.26953 -1.54297,0.44922 -2.98828,0.42969 -3.125,0 -4.86329,-1.81641 -1.71875,-1.8164 -1.71875,-5.48828 0,-3.06641 0.9375,-5.95703 0.95704,-2.89063 3.24219,-5.56641 0.42969,-0.46875 0.95703,-0.89843 0.54688,-0.42969 1.13282,-0.76172 0.60546,-0.33203 1.23046,-0.52735 0.64454,-0.19531 1.28907,-0.23437 0.15625,0 0.42968,0.0391 0.27344,0.0391 0.58594,0.13672 0.3125,0.0977 0.60547,0.25391 0.29297,0.13671 0.46875,0.35156 0.54688,0.625 0.85938,1.28906 0.33203,0.66406 0.37109,1.46484 0.0391,0.89844 -0.21484,1.77735 -0.23438,0.85937 -0.82032,1.77734 -0.5664,0.89844 -1.5039,1.875 -0.9375,0.95703 -2.26563,2.07031 -0.83984,0.70313 -1.875,1.5625 -1.01562,0.83985 -2.46094,1.77735 0,1.89453 1.13282,2.89062 1.15234,0.97657 3.14453,0.97657 1.11328,0 2.24609,-0.29297 1.13281,-0.29297 2.22656,-0.76172 1.09375,-0.48828 2.10938,-1.09375 1.03516,-0.625 1.93359,-1.26953 1.66016,-1.21094 3.00782,-2.40235 1.34765,-1.21093 2.67578,-2.53906 l 1.05468,-1.05469 q 0.95704,-0.83984 1.38672,-0.83984 0.23438,0 0.23438,0.37109 z m -14.92188,-3.88672 q -0.0195,-0.29296 -0.0977,-0.5664 -0.0586,-0.29297 -0.19532,-0.50781 -0.13671,-0.21485 -0.3125,-0.33204 -0.17578,-0.13671 -0.41015,-0.13671 -1.03516,0.0586 -2.07031,1.26953 -1.03516,1.1914 -1.95313,3.16406 -0.21484,0.42969 -0.39062,0.97656 -0.15625,0.52735 -0.3125,1.09375 -0.13672,0.54688 -0.25391,1.09375 -0.0977,0.54688 -0.17578,0.97656 1.01562,-0.76171 1.875,-1.40625 0.85937,-0.64453 1.60156,-1.32812 0.46875,-0.42969 0.95703,-0.91797 0.48828,-0.50781 0.87891,-1.05469 0.41015,-0.54687 0.64453,-1.13281 0.23437,-0.58594 0.21484,-1.19141 z"
         style="font-style:normal;font-variant:normal;font-weight:normal;font-stretch:normal;font-family:'Segoe Script';-inkscape-font-specification:'Segoe Script';fill:none;stroke:#000000;stroke-width:2.70000005;stroke-miterlimit:4;stroke-dasharray:none;stroke-opacity:1"
         id="path4812" />
      <path
         d="m 376.41774,387.53226 q 0,0.52734 -0.80078,1.95312 -0.39063,0.6836 -0.76172,1.25 -0.35156,0.54688 -0.66406,0.95703 -2.5,3.20313 -4.14063,5.01953 -1.62109,1.79688 -3.63281,3.06641 -1.99219,1.23047 -4.23828,1.23047 -1.58203,0 -3.4375,-1.15234 -1.83594,-1.17188 -4.14063,-3.28125 -0.82031,0.64453 -1.46484,1.34765 -0.64453,0.6836 -1.15234,1.34766 -0.48829,0.64453 -0.83985,1.26953 -0.33203,0.60547 -0.52734,1.09375 -0.19531,0.48828 -0.41016,1.05469 -0.21484,0.58593 -0.44922,1.26953 -0.42968,1.34765 -0.85937,1.93359 -1.28906,-0.0586 -1.99219,-0.68359 -0.68359,-0.625 -0.68359,-1.875 0,-0.52735 0.15625,-1.07422 0.15625,-0.54688 0.42968,-1.09375 0.29297,-0.54688 0.64454,-1.07422 0.37109,-0.54687 0.78125,-1.03516 0.52734,-0.625 1.5625,-1.77734 1.05468,-1.15234 2.57812,-2.53906 -0.35156,-0.3711 -0.80078,-0.89844 -0.42969,-0.52734 -0.85938,-1.09375 -0.42968,-0.58594 -0.80078,-1.13281 -0.37109,-0.56641 -0.60547,-0.97656 -0.85937,-1.54297 -1.21093,-2.5586 -0.35157,-1.03515 -0.35157,-1.875 0,-0.42969 0.13672,-0.82031 0.15625,-0.39063 0.44922,-0.68359 0.3125,-0.3125 0.76172,-0.48829 0.44922,-0.19531 1.05469,-0.19531 0.52734,0 0.82031,0.33203 0.29297,0.33203 0.42969,0.76172 0.0586,0.23438 0.0976,0.56641 0.0586,0.3125 0.0977,0.66406 0.0391,0.33203 0.0781,0.66406 0.0586,0.33203 0.11718,0.56641 0.3711,1.60156 1.01563,2.67578 0.66406,1.07422 1.89453,2.24609 1.64062,-1.54296 2.92969,-3.04687 0.66406,-0.74219 1.1914,-1.64063 0.52735,-0.91796 0.95703,-1.99218 0.23438,-0.50782 0.41016,-0.82032 0.17578,-0.33203 0.35156,-0.52734 0.19532,-0.19531 0.41016,-0.25391 0.21484,-0.0781 0.50781,-0.0781 0.33203,0 0.70313,0.15625 0.37109,0.15625 0.66406,0.42969 0.3125,0.2539 0.50781,0.625 0.21485,0.35156 0.21485,0.78125 0,0.5664 -0.72266,1.64062 -0.58594,0.76172 -1.17188,1.36719 -0.5664,0.60547 -1.23046,1.40625 -0.6836,0.87891 -1.54297,1.83594 -0.83985,0.95703 -1.89453,2.07031 0.52734,0.52734 1.30859,1.13281 0.80078,0.58594 1.67969,1.11328 0.89843,0.50782 1.77734,0.85938 0.89844,0.33203 1.64063,0.33203 1.54296,0 3.0664,-1.07422 1.54297,-1.07422 3.41797,-3.08594 0.83984,-0.89843 1.73828,-1.97265 0.89844,-1.07422 1.875,-2.32422 1.9336,-2.5 2.1875,-2.5 0.33203,0 0.52735,0.17578 0.21484,0.15625 0.21484,0.42969 z"
         style="font-style:normal;font-variant:normal;font-weight:normal;font-stretch:normal;font-family:'Segoe Script';-inkscape-font-specification:'Segoe Script';fill:none;stroke:#000000;stroke-width:2.70000005;stroke-miterlimit:4;stroke-dasharray:none;stroke-opacity:1"
         id="path4814" />
      <path
         d="m 402.0818,388.43069 q 0,0.23438 -0.0586,0.56641 -0.0586,0.3125 -0.17578,0.64453 -0.0977,0.33203 -0.23438,0.64453 -0.11719,0.29297 -0.2539,0.46875 -0.11719,0.15625 -0.35157,0.42969 -0.21484,0.25391 -0.48828,0.56641 -0.27344,0.3125 -0.60547,0.66406 -0.3125,0.33203 -0.66406,0.64453 -1.21094,1.11328 -2.38281,2.16797 -1.15235,1.03516 -2.38281,1.83594 -1.23047,0.80078 -2.57813,1.28906 -1.32812,0.46875 -2.89062,0.44922 -0.72266,0 -1.46485,-0.25391 -0.72265,-0.27344 -1.36719,-0.76172 -0.64453,-0.48828 -1.11328,-1.17187 -0.46875,-0.6836 -0.66406,-1.50391 -0.56641,0.58594 -1.19141,1.23047 -0.625,0.625 -1.30859,1.26953 -0.66406,0.64453 -1.38672,1.25 -0.72265,0.60547 -1.48437,1.11328 -0.42969,0.27344 -1.03516,0.58594 -0.58594,0.3125 -1.25,0.58594 -0.64453,0.2539 -1.30859,0.42969 -0.64453,0.15625 -1.17188,0.15625 -0.80078,0 -1.38672,-0.48829 -0.5664,-0.50781 -0.95703,-1.23046 -0.37109,-0.72266 -0.5664,-1.54297 -0.17579,-0.82032 -0.17579,-1.46485 0,-1.28906 0.3711,-2.63672 0.37109,-1.34765 0.95703,-2.61718 0.60547,-1.28907 1.32812,-2.44141 0.74219,-1.15234 1.44532,-2.05078 0.74218,-0.9375 1.75781,-1.85547 1.01562,-0.9375 2.10937,-1.66016 1.09375,-0.74218 2.14844,-1.1914 1.05469,-0.44922 1.875,-0.44922 0.41016,0 0.85938,0 0.46875,0 0.91797,0.0586 0.44921,0.0391 0.8789,0.15625 0.42969,0.0977 0.78125,0.3125 0.17578,0.11719 0.41016,0.44922 0.23437,0.33203 0.42969,0.74219 0.21484,0.41016 0.35156,0.82031 0.13672,0.41016 0.13672,0.64453 0,0.64453 -0.29297,1.71875 -0.3125,1.34766 -0.58594,2.46094 -0.25391,1.09375 -0.25391,2.26563 0,0.66406 0.21485,1.36718 0.21484,0.6836 0.60547,1.25 0.41015,0.56641 0.97656,0.9375 0.58594,0.35157 1.30859,0.35157 1.19141,0 2.44141,-0.48829 1.25,-0.50781 2.51953,-1.36718 1.28906,-0.87891 2.55859,-2.01172 1.26954,-1.15235 2.5,-2.44141 0.0977,-0.11719 0.33204,-0.39062 0.2539,-0.29297 0.50781,-0.56641 0.27344,-0.29297 0.52734,-0.50781 0.25391,-0.23438 0.3711,-0.23438 0.41015,0 0.41015,0.80078 z m -17.38281,-1.62109 q 0,-0.33203 -0.0391,-0.82031 -0.0391,-0.48828 -0.25391,-0.80078 -0.21484,-0.3125 -0.52734,-0.29297 -0.3125,0 -0.625,0 -0.6836,0 -1.32813,0.21484 -0.625,0.21485 -1.23047,0.60547 -0.60547,0.37109 -1.17187,0.87891 -0.54688,0.48828 -1.07422,1.03515 -0.44922,0.44922 -0.95703,1.11328 -0.48828,0.66407 -0.97656,1.46485 -0.46875,0.78125 -0.91797,1.66015 -0.44922,0.85938 -0.78125,1.71875 -0.33203,0.83985 -0.52735,1.64063 -0.19531,0.78125 -0.19531,1.42578 0,0.19531 0.0391,0.52734 0.0586,0.3125 0.15625,0.625 0.11719,0.29297 0.29297,0.50782 0.19531,0.21484 0.46875,0.21484 0.89844,0 2.2461,-0.56641 1.83593,-0.78125 3.32031,-2.1289 1.5039,-1.36719 2.55859,-3.14453 1.52344,-2.75391 1.52344,-5.87891 z"
         style="font-style:normal;font-variant:normal;font-weight:normal;font-stretch:normal;font-family:'Segoe Script';-inkscape-font-specification:'Segoe Script';fill:none;stroke:#000000;stroke-width:2.70000005;stroke-miterlimit:4;stroke-dasharray:none;stroke-opacity:1"
         id="path4816" />
      <path
         d="m 442.78493,388.11819 q 0,0.17579 -0.0781,0.44922 -0.0586,0.27344 -0.17578,0.58594 -0.0977,0.3125 -0.25391,0.64453 -0.13671,0.3125 -0.3125,0.56641 -0.33203,0.50781 -0.8789,1.17187 -0.52735,0.66407 -1.17188,1.38672 -0.64453,0.70313 -1.38672,1.42578 -0.72265,0.70313 -1.42578,1.28907 -0.5664,0.46875 -1.30859,1.03515 -0.74219,0.56641 -1.5625,1.05469 -0.82031,0.48828 -1.67969,0.82031 -0.85937,0.3125 -1.62109,0.3125 -0.6836,0 -1.25,-0.19531 -0.54688,-0.19531 -1.01563,-0.72266 -0.44922,-0.54687 -0.80078,-1.48437 -0.35156,-0.9375 -0.60547,-2.42188 -0.11718,-0.625 -0.21484,-1.32812 -0.0781,-0.72266 -0.17578,-1.42578 -0.0781,-0.70313 -0.15625,-1.34766 -0.0781,-0.66406 -0.19531,-1.15234 -0.0977,-0.50782 -0.23438,-0.80078 -0.11719,-0.29297 -0.27344,-0.29297 -0.2539,0 -0.72265,0.42968 -0.44922,0.42969 -1.07422,1.25 -0.60547,0.80079 -1.34766,1.9336 -0.72265,1.13281 -1.52344,2.53906 -1.58203,2.8125 -2.67578,4.27734 -1.09375,1.46485 -1.99218,1.46485 -1.34766,0 -1.81641,-1.26953 -0.42969,-1.28907 -0.52734,-4.31641 -0.0586,-2.94922 -0.42969,-4.53125 -0.35156,-1.60156 -0.91797,-1.60156 -0.35156,0 -1.03516,0.64453 -0.66406,0.625 -1.52343,1.73828 -0.83985,1.11328 -1.83594,2.63672 -0.9961,1.50391 -1.99219,3.28125 -0.27344,0.46875 -0.625,1.07422 -0.35156,0.60547 -0.72266,1.23047 -0.35156,0.60547 -0.70312,1.15234 -0.33203,0.54688 -0.58594,0.89844 -0.5664,0.82031 -1.36719,0.82031 -1.48437,0 -1.95312,-1.52344 -0.11719,-0.39062 -0.19531,-0.625 -0.0586,-0.2539 -0.0977,-0.48828 -0.0391,-0.2539 -0.0586,-0.54687 0,-0.29297 0,-0.76172 0,-0.78125 0.0391,-1.42578 0.0586,-0.66407 0.13672,-1.32813 0.0781,-0.66406 0.19531,-1.42578 0.11719,-0.76172 0.23438,-1.77734 0.0976,-0.83985 0.17578,-1.79688 0.0781,-0.95703 0.13672,-1.85547 0.0781,-0.91797 0.13671,-1.67968 0.0781,-0.76172 0.19532,-1.21094 0.0586,-0.23438 0.27343,-0.54688 0.21485,-0.3125 0.48829,-0.58593 0.29296,-0.29297 0.60546,-0.48829 0.3125,-0.21484 0.54688,-0.21484 0.41016,0 0.66406,0.19531 0.27344,0.17578 0.42969,0.48828 0.17578,0.3125 0.23437,0.74219 0.0781,0.41016 0.0781,0.85938 0,0.46875 -0.0977,1.17187 -0.0781,0.70313 -0.21484,1.52344 -0.13672,0.82031 -0.3125,1.69922 -0.15625,0.8789 -0.3125,1.67969 -0.15625,0.80078 -0.29297,1.48437 -0.11719,0.66406 -0.17578,1.09375 -0.17578,1.07422 -0.23438,1.71875 -0.0586,0.625 -0.0586,1.01563 0.25391,-0.25391 0.64453,-0.76172 0.39063,-0.50782 0.85938,-1.19141 0.46875,-0.68359 0.97656,-1.50391 0.52734,-0.82031 1.05469,-1.67968 0.37109,-0.60547 0.82031,-1.36719 0.46875,-0.76172 0.95703,-1.52344 0.50781,-0.78125 0.99609,-1.46484 0.48829,-0.6836 0.89844,-1.15235 0.82031,-0.9375 1.69922,-1.42578 0.87891,-0.48828 1.83594,-0.48828 0.9375,0 1.62109,0.74219 0.70313,0.72266 0.9375,1.89453 0.11719,0.54688 0.17578,1.26953 0.0781,0.70313 0.13672,1.48438 0.0586,0.78125 0.0977,1.5625 0.0586,0.78125 0.11719,1.48437 0.0586,0.6836 0.15625,1.13281 0.11718,0.44922 0.23437,0.72266 0.11719,0.25391 0.21484,0.37109 0.0977,0.0977 0.15625,0.0977 0.3711,0 1.25,-1.54297 0.44922,-0.78125 0.9961,-1.73828 0.54687,-0.95703 1.21094,-2.10937 0.66406,-1.13282 1.42578,-2.1875 0.76172,-1.05469 1.48437,-1.85547 0.74219,-0.82032 1.38672,-1.28907 0.64453,-0.48828 1.09375,-0.48828 0.29297,0 0.60547,0.0586 0.3125,0.0586 0.60547,0.17578 0.29297,0.11719 0.50781,0.29297 0.23438,0.15625 0.35156,0.35156 0.29297,0.46875 0.41016,1.07422 0.13672,0.58594 0.19531,1.36719 0.0586,0.76171 0.0977,1.71875 0.0586,0.9375 0.17578,2.08984 0.27344,2.44141 0.83984,3.65234 0.58594,1.19141 1.66016,1.19141 0.41016,0 1.03516,-0.27344 0.625,-0.27344 1.32812,-0.70312 0.70313,-0.44922 1.42578,-0.9961 0.72266,-0.5664 1.34766,-1.11328 0.625,-0.54687 1.1914,-1.09375 0.58594,-0.5664 1.17188,-1.13281 0.58594,-0.58594 1.19141,-1.21094 0.625,-0.625 1.32812,-1.32812 0.23438,-0.23438 0.42969,-0.23438 0.29297,0 0.29297,0.50781 z"
         style="font-style:normal;font-variant:normal;font-weight:normal;font-stretch:normal;font-family:'Segoe Script';-inkscape-font-specification:'Segoe Script';fill:none;stroke:#000000;stroke-width:2.70000005;stroke-miterlimit:4;stroke-dasharray:none;stroke-opacity:1"
         id="path4818" />
      <path
         d="m 470.69508,386.73148 q 0,0.60546 -0.41015,1.44531 -0.0977,0.21484 -0.35157,0.46875 -0.23437,0.23437 -0.50781,0.46875 -0.2539,0.23437 -0.50781,0.42969 -0.25391,0.17578 -0.37109,0.27343 -0.64454,0.52735 -1.66016,1.19141 -1.01563,0.64453 -2.26563,1.38672 -1.23046,0.72265 -2.61718,1.48437 -1.38672,0.74219 -2.77344,1.46485 -1.38672,0.72265 -2.69531,1.36718 -1.3086,0.64454 -2.38282,1.13282 -0.78125,0.35156 -1.48437,0.80078 -0.70313,0.42969 -1.38672,0.82031 -0.66406,0.37109 -1.34766,0.625 -0.68359,0.25391 -1.44531,0.25391 -0.44922,0 -0.8789,-0.0977 -0.41016,-0.11719 -0.74219,-0.35156 -0.33203,-0.23438 -0.54688,-0.58594 -0.19531,-0.37109 -0.19531,-0.87891 0,-0.27343 0.17578,-0.50781 0.19531,-0.23437 0.48828,-0.41015 0.29297,-0.19532 0.64453,-0.35157 0.35157,-0.15625 0.6836,-0.27343 0.35156,-0.13672 0.82031,-0.27344 0.48828,-0.15625 0.97656,-0.29297 0.48828,-0.15625 0.9375,-0.3125 0.46875,-0.15625 0.80078,-0.3125 0.625,-0.33203 1.17188,-0.83984 0.54687,-0.50782 1.01562,-1.11329 0.46875,-0.60546 0.87891,-1.25 0.41016,-0.66406 0.76172,-1.26953 0.23437,-0.41015 0.44922,-0.91797 0.21484,-0.50781 0.37109,-1.01562 0.17578,-0.50781 0.25391,-0.95703 0.0976,-0.46875 0.0976,-0.78125 0,-1.34766 -0.58593,-2.14844 -0.58594,-0.80078 -1.46485,-0.80078 -0.54687,0 -1.26953,0.37109 -0.70312,0.35157 -1.42578,0.85938 -0.70312,0.50781 -1.32812,1.07422 -0.60547,0.54687 -0.97657,0.9375 -0.89843,0.95703 -1.69922,2.08984 -0.78125,1.11328 -1.48437,2.30469 -0.70313,1.17187 -1.32813,2.36328 -0.625,1.19141 -1.15234,2.28516 -0.23437,0.91796 -0.46875,2.03125 -0.21484,1.11328 -0.33203,2.4414 -0.21484,2.63672 -0.33203,4.70703 -0.0977,2.07032 -0.42969,3.78907 -0.11719,0.625 -0.56641,1.09375 -0.44921,0.48828 -1.17187,0.48828 -0.21484,0 -0.50781,-0.11719 -0.29297,-0.0977 -0.56641,-0.29297 -0.25391,-0.19531 -0.44922,-0.44922 -0.17578,-0.23437 -0.17578,-0.52734 0,-0.64453 0.0781,-1.60156 0.0976,-0.9375 0.21484,-1.89454 0.11719,-0.95703 0.21484,-1.73828 0.11719,-0.78125 0.15625,-1.09375 0.27344,-2.01172 0.48828,-4.33593 0.21485,-2.34375 0.35157,-5.09766 0.0195,-0.58594 0.0391,-1.54297 0.0391,-0.97656 0.0586,-1.95312 0.0391,-0.9961 0.0586,-1.83594 0.0391,-0.85938 0.0781,-1.21094 0.27344,-3.73047 1.95313,-3.73047 0.33203,0 0.625,0.17578 0.3125,0.15625 0.54687,0.42969 0.23438,0.25391 0.3711,0.58594 0.13671,0.33203 0.13671,0.64453 0,0.68359 -0.15625,1.48437 -0.13671,0.78125 -0.3125,1.6211 -0.17578,0.82031 -0.33203,1.62109 -0.13672,0.80078 -0.13672,1.46485 0,0.5664 0.11719,0.5664 1.36719,-2.46094 2.67578,-4.3164 1.3086,-1.875 2.61719,-3.10547 0.83984,-0.78125 1.66016,-1.42578 0.82031,-0.66407 1.64062,-1.13282 0.83985,-0.48828 1.71875,-0.74218 0.89844,-0.27344 1.89453,-0.29297 0.6836,-0.0195 1.40625,0.33203 0.74219,0.35156 1.32813,1.05469 0.58594,0.70312 0.95703,1.71875 0.39062,0.99609 0.37109,2.26562 0.0195,0.97656 -0.3125,1.95313 -0.3125,0.97656 -0.85937,1.93359 -0.52735,0.9375 -1.23047,1.81641 -0.70313,0.8789 -1.46484,1.62109 1.60156,-0.60547 3.28125,-1.48438 1.69921,-0.8789 3.3789,-1.89453 1.69922,-1.01562 3.32031,-2.10937 1.64063,-1.09375 3.125,-2.12891 0.44922,-0.3125 0.72266,-0.52734 0.27344,-0.21485 0.60547,-0.21485 0.27344,0 0.3125,0.27344 0.0586,0.25391 0.0586,0.52735 z"
         style="font-style:normal;font-variant:normal;font-weight:normal;font-stretch:normal;font-family:'Segoe Script';-inkscape-font-specification:'Segoe Script';fill:none;stroke:#000000;stroke-width:2.70000005;stroke-miterlimit:4;stroke-dasharray:none;stroke-opacity:1"
         id="path4820" />
      <path
         d="m 486.33961,389.89554 q 0,0.91797 -1.11328,2.87109 -0.21484,0.3711 -0.60547,0.89844 -0.37109,0.50781 -0.83984,1.07422 -0.46875,0.54687 -0.97656,1.13281 -0.50781,0.56641 -0.9961,1.05469 -0.74218,0.74219 -1.64062,1.44531 -0.87891,0.70313 -1.875,1.26953 -0.97656,0.56641 -2.03125,0.91797 -1.03516,0.33203 -2.05078,0.33203 -1.34766,0 -2.51953,-0.48828 -1.17188,-0.48828 -2.05078,-1.50391 -0.85938,-1.01562 -1.36719,-2.53906 -0.48828,-1.54297 -0.48828,-3.63281 0,-1.42578 0.13672,-2.96875 0.13671,-1.5625 0.35156,-3.125 0.21484,-1.5625 0.46875,-3.08594 0.27344,-1.54297 0.54687,-2.96875 0.17578,-0.97656 0.29297,-1.60156 0.13672,-0.625 0.23438,-1.15234 0.0977,-0.52735 0.17578,-1.05469 0.0781,-0.54688 0.19531,-1.34766 0.0781,-0.54687 0.13672,-0.95703 0.0781,-0.42969 0.11719,-0.70312 0.0781,-0.46875 0.2539,-0.89844 0.19532,-0.42969 0.46875,-0.76172 0.29297,-0.33203 0.66407,-0.52734 0.37109,-0.19532 0.82031,-0.19532 0.9375,0 1.38672,0.87891 -0.11719,0.60547 -0.25391,1.17187 -0.11719,0.54688 -0.21484,1.17188 -0.48828,2.46094 -0.80078,3.98437 -0.3125,1.52344 -0.44922,2.14844 -0.23438,1.23047 -0.50782,2.65625 -0.2539,1.42578 -0.48828,2.91016 -0.21484,1.48437 -0.35156,2.92969 -0.13672,1.44531 -0.13672,2.69531 0,1.34765 0.21485,2.46094 0.21484,1.09375 0.68359,1.875 0.48828,0.78125 1.23047,1.21093 0.76172,0.42969 1.83594,0.42969 1.17187,0 2.30468,-0.50781 1.13282,-0.52735 2.16797,-1.32813 1.05469,-0.80078 1.99219,-1.75781 0.9375,-0.97656 1.71875,-1.875 0.625,-0.74219 1.09375,-1.26953 0.46875,-0.54688 0.78125,-0.91797 0.25391,-0.29297 0.56641,-0.60547 0.33203,-0.3125 0.60546,-0.3125 0.3125,0 0.3125,0.56641 z"
         style="font-style:normal;font-variant:normal;font-weight:normal;font-stretch:normal;font-family:'Segoe Script';-inkscape-font-specification:'Segoe Script';fill:none;stroke:#000000;stroke-width:2.70000005;stroke-miterlimit:4;stroke-dasharray:none;stroke-opacity:1"
         id="path4822" />
      <path
         d="m 508.66383,388.25491 q 0,0.29297 -0.42968,1.03516 -1.01563,1.46484 -2.28516,2.92969 -1.25,1.46484 -2.67578,2.79297 -1.40625,1.30859 -2.94922,2.46093 -1.52344,1.13282 -3.08594,1.97266 -1.5625,0.82031 -3.125,1.26953 -1.54297,0.44922 -2.98828,0.42969 -3.125,0 -4.86328,-1.81641 -1.71875,-1.8164 -1.71875,-5.48828 0,-3.06641 0.9375,-5.95703 0.95703,-2.89063 3.24219,-5.56641 0.42968,-0.46875 0.95703,-0.89843 0.54687,-0.42969 1.13281,-0.76172 0.60547,-0.33203 1.23047,-0.52735 0.64453,-0.19531 1.28906,-0.23437 0.15625,0 0.42969,0.0391 0.27344,0.0391 0.58594,0.13672 0.3125,0.0977 0.60547,0.25391 0.29296,0.13671 0.46875,0.35156 0.54687,0.625 0.85937,1.28906 0.33203,0.66406 0.37109,1.46484 0.0391,0.89844 -0.21484,1.77735 -0.23437,0.85937 -0.82031,1.77734 -0.56641,0.89844 -1.50391,1.875 -0.9375,0.95703 -2.26562,2.07031 -0.83985,0.70313 -1.875,1.5625 -1.01563,0.83985 -2.46094,1.77735 0,1.89453 1.13281,2.89062 1.15235,0.97657 3.14453,0.97657 1.11328,0 2.2461,-0.29297 1.13281,-0.29297 2.22656,-0.76172 1.09375,-0.48828 2.10937,-1.09375 1.03516,-0.625 1.9336,-1.26953 1.66015,-1.21094 3.00781,-2.40235 1.34766,-1.21093 2.67578,-2.53906 l 1.05469,-1.05469 q 0.95703,-0.83984 1.38672,-0.83984 0.23437,0 0.23437,0.37109 z m -14.92187,-3.88672 q -0.0195,-0.29296 -0.0977,-0.5664 -0.0586,-0.29297 -0.19531,-0.50781 -0.13672,-0.21485 -0.3125,-0.33204 -0.17578,-0.13671 -0.41016,-0.13671 -1.03515,0.0586 -2.07031,1.26953 -1.03516,1.1914 -1.95312,3.16406 -0.21485,0.42969 -0.39063,0.97656 -0.15625,0.52735 -0.3125,1.09375 -0.13672,0.54688 -0.25391,1.09375 -0.0976,0.54688 -0.17578,0.97656 1.01563,-0.76171 1.875,-1.40625 0.85938,-0.64453 1.60157,-1.32812 0.46875,-0.42969 0.95703,-0.91797 0.48828,-0.50781 0.8789,-1.05469 0.41016,-0.54687 0.64453,-1.13281 0.23438,-0.58594 0.21485,-1.19141 z"
         style="font-style:normal;font-variant:normal;font-weight:normal;font-stretch:normal;font-family:'Segoe Script';-inkscape-font-specification:'Segoe Script';fill:none;stroke:#000000;stroke-width:2.70000005;stroke-miterlimit:4;stroke-dasharray:none;stroke-opacity:1"
         id="path4824" />
      <path
         d="m 564.5818,386.69241 q 0,0.3711 -0.48828,1.09375 -0.48828,0.72266 -0.83984,0.89844 -0.15625,0.0977 -0.95703,0.29297 -2.30469,0.54687 -5.60547,0.87891 -1.66016,0.15625 -3.08594,0.23437 -1.42578,0.0781 -2.65625,0.0781 -0.0977,0.74218 -0.21484,1.54296 -0.0977,0.80079 -0.19532,1.60157 -0.0976,0.80078 -0.21484,1.58203 -0.0977,0.76172 -0.17578,1.42578 -0.15625,1.34766 -0.3711,2.94922 -0.19531,1.58203 -0.50781,3.75 -0.39062,2.28515 -0.9375,3.75 -0.78125,2.08984 -2.1875,3.61328 -1.40625,1.58203 -3.24219,1.58203 -0.5664,0 -1.28906,-0.39062 -0.70312,-0.3711 -0.70312,-0.95704 0,-0.2539 0.0781,-0.60546 0.0977,-0.35157 0.25391,-0.6836 0.15625,-0.3125 0.35156,-0.54687 0.21484,-0.21485 0.46875,-0.21485 0.3125,0 0.89844,0.11719 0.58594,0.11719 0.89844,0.11719 0.46875,-0.29297 0.80078,-0.74219 0.35156,-0.44922 0.60547,-1.03516 0.2539,-0.58593 0.42968,-1.26953 0.19532,-0.68359 0.33203,-1.42578 0.27344,-1.40625 0.48829,-2.67578 0.23437,-1.26953 0.41015,-2.44141 0.17578,-1.1914 0.3125,-2.32421 0.13672,-1.13282 0.25391,-2.28516 0.0781,-0.60547 0.17578,-1.64063 0.11719,-1.01562 0.11719,-1.79687 0.0391,-0.17578 -0.0391,-0.33203 -0.0781,-0.15625 -0.21484,-0.3125 -0.56641,-0.25391 -1.42578,-0.25391 -0.83984,0 -2.14844,0 -1.07422,0 -2.03125,-0.0781 -0.9375,-0.0781 -1.8164,-0.27344 -0.85938,-0.21484 -1.67969,-0.56641 -0.80078,-0.35156 -1.60156,-0.91797 0.15625,0.44922 0.27343,0.78125 0.13672,0.3125 0.13672,0.83985 0,1.54297 -0.78125,3.28125 -0.76172,1.75781 -1.97265,3.26172 -1.21094,1.5039 -2.5586,2.5 -0.76172,0.5664 -1.67969,0.99609 -0.89843,0.41016 -1.89453,0.68359 -0.99609,0.25391 -2.07031,0.39063 -1.07422,0.11719 -2.16797,0.11719 -0.76172,0 -1.48437,-0.48828 -0.72266,-0.48829 -1.28907,-1.19141 -0.5664,-0.70313 -0.91796,-1.50391 -0.33204,-0.80078 -0.33204,-1.44531 0,-1.58203 0.41016,-3.02734 0.42969,-1.46485 1.13281,-2.8125 0.72266,-1.36719 1.66016,-2.65625 0.9375,-1.3086 1.99219,-2.59766 0.58593,-0.72266 1.32812,-1.40625 0.76172,-0.70312 1.58203,-1.25 0.82032,-0.54687 1.66016,-0.87891 0.83984,-0.35156 1.60156,-0.35156 0.625,0 1.15235,0.27344 0.54687,0.27344 1.05468,0.72266 0.50782,0.44921 0.9961,1.03515 0.50781,0.58594 1.05468,1.19141 0.39063,0.42969 1.15235,0.91797 0.78125,0.46875 1.8164,0.8789 1.05469,0.41016 2.28516,0.6836 1.23047,0.2539 2.53906,0.2539 0.80078,0 1.46485,0.0195 0.66406,0.0195 1.1914,-0.0195 0.54688,-0.0391 0.9961,-0.19531 0.44922,-0.15625 0.80078,-0.50781 0.41015,-0.41016 0.5664,-0.82031 0.17579,-0.42969 0.21485,-0.74219 0.0781,-0.39063 0.15625,-0.9961 0.0977,-0.625 0.23437,-1.44531 0.25391,-1.64062 0.46875,-2.69531 0.23438,-1.07422 0.64453,-2.22656 0.41016,-1.15235 0.97657,-2.14844 0.8789,-1.46484 2.28515,-2.69531 1.40625,-1.23047 2.83203,-1.23047 1.46485,0 2.51954,1.05469 1.07421,1.01562 1.07421,2.51953 0,1.89453 -1.42578,4.02343 -0.82031,1.25 -1.52343,1.25 l -0.0781,0 q 0.35156,-1.36718 0.35156,-2.89062 0,-1.09375 -0.3125,-2.22656 -0.29297,-1.17188 -0.99609,-1.17188 -0.83984,0 -1.54297,0.91797 -0.70312,0.89844 -1.19141,1.97266 -0.66406,1.48437 -1.23046,3.96484 -0.27344,1.23047 -0.46875,2.30469 -0.17579,1.07422 -0.25391,2.01172 0,0.50781 0.11719,0.83984 0.11718,0.3125 0.35156,0.48828 0.25391,0.17578 0.625,0.25391 0.37109,0.0586 0.85937,0.0586 1.64063,0 3.00782,-0.0195 1.38672,-0.0391 2.55859,-0.11719 1.17188,-0.0781 2.40234,-0.23437 1.23047,-0.15625 2.51954,-0.42969 0.15625,-0.0195 0.3125,-0.0195 0.15625,-0.0195 0.33203,-0.0195 0.23437,0 0.23437,0.23437 z m -30.07812,3.35938 q 0.0195,-0.54688 -0.15625,-0.89844 -0.17578,-0.35156 -0.44922,-0.66406 -0.25391,-0.33203 -0.54688,-0.70313 -0.29297,-0.37109 -0.48828,-0.9375 -0.3125,-0.83984 -0.72265,-1.23047 -0.41016,-0.39062 -0.82032,-0.50781 -0.41015,-0.13672 -0.76172,-0.0977 -0.33203,0.0391 -0.48828,0.0391 -0.23437,0 -0.50781,0.15625 -0.27344,0.13672 -0.56641,0.39062 -0.29296,0.25391 -0.60546,0.60547 -0.29297,0.33203 -0.58594,0.70313 -0.58594,0.76172 -1.09375,1.38672 -0.48828,0.625 -0.9375,1.25 -0.42969,0.60546 -0.83985,1.28906 -0.41015,0.66406 -0.82031,1.5039 -0.17578,0.35157 -0.3125,0.83985 -0.13672,0.48828 -0.23437,1.01562 -0.0977,0.50782 -0.15625,1.03516 -0.0391,0.50781 -0.0391,0.91797 0,0.2539 0.17579,0.625 0.17578,0.35156 0.44921,0.70312 0.29297,0.33203 0.64454,0.56641 0.37109,0.23437 0.72265,0.23437 0.9961,0 1.69922,-0.0781 0.70313,-0.0977 1.28906,-0.3125 0.60547,-0.23438 1.21094,-0.625 0.60547,-0.39063 1.40625,-1.01563 0.39063,-0.29296 0.76172,-0.68359 0.39062,-0.39062 0.76172,-0.82031 0.37109,-0.44922 0.70312,-0.89844 0.33203,-0.46875 0.625,-0.91797 0.19532,-0.29297 0.33203,-0.72265 0.13672,-0.42969 0.21485,-0.85938 0.0781,-0.42969 0.0977,-0.78125 0.0391,-0.35156 0.0391,-0.50781 z"
         style="font-style:normal;font-variant:normal;font-weight:normal;font-stretch:normal;font-family:'Segoe Script';-inkscape-font-specification:'Segoe Script';fill:none;stroke:#000000;stroke-width:2.70000005;stroke-miterlimit:4;stroke-dasharray:none;stroke-opacity:1"
         id="path4826" />
      <path
         d="m 611.65211,388.89944 q 0,0.41016 -0.58593,1.28907 -0.21485,0.35156 -0.54688,0.78125 -0.33203,0.42968 -0.70312,0.8789 -0.35157,0.42969 -0.70313,0.82032 -0.35156,0.39062 -0.625,0.66406 -1.13281,1.15234 -2.40234,2.20703 -1.26953,1.05469 -2.63672,1.89453 -1.34766,0.82031 -2.8125,1.32813 -1.44531,0.50781 -2.94922,0.52734 -1.15234,0 -2.05078,-0.42969 -0.87891,-0.42969 -1.38672,-1.38672 -0.50781,-0.95703 -0.76172,-2.14843 -0.2539,-1.19141 -0.41015,-2.5586 -0.0195,-0.21484 -0.0586,-0.64453 -0.0391,-0.42969 -0.0977,-0.9375 -0.0391,-0.52734 -0.11719,-1.07422 -0.0781,-0.54687 -0.17578,-0.99609 -0.0977,-0.44922 -0.23438,-0.72266 -0.11719,-0.29297 -0.27344,-0.29297 -0.60546,0 -1.66015,0.82032 -1.05469,0.80078 -2.30469,2.1289 -1.25,1.3086 -2.55859,2.96875 -1.3086,1.66016 -2.44141,3.37891 -0.99609,1.48437 -1.81641,2.98828 -0.80078,1.48437 -1.40625,2.59766 -0.33203,0.50781 -0.70312,0.70312 -0.37109,0.21484 -0.50781,0.21484 -0.3125,0 -0.64453,-0.15625 -0.3125,-0.13671 -0.58594,-0.37109 -0.25391,-0.23437 -0.42969,-0.54687 -0.15625,-0.29297 -0.15625,-0.58594 0,-0.25391 0.0781,-0.82031 0.0977,-0.58594 0.21484,-1.3086 0.11719,-0.72265 0.23437,-1.48437 0.11719,-0.78125 0.19532,-1.44532 0.13672,-1.28906 0.3125,-2.83203 0.17578,-1.54297 0.33203,-3.10547 0.15625,-1.58203 0.29297,-3.08593 0.13672,-1.50391 0.21484,-2.71485 0.0195,-0.39062 0.0586,-1.03515 0.0391,-0.64453 0.0781,-1.40625 0.0391,-0.78125 0.0781,-1.64063 0.0391,-0.85937 0.0781,-1.66015 0.0391,-0.82032 0.0586,-1.52344 0.0391,-0.72266 0.0586,-1.21094 0.0195,-0.54687 0.0586,-1.01562 0.0586,-0.46875 0.13672,-0.91797 0.0977,-0.46875 0.25391,-0.91797 0.17578,-0.46875 0.42968,-1.01563 0.0781,-0.17578 0.25391,-0.39062 0.17578,-0.21485 0.39062,-0.39063 0.23438,-0.17578 0.48829,-0.29297 0.27343,-0.13671 0.54687,-0.13671 0.56641,0 1.01563,0.44921 0.46875,0.44922 0.46875,1.25 0,0.25391 -0.0977,0.6836 -0.0781,0.42969 -0.19531,0.89844 -0.11719,0.44921 -0.23438,0.8789 -0.0977,0.41016 -0.13672,0.625 -0.15625,0.80078 -0.27343,1.83594 -0.11719,1.03516 -0.23438,2.10937 -0.0977,1.07422 -0.17578,2.12891 -0.0781,1.03516 -0.13672,1.85547 -0.0586,0.9375 -0.15625,1.75781 -0.0781,0.82031 -0.17578,1.64063 -0.0781,0.80078 -0.15625,1.64062 -0.0781,0.82031 -0.15625,1.77735 -0.13672,1.44531 -0.3125,2.55859 -0.17578,1.09375 -0.17578,1.875 0,0.11719 0.11719,0.27344 0.13671,0.15625 0.23437,0.15625 l 0.0781,0 q 0.17578,-0.21485 0.44921,-0.64453 0.27344,-0.42969 0.625,-0.9375 0.35157,-0.50782 0.72266,-1.05469 0.39063,-0.56641 0.76172,-1.03516 0.37109,-0.46875 0.80078,-1.01562 0.44922,-0.56641 0.91797,-1.13282 0.48828,-0.5664 0.97656,-1.13281 0.50781,-0.5664 0.97656,-1.05469 0.60547,-0.60546 1.34766,-1.26953 0.74219,-0.66406 1.54297,-1.21093 0.82031,-0.54688 1.64062,-0.89844 0.82032,-0.35156 1.5625,-0.35156 0.13672,0 0.35157,0.0781 0.23437,0.0781 0.44922,0.23438 0.23437,0.13671 0.42968,0.35156 0.19532,0.19531 0.29297,0.46875 0.39063,1.05469 0.56641,2.10937 0.17578,1.05469 0.3125,2.22657 0.11719,0.99609 0.2539,2.05078 0.13672,1.05468 0.35157,1.91406 0.21484,0.85937 0.54687,1.40625 0.35156,0.54687 0.87891,0.54687 2.40234,0 4.60937,-1.07421 1.17188,-0.56641 2.01172,-1.09375 0.85938,-0.52735 1.58203,-1.09375 0.74219,-0.56641 1.46485,-1.25 0.72265,-0.6836 1.67968,-1.58204 1.89454,-1.73828 2.20704,-1.73828 0.29296,0 0.29296,0.80078 z"
         style="font-style:normal;font-variant:normal;font-weight:normal;font-stretch:normal;font-family:'Segoe Script';-inkscape-font-specification:'Segoe Script';fill:none;stroke:#000000;stroke-width:2.70000005;stroke-miterlimit:4;stroke-dasharray:none;stroke-opacity:1"
         id="path4828" />
      <path
         d="m 637.7068,388.43069 q 0,0.23438 -0.0586,0.56641 -0.0586,0.3125 -0.17578,0.64453 -0.0977,0.33203 -0.23438,0.64453 -0.11719,0.29297 -0.2539,0.46875 -0.11719,0.15625 -0.35157,0.42969 -0.21484,0.25391 -0.48828,0.56641 -0.27344,0.3125 -0.60547,0.66406 -0.3125,0.33203 -0.66406,0.64453 -1.21094,1.11328 -2.38281,2.16797 -1.15235,1.03516 -2.38281,1.83594 -1.23047,0.80078 -2.57813,1.28906 -1.32812,0.46875 -2.89062,0.44922 -0.72266,0 -1.46485,-0.25391 -0.72265,-0.27344 -1.36719,-0.76172 -0.64453,-0.48828 -1.11328,-1.17187 -0.46875,-0.6836 -0.66406,-1.50391 -0.56641,0.58594 -1.19141,1.23047 -0.625,0.625 -1.30859,1.26953 -0.66406,0.64453 -1.38672,1.25 -0.72265,0.60547 -1.48437,1.11328 -0.42969,0.27344 -1.03516,0.58594 -0.58594,0.3125 -1.25,0.58594 -0.64453,0.2539 -1.30859,0.42969 -0.64453,0.15625 -1.17188,0.15625 -0.80078,0 -1.38672,-0.48829 -0.5664,-0.50781 -0.95703,-1.23046 -0.37109,-0.72266 -0.5664,-1.54297 -0.17579,-0.82032 -0.17579,-1.46485 0,-1.28906 0.3711,-2.63672 0.37109,-1.34765 0.95703,-2.61718 0.60547,-1.28907 1.32812,-2.44141 0.74219,-1.15234 1.44532,-2.05078 0.74218,-0.9375 1.75781,-1.85547 1.01562,-0.9375 2.10937,-1.66016 1.09375,-0.74218 2.14844,-1.1914 1.05469,-0.44922 1.875,-0.44922 0.41016,0 0.85938,0 0.46875,0 0.91797,0.0586 0.44921,0.0391 0.8789,0.15625 0.42969,0.0977 0.78125,0.3125 0.17578,0.11719 0.41016,0.44922 0.23437,0.33203 0.42969,0.74219 0.21484,0.41016 0.35156,0.82031 0.13672,0.41016 0.13672,0.64453 0,0.64453 -0.29297,1.71875 -0.3125,1.34766 -0.58594,2.46094 -0.25391,1.09375 -0.25391,2.26563 0,0.66406 0.21485,1.36718 0.21484,0.6836 0.60547,1.25 0.41015,0.56641 0.97656,0.9375 0.58594,0.35157 1.30859,0.35157 1.19141,0 2.44141,-0.48829 1.25,-0.50781 2.51953,-1.36718 1.28906,-0.87891 2.55859,-2.01172 1.26954,-1.15235 2.5,-2.44141 0.0977,-0.11719 0.33204,-0.39062 0.2539,-0.29297 0.50781,-0.56641 0.27344,-0.29297 0.52734,-0.50781 0.25391,-0.23438 0.3711,-0.23438 0.41015,0 0.41015,0.80078 z m -17.38281,-1.62109 q 0,-0.33203 -0.0391,-0.82031 -0.0391,-0.48828 -0.25391,-0.80078 -0.21484,-0.3125 -0.52734,-0.29297 -0.3125,0 -0.625,0 -0.6836,0 -1.32813,0.21484 -0.625,0.21485 -1.23047,0.60547 -0.60547,0.37109 -1.17187,0.87891 -0.54688,0.48828 -1.07422,1.03515 -0.44922,0.44922 -0.95703,1.11328 -0.48828,0.66407 -0.97656,1.46485 -0.46875,0.78125 -0.91797,1.66015 -0.44922,0.85938 -0.78125,1.71875 -0.33203,0.83985 -0.52735,1.64063 -0.19531,0.78125 -0.19531,1.42578 0,0.19531 0.0391,0.52734 0.0586,0.3125 0.15625,0.625 0.11719,0.29297 0.29297,0.50782 0.19531,0.21484 0.46875,0.21484 0.89844,0 2.2461,-0.56641 1.83593,-0.78125 3.32031,-2.1289 1.5039,-1.36719 2.55859,-3.14453 1.52344,-2.75391 1.52344,-5.87891 z"
         style="font-style:normal;font-variant:normal;font-weight:normal;font-stretch:normal;font-family:'Segoe Script';-inkscape-font-specification:'Segoe Script';fill:none;stroke:#000000;stroke-width:2.70000005;stroke-miterlimit:4;stroke-dasharray:none;stroke-opacity:1"
         id="path4830" />
      <path
         d="m 668.60524,387.76663 q 0,0.3711 -0.13672,0.76172 -0.11719,0.37109 -0.3125,0.76172 -0.17578,0.37109 -0.41016,0.74219 -0.23437,0.35156 -0.44921,0.68359 -0.56641,0.87891 -1.32813,1.79688 -0.76172,0.89843 -1.64062,1.75781 -0.85938,0.85937 -1.77735,1.62109 -0.91797,0.76172 -1.79687,1.34766 -0.70313,0.46875 -1.34766,0.8789 -0.625,0.41016 -1.26953,0.70313 -0.64453,0.29297 -1.34766,0.46875 -0.70312,0.17578 -1.54297,0.17578 -1.62109,0 -2.63671,-0.82031 -0.50782,-0.41016 -0.89844,-1.05469 -0.3711,-0.66406 -0.66406,-1.46484 -0.27344,-0.80078 -0.48829,-1.69922 -0.19531,-0.89844 -0.33203,-1.77735 -0.17578,-1.09375 -0.33203,-1.95312 -0.15625,-0.87891 -0.37109,-1.46484 -0.19531,-0.60547 -0.48828,-0.91797 -0.29297,-0.33203 -0.76172,-0.33203 -0.3711,0 -0.70313,0.0781 -0.33203,0.0781 -0.70312,0.3125 -0.35156,0.23438 -0.78125,0.66406 -0.42969,0.42969 -1.01563,1.13282 -0.5664,0.70312 -1.30859,1.71875 -0.74219,1.01562 -1.73828,2.42187 -0.48828,0.68359 -1.15235,1.50391 -0.66406,0.82031 -1.36718,1.5625 -0.6836,0.74218 -1.34766,1.30859 -0.66406,0.56641 -1.17187,0.72266 -1.71875,-0.3711 -1.71875,-4.27735 0,-1.03515 0.23437,-3.14453 0.11719,-0.95703 0.27344,-1.99219 0.15625,-1.05468 0.39062,-2.08984 0.23438,-1.05469 0.52735,-2.03125 0.3125,-0.99609 0.72265,-1.83594 0.19532,-0.39062 0.41016,-0.60547 0.21484,-0.23437 0.42969,-0.33203 0.23437,-0.11718 0.46875,-0.13672 0.2539,-0.0391 0.50781,-0.0391 0.3125,0 0.54687,0.42969 0.25391,0.42969 0.25391,1.19141 0,0.46875 -0.0781,0.8789 -0.0781,0.41016 -0.21485,0.83985 -0.13672,0.42968 -0.29297,0.9375 -0.15625,0.48828 -0.3125,1.13281 -0.11718,0.52734 -0.27343,1.17187 -0.13672,0.64453 -0.27344,1.3086 -0.11719,0.66406 -0.21485,1.30859 -0.0781,0.625 -0.0781,1.13281 0,0.35157 0.11719,0.72266 0.54687,-0.0586 1.79687,-1.64063 0.64453,-0.80078 1.40625,-1.75781 0.78125,-0.95703 1.67969,-2.10937 0.66406,-0.85938 1.30859,-1.60157 0.66407,-0.74218 1.36719,-1.28906 0.70313,-0.5664 1.48438,-0.8789 0.80078,-0.33204 1.75781,-0.33204 1.01562,0 1.67969,0.44922 0.68359,0.42969 1.09375,1.21094 0.41015,0.76172 0.625,1.83594 0.23437,1.07422 0.37109,2.36328 0.11719,1.09375 0.21484,2.16797 0.11719,1.07422 0.42969,1.93359 0.3125,0.83985 0.89844,1.36719 0.58594,0.52734 1.67969,0.52734 0.83984,0 1.75781,-0.39062 0.91797,-0.39063 1.93359,-1.07422 1.01563,-0.70313 2.08985,-1.64063 1.09375,-0.9375 2.24609,-2.05078 0.44922,-0.42968 0.97656,-1.07422 0.54688,-0.66406 1.05469,-1.26953 0.52734,-0.60547 0.97656,-1.03515 0.44922,-0.42969 0.72266,-0.42969 0.11719,0 0.37109,0.11719 0.27344,0.11718 0.27344,0.39062 z"
         style="font-style:normal;font-variant:normal;font-weight:normal;font-stretch:normal;font-family:'Segoe Script';-inkscape-font-specification:'Segoe Script';fill:none;stroke:#000000;stroke-width:2.70000005;stroke-miterlimit:4;stroke-dasharray:none;stroke-opacity:1"
         id="path4832" />
      <path
         d="m 696.2029,388.25491 q 0,0.48828 -0.23438,0.95703 -0.42969,0.85938 -1.97266,2.63672 -0.74218,0.87891 -1.58203,1.73828 -0.83984,0.83985 -1.77734,1.71875 -0.9375,0.87891 -1.81641,1.58204 -0.8789,0.70312 -1.71875,1.26953 -1.66015,1.13281 -2.65625,1.13281 -0.39062,0 -0.99609,-0.27344 -1.23047,-0.5664 -1.95313,-2.07031 -0.70312,-1.50391 -0.99609,-3.14453 -0.29297,-1.64063 -0.48828,-3.67188 -2.44141,4.55078 -6.32813,8.08594 -3.90625,3.55469 -8.08593,3.55469 -1.15235,0 -1.75782,-1.23047 -0.60546,-1.21094 -0.60546,-2.51953 0,-1.75781 0.29296,-2.61719 0.82032,-2.5 1.875,-4.6875 1.07422,-2.1875 2.59766,-4.29687 0.99609,-1.36719 2.26563,-2.73438 1.28906,-1.36719 2.42187,-1.95312 1.40625,-0.76172 4.04297,-0.76172 0.91797,0 1.5625,1.01562 0.64453,1.01563 0.97656,2.36328 0.33203,1.42578 0.33203,2.22657 0.29297,-0.95704 0.52735,-1.9336 0.23437,-0.99609 0.41015,-2.05078 0.17578,-1.05469 0.3125,-2.20703 0.15625,-1.17188 0.27344,-2.5 0.0391,-0.35156 0.0781,-0.89844 0.0391,-0.54687 0.0977,-1.28906 0.11719,-1.52344 0.23438,-2.55859 0.11718,-1.05469 0.3125,-1.36719 0.46875,-0.80078 1.64062,-0.80078 0.58594,0 1.15235,0.2539 0.60546,0.23438 0.60546,0.66407 0,0.23437 -0.0977,0.76171 -0.0781,0.52735 -0.23438,1.36719 -0.15625,0.83985 -0.42968,2.08985 -0.25391,1.23046 -0.56641,2.94921 -0.0195,0.19532 -0.11719,0.78125 -0.0977,0.58594 -0.21484,1.25 -0.11719,0.64454 -0.21485,1.21094 -0.0977,0.54688 -0.11718,0.6836 -0.25391,1.58203 -0.41016,2.96875 -0.15625,1.38671 -0.15625,2.8125 0,1.13281 0.0586,2.67578 0.0586,1.5625 0.29297,3.02734 0.23438,1.46484 0.6836,1.46484 1.60156,0 3.86718,-1.46484 2.2461,-1.48437 4.33594,-3.39844 2.08985,-1.91406 3.71094,-3.65234 0.11719,-0.11719 0.21484,-0.11719 0.21485,0 0.27344,0.33203 0.0781,0.3125 0.0781,0.625 z m -18.20313,1.23047 q -0.50781,-0.11719 -0.78125,-0.50781 -0.25391,-0.39063 -0.25391,-0.87891 0,-0.39062 0.11719,-1.15234 0.11719,-0.76172 0.11719,-1.17188 0,-0.35156 -0.19531,-0.78125 -0.17578,-0.44921 -0.46875,-0.82031 -0.29297,-0.39062 -0.66407,-0.64453 -0.35156,-0.27344 -0.70312,-0.27344 -1.03516,0 -2.8125,2.16797 -0.89844,1.11328 -1.66016,2.12891 -0.74218,1.01562 -1.36718,2.01172 -0.6836,1.07422 -1.17188,1.97265 -0.46875,0.89844 -0.80078,1.60157 -1.15234,2.48046 -1.15234,3.90625 0,1.8164 1.23046,1.8164 1.09375,0 3.00782,-1.26953 1.97265,-1.34766 3.04687,-2.42187 1.11328,-1.17188 1.85547,-1.97266 0.74219,-0.80078 1.17188,-1.28906 0.42968,-0.48828 0.78125,-1.09375 0.37109,-0.60547 0.70312,-1.32813 z"
         style="font-style:normal;font-variant:normal;font-weight:normal;font-stretch:normal;font-family:'Segoe Script';-inkscape-font-specification:'Segoe Script';fill:none;stroke:#000000;stroke-width:2.70000005;stroke-miterlimit:4;stroke-dasharray:none;stroke-opacity:1"
         id="path4834" />
      <path
         d="m 734.6404,385.42288 q 0,0.44922 -0.21485,0.85938 -0.19531,0.41015 -0.54687,0.76172 -0.33203,0.35156 -0.76172,0.66406 -0.41016,0.29297 -0.83985,0.50781 -0.99609,0.50781 -2.24609,0.83984 -1.25,0.33204 -2.8125,0.33204 -0.78125,0 -1.46484,-0.0977 -0.66407,-0.11719 -1.26953,-0.29297 -0.60547,-0.17578 -1.13282,-0.37109 -0.52734,-0.21485 -0.99609,-0.41016 -0.83984,1.25 -1.5625,2.83203 -0.72266,1.5625 -1.44531,3.57422 -0.35157,0.97656 -0.60547,1.71875 -0.25391,0.72266 -0.48828,1.40625 -0.23438,0.66406 -0.48828,1.36719 -0.25391,0.70312 -0.60547,1.62109 -0.0977,0.27344 -0.3711,0.66406 -0.2539,0.3711 -0.60547,0.72266 -0.33203,0.35156 -0.70312,0.58594 -0.37109,0.2539 -0.68359,0.2539 -0.83985,0 -1.58204,-0.625 -0.72265,-0.625 -1.25,-1.5039 -1.13281,-1.99219 -1.95312,-4.08203 -0.80078,-2.08985 -1.30859,-4.17969 -0.50782,-2.16797 -0.625,-2.16797 -0.13672,0 -0.41016,0.48828 -0.25391,0.46875 -0.60547,1.21094 -0.33203,0.72266 -0.70312,1.60156 -0.3711,0.87891 -0.70313,1.66016 -0.3125,0.78125 -0.54687,1.36719 -0.21485,0.5664 -0.27344,0.72265 -1.71875,4.45313 -3.63281,6.3086 -0.15625,0.17578 -0.42969,0.17578 -0.70313,0 -1.3086,-0.46875 -0.60546,-0.46875 -0.97656,-1.13282 -0.0977,-0.17578 -0.27344,-0.60546 -0.15625,-0.44922 -0.37109,-1.01563 -0.21484,-0.58594 -0.44922,-1.23047 -0.21484,-0.64453 -0.41015,-1.21094 -0.19532,-0.58593 -0.35157,-1.03515 -0.13672,-0.44922 -0.19531,-0.625 -0.3125,-1.03516 -0.625,-2.40235 -0.3125,-1.36718 -0.56641,-2.79296 -0.2539,-1.42579 -0.42968,-2.75391 -0.15625,-1.32813 -0.15625,-2.28516 0,-1.21093 0.60547,-1.73828 0.625,-0.54687 1.73828,-0.54687 0.37109,0 0.60547,0.37109 0.2539,0.35156 0.37109,0.91797 0.13672,0.56641 0.19531,1.26953 0.0586,0.68359 0.0781,1.32813 0.0391,0.64453 0.0586,1.1914 0.0195,0.54688 0.0781,0.80078 0.11718,0.97657 0.3125,2.03125 0.19531,1.05469 0.42968,2.07032 0.25391,1.01562 0.50782,1.93359 0.27343,0.91797 0.50781,1.62109 0.2539,0.6836 0.46875,1.09375 0.21484,0.41016 0.35156,0.41016 0.21484,0 0.74219,-0.80078 0.54687,-0.80078 1.23047,-2.5 0.60547,-1.54297 1.09375,-2.77344 0.50781,-1.25 0.97656,-2.38281 0.46875,-1.15235 0.95703,-2.26563 0.50781,-1.11328 1.11328,-2.40234 0.11719,-0.29297 0.33203,-0.56641 0.23438,-0.29297 0.50782,-0.50781 0.29296,-0.23437 0.58593,-0.37109 0.3125,-0.15625 0.58594,-0.15625 0.87891,0 1.03516,1.32812 0.70312,5.54688 1.99218,9.25781 1.28907,3.69141 2.44141,3.69141 0.33203,0 0.66406,-0.42969 0.35157,-0.42968 0.6836,-1.11328 0.33203,-0.70312 0.625,-1.5625 0.3125,-0.85937 0.58593,-1.69922 0.27344,-0.85937 0.48829,-1.62109 0.23437,-0.76172 0.39062,-1.25 0.25391,-0.78125 0.54688,-1.60156 0.3125,-0.83985 0.66406,-1.66016 0.35156,-0.83984 0.76172,-1.62109 0.41015,-0.78125 0.8789,-1.46485 0.60547,-0.89843 1.23047,-0.89843 0.42969,0.0391 0.70313,0.11718 0.29297,0.0781 0.48828,0.21485 0.19531,0.11718 0.35156,0.3125 0.15625,0.17578 0.35156,0.42968 0.23438,0.33204 0.70313,0.625 0.48828,0.27344 1.03515,0.50782 0.54688,0.21484 1.09375,0.35156 0.54688,0.11719 0.91797,0.11719 1.54297,0 3.06641,-0.27344 1.52344,-0.29297 2.92969,-1.15234 0.0976,-0.0586 0.19531,-0.13672 0.0977,-0.0781 0.25391,-0.0781 0.19531,0 0.33203,0.0977 0.13672,0.0977 0.13672,0.52734 z"
         style="font-style:normal;font-variant:normal;font-weight:normal;font-stretch:normal;font-family:'Segoe Script';-inkscape-font-specification:'Segoe Script';fill:none;stroke:#000000;stroke-width:2.70000005;stroke-miterlimit:4;stroke-dasharray:none;stroke-opacity:1"
         id="path4836" />
      <path
         d="m 748.21461,385.96976 q 0,0.11718 -0.0195,0.35156 -0.0195,0.21484 -0.0976,0.44922 -0.0781,0.21484 -0.19532,0.39062 -0.0977,0.17578 -0.27343,0.17578 -0.11719,0 -0.39063,0 -0.27344,-0.0195 -0.58594,-0.0391 -0.29296,-0.0195 -0.5664,-0.0195 -0.27344,-0.0195 -0.39063,-0.0195 -3.73047,0.23437 -6.21093,2.73437 -2.44141,2.44141 -4.21875,6.52344 -0.33204,0.83985 -0.66407,1.73828 -0.3125,0.89844 -0.60547,1.89453 -0.15625,0.54688 -0.23437,0.97657 -0.0586,0.41015 -0.21484,0.8789 -0.0391,0.15625 -0.33204,0.29297 -0.29296,0.15625 -0.66406,0.27344 -0.35156,0.11719 -0.68359,0.19531 -0.33203,0.0781 -0.44922,0.0781 -1.34766,0.0781 -1.52344,-2.79297 -0.0586,-0.78125 -0.0586,-1.40625 0.0195,-0.64453 0.0586,-1.23047 0.0391,-0.60547 0.0977,-1.25 0.0781,-0.66406 0.15625,-1.48438 0.0977,-1.01562 0.23437,-2.34375 0.13672,-1.32812 0.3125,-2.67578 0.17578,-1.34765 0.3711,-2.55859 0.19531,-1.23047 0.41015,-2.03125 0.21485,-0.91797 0.58594,-1.36719 0.39063,-0.44922 1.13281,-0.48828 0.19532,0 0.41016,0.11719 0.23437,0.0977 0.41016,0.27344 0.19531,0.17578 0.3125,0.37109 0.13671,0.19531 0.15625,0.35156 0.0195,0.48828 -0.0195,1.07422 -0.0391,0.56641 -0.13671,1.19141 -0.0977,0.60547 -0.23438,1.23047 -0.13672,0.625 -0.27344,1.1914 -0.27343,1.11328 -0.42968,1.91406 -0.13672,0.78125 -0.23438,1.52344 -0.0977,0.74219 -0.19531,1.60156 -0.0977,0.83985 -0.25391,2.08985 0.33203,-0.74219 0.56641,-1.26953 0.2539,-0.52735 0.44922,-0.91797 0.19531,-0.41016 0.35156,-0.72266 0.17578,-0.3125 0.37109,-0.64453 0.19532,-0.35156 0.42969,-0.76172 0.23438,-0.41015 0.58594,-0.99609 1.36719,-2.26563 2.92969,-3.69141 1.5625,-1.44531 3.00781,-2.07031 1.64062,-0.78125 2.69531,-0.83984 0.50781,-0.0195 1.21094,0.0586 0.70312,0.0781 1.34765,0.29297 0.64454,0.21484 1.09375,0.5664 0.46875,0.33204 0.46875,0.82032 z"
         style="font-style:normal;font-variant:normal;font-weight:normal;font-stretch:normal;font-family:'Segoe Script';-inkscape-font-specification:'Segoe Script';fill:none;stroke:#000000;stroke-width:2.70000005;stroke-miterlimit:4;stroke-dasharray:none;stroke-opacity:1"
         id="path4838" />
      <path
         d="m 758.37086,373.13773 q 0,1.26953 -0.66406,2.16796 -0.64453,0.89844 -1.89453,0.89844 -0.78125,0 -1.73828,-0.23437 -0.9375,-0.23438 -0.9375,-0.76172 0,-0.95703 0.58594,-1.81641 0.60547,-0.8789 1.44531,-1.42578 0.66406,-0.39062 0.87891,-0.39062 1.11328,0 1.71875,0.3125 0.60546,0.29296 0.60546,1.25 z m 12.79297,15.8789 q 0.0195,0.41016 -0.37109,1.11328 -0.37109,0.70313 -1.03516,1.60157 -0.64453,0.8789 -1.52343,1.89453 -0.85938,1.01562 -1.81641,2.03125 -1.09375,1.17187 -2.32422,2.26562 -1.21094,1.07422 -2.59766,2.08985 -2.73437,2.03125 -4.88281,2.03125 -2.36328,0 -3.67187,-1.58204 -1.3086,-1.60156 -1.77735,-3.86718 -0.46875,-2.2461 -0.46875,-4.62891 0,-0.99609 0.23438,-3.10547 0.11719,-1.05469 0.23437,-1.8164 0.11719,-0.76172 0.25391,-1.23047 0.27344,-0.91797 1.15234,-1.60157 0.89844,-0.72265 1.875,-0.72265 0.52735,0 0.52735,0.99609 0,0.66406 -0.13672,1.50391 -0.11719,0.83984 -0.25391,1.66015 -0.2539,1.54297 -0.37109,2.77344 -0.11719,1.21094 -0.11719,2.10938 0,1.97265 0.54688,3.98437 0.54687,2.05078 1.97265,2.05078 1.44531,0 3.35938,-1.05468 0.95703,-0.54688 1.91406,-1.21094 0.95703,-0.66406 1.91406,-1.48438 0.97656,-0.82031 1.875,-1.64062 0.89844,-0.83985 1.75781,-1.71875 0.85938,-0.87891 1.54297,-1.64063 0.6836,-0.76172 1.19141,-1.40625 0.0195,-0.0391 0.0586,-0.11718 0.0586,-0.0977 0.11719,-0.17579 0.0586,-0.0977 0.11719,-0.15625 0.0586,-0.0586 0.11719,-0.0391 0.27343,0 0.41015,0.42969 0.17578,0.41016 0.17578,0.66406 z"
         style="font-style:normal;font-variant:normal;font-weight:normal;font-stretch:normal;font-family:'Segoe Script';-inkscape-font-specification:'Segoe Script';fill:none;stroke:#000000;stroke-width:2.70000005;stroke-miterlimit:4;stroke-dasharray:none;stroke-opacity:1"
         id="path4840" />
      <path
         d="m 803.9568,384.52444 q 0,0.72266 -0.39062,1.11329 -0.39063,0.37109 -0.89844,0.66406 -0.64453,0.29297 -1.44531,0.52734 -0.78125,0.23438 -1.6211,0.42969 -0.82031,0.17578 -1.66015,0.3125 -0.83985,0.11719 -1.60157,0.19531 -0.82031,0.0781 -1.73828,0.15625 -0.91797,0.0781 -1.77734,0.17578 -0.85938,0.0781 -1.60156,0.19532 -0.72266,0.11718 -1.17188,0.29296 -0.21484,0.87891 -0.50781,2.10938 -0.29297,1.21094 -0.56641,2.55859 -0.2539,1.34766 -0.44922,2.73438 -0.19531,1.36719 -0.19531,2.57812 0,0.39063 0.0586,0.83985 0.0586,0.42968 0.19531,0.82031 0.13672,0.37109 0.35156,0.625 0.23438,0.25391 0.54688,0.25391 0.9375,0 1.8164,-0.3711 0.87891,-0.37109 1.60156,-0.74219 0.72266,-0.39062 1.23047,-0.5664 0.52735,-0.19531 0.74219,0.17578 0.0586,0.11719 -0.17578,0.52734 -0.23438,0.39063 -0.70313,0.91797 -0.46875,0.52735 -1.13281,1.11328 -0.66406,0.58594 -1.46484,1.07422 -0.78125,0.48828 -1.66016,0.80078 -0.8789,0.33203 -1.77734,0.33203 -0.56641,0 -1.15235,-0.29296 -0.5664,-0.29297 -1.03515,-0.80079 -0.46875,-0.48828 -0.76172,-1.11328 -0.29297,-0.625 -0.29297,-1.30859 0,-1.83594 0.39063,-3.86719 0.41015,-2.05078 0.85937,-4.29687 0.0977,-0.46875 0.21484,-1.05469 0.13672,-0.58594 0.25391,-1.11328 0.11719,-0.52735 0.19531,-0.89844 0.0781,-0.39062 0.0781,-0.44922 0,-0.21484 -0.29297,-0.46875 -0.27344,-0.2539 -0.58594,-0.39062 -0.48828,-0.0391 -0.85937,-0.0586 -0.3711,-0.0391 -0.54688,-0.0391 -1.99219,0 -3.86719,-0.13672 -1.875,-0.15625 -3.35937,-0.3125 -1.46484,-0.17578 -2.36328,-0.27344 -0.89844,-0.0977 -0.91797,-0.0195 -0.21484,0.83985 -0.52734,2.10938 -0.3125,1.26953 -0.60547,2.59765 -0.27344,1.3086 -0.48828,2.48047 -0.19532,1.17188 -0.19532,1.83594 0,0.41016 0.0586,0.99609 0.0586,0.58594 0.27343,1.13282 0.23438,0.52734 0.66407,0.89843 0.42968,0.3711 1.17187,0.3711 0.19531,0 0.60547,-0.13672 0.42969,-0.15625 0.9375,-0.42969 0.52734,-0.29297 1.07422,-0.68359 0.56641,-0.39063 1.03516,-0.87891 0.37109,-0.37109 0.80078,-0.70312 0.44922,-0.35157 0.95703,-0.35157 0.72265,0 0.72265,0.6836 0,0.35156 -0.13671,0.68359 -0.11719,0.3125 -0.33204,0.64453 -0.19531,0.3125 -0.46875,0.64453 -0.2539,0.3125 -0.54687,0.66407 -0.23438,0.29297 -0.83984,0.78125 -0.58594,0.48828 -1.38672,0.95703 -0.78125,0.48828 -1.66016,0.83984 -0.87891,0.35156 -1.67969,0.35156 -1.15234,0 -1.93359,-0.33203 -0.76172,-0.33203 -1.25,-0.8789 -0.48828,-0.54688 -0.76172,-1.23047 -0.25391,-0.70313 -0.37109,-1.40625 -0.11719,-0.70313 -0.13672,-1.36719 0,-0.68359 0,-1.17187 0,-0.60547 0.11719,-1.38672 0.11718,-0.80078 0.29296,-1.67969 0.19532,-0.87891 0.41016,-1.77734 0.21484,-0.91797 0.39063,-1.73829 0.19531,-0.83984 0.3125,-1.52343 0.11718,-0.6836 0.11718,-1.13282 0,-0.2539 -0.2539,-0.35156 -0.23438,-0.0977 -0.64453,-0.13672 -0.39063,-0.0391 -0.91797,-0.0586 -0.50782,-0.0195 -1.05469,-0.11719 -0.35156,-0.0586 -0.66406,-0.17578 -0.3125,-0.11719 -0.56641,-0.3125 -0.23437,-0.21484 -0.39062,-0.52734 -0.13672,-0.33203 -0.13672,-0.82032 0,-0.60546 0.3125,-0.83984 0.33203,-0.23437 0.78125,-0.23437 0.11718,0 0.64453,0.0781 0.52734,0.0586 1.21094,0.13672 0.68359,0.0586 1.38671,0.13672 0.70313,0.0586 1.17188,0.0586 0.11719,-0.0586 0.3125,-0.42969 0.19531,-0.37109 0.44922,-0.95703 0.2539,-0.58593 0.52734,-1.30859 0.27344,-0.74219 0.54688,-1.50391 0.29297,-0.78125 0.54687,-1.54297 0.25391,-0.78125 0.46875,-1.42578 0.33203,-1.05468 0.78125,-1.5039 0.44922,-0.44922 1.13281,-0.44922 0.44922,0 0.74219,0.17578 0.3125,0.15625 0.48828,0.41016 0.17578,0.23437 0.25391,0.50781 0.0781,0.27344 0.0781,0.50781 0,0.0781 -0.17578,0.56641 -0.15625,0.46875 -0.42968,1.1914 -0.25391,0.72266 -0.58594,1.60157 -0.3125,0.85937 -0.64453,1.71875 -0.3125,0.85937 -0.58594,1.62109 -0.27344,0.76172 -0.44922,1.25 1.50391,0.15625 3.06641,0.29297 1.5625,0.13672 3.0664,0.2539 1.50391,0.0977 2.89063,0.17579 1.40625,0.0586 2.61719,0.0586 0.42968,-0.13672 0.74218,-0.33203 0.33203,-0.19531 0.41016,-0.52735 0.13672,-0.60546 0.29297,-1.30859 0.17578,-0.72266 0.33203,-1.44531 0.17578,-0.74219 0.33203,-1.44531 0.15625,-0.70313 0.29297,-1.26954 0.17578,-0.54687 0.29297,-1.17187 0.13672,-0.625 0.23437,-1.25 0.11719,-0.625 0.25391,-1.21094 0.13672,-0.58594 0.35156,-1.07422 0.42969,-1.01562 1.38672,-1.01562 1.44531,0 1.44531,1.60156 0,0.99609 -0.42968,2.28516 -0.9375,2.96875 -1.38672,4.90234 -0.44922,1.91406 -0.44922,2.57813 0,0.72265 0.72265,0.72265 0.87891,0 1.64063,-0.0195 0.78125,-0.0391 1.5625,-0.0977 0.80078,-0.0781 1.67969,-0.17578 0.8789,-0.0976 1.97265,-0.21484 0.78125,-0.0977 1.48438,-0.23438 0.72265,-0.13671 1.32812,-0.2539 0.60547,-0.13672 1.07422,-0.25391 0.46875,-0.11719 0.78125,-0.15625 0.21485,-0.0195 0.41016,-0.0586 0.21484,-0.0391 0.35156,0 0.15625,0.0195 0.23438,0.15625 0.0977,0.11719 0.0977,0.41015 z"
         style="font-style:normal;font-variant:normal;font-weight:normal;font-stretch:normal;font-family:'Segoe Script';-inkscape-font-specification:'Segoe Script';fill:none;stroke:#000000;stroke-width:2.70000005;stroke-miterlimit:4;stroke-dasharray:none;stroke-opacity:1"
         id="path4842" />
      <path
         d="m 822.41383,388.25491 q 0,0.29297 -0.42968,1.03516 -1.01563,1.46484 -2.28516,2.92969 -1.25,1.46484 -2.67578,2.79297 -1.40625,1.30859 -2.94922,2.46093 -1.52344,1.13282 -3.08594,1.97266 -1.5625,0.82031 -3.125,1.26953 -1.54297,0.44922 -2.98828,0.42969 -3.125,0 -4.86328,-1.81641 -1.71875,-1.8164 -1.71875,-5.48828 0,-3.06641 0.9375,-5.95703 0.95703,-2.89063 3.24219,-5.56641 0.42968,-0.46875 0.95703,-0.89843 0.54687,-0.42969 1.13281,-0.76172 0.60547,-0.33203 1.23047,-0.52735 0.64453,-0.19531 1.28906,-0.23437 0.15625,0 0.42969,0.0391 0.27344,0.0391 0.58594,0.13672 0.3125,0.0977 0.60547,0.25391 0.29296,0.13671 0.46875,0.35156 0.54687,0.625 0.85937,1.28906 0.33203,0.66406 0.37109,1.46484 0.0391,0.89844 -0.21484,1.77735 -0.23437,0.85937 -0.82031,1.77734 -0.56641,0.89844 -1.50391,1.875 -0.9375,0.95703 -2.26562,2.07031 -0.83985,0.70313 -1.875,1.5625 -1.01563,0.83985 -2.46094,1.77735 0,1.89453 1.13281,2.89062 1.15235,0.97657 3.14453,0.97657 1.11328,0 2.2461,-0.29297 1.13281,-0.29297 2.22656,-0.76172 1.09375,-0.48828 2.10937,-1.09375 1.03516,-0.625 1.9336,-1.26953 1.66015,-1.21094 3.00781,-2.40235 1.34766,-1.21093 2.67578,-2.53906 l 1.05469,-1.05469 q 0.95703,-0.83984 1.38672,-0.83984 0.23437,0 0.23437,0.37109 z m -14.92187,-3.88672 q -0.0195,-0.29296 -0.0977,-0.5664 -0.0586,-0.29297 -0.19531,-0.50781 -0.13672,-0.21485 -0.3125,-0.33204 -0.17578,-0.13671 -0.41016,-0.13671 -1.03515,0.0586 -2.07031,1.26953 -1.03516,1.1914 -1.95312,3.16406 -0.21485,0.42969 -0.39063,0.97656 -0.15625,0.52735 -0.3125,1.09375 -0.13672,0.54688 -0.25391,1.09375 -0.0977,0.54688 -0.17578,0.97656 1.01563,-0.76171 1.875,-1.40625 0.85938,-0.64453 1.60157,-1.32812 0.46875,-0.42969 0.95703,-0.91797 0.48828,-0.50781 0.8789,-1.05469 0.41016,-0.54687 0.64453,-1.13281 0.23438,-0.58594 0.21485,-1.19141 z"
         style="font-style:normal;font-variant:normal;font-weight:normal;font-stretch:normal;font-family:'Segoe Script';-inkscape-font-specification:'Segoe Script';fill:none;stroke:#000000;stroke-width:2.70000005;stroke-miterlimit:4;stroke-dasharray:none;stroke-opacity:1"
         id="path4844" />
      <path
         d="m 853.13649,387.76663 q 0,0.3711 -0.13672,0.76172 -0.11719,0.37109 -0.3125,0.76172 -0.17578,0.37109 -0.41016,0.74219 -0.23437,0.35156 -0.44921,0.68359 -0.56641,0.87891 -1.32813,1.79688 -0.76172,0.89843 -1.64062,1.75781 -0.85938,0.85937 -1.77735,1.62109 -0.91797,0.76172 -1.79687,1.34766 -0.70313,0.46875 -1.34766,0.8789 -0.625,0.41016 -1.26953,0.70313 -0.64453,0.29297 -1.34766,0.46875 -0.70312,0.17578 -1.54297,0.17578 -1.62109,0 -2.63671,-0.82031 -0.50782,-0.41016 -0.89844,-1.05469 -0.3711,-0.66406 -0.66406,-1.46484 -0.27344,-0.80078 -0.48829,-1.69922 -0.19531,-0.89844 -0.33203,-1.77735 -0.17578,-1.09375 -0.33203,-1.95312 -0.15625,-0.87891 -0.37109,-1.46484 -0.19531,-0.60547 -0.48828,-0.91797 -0.29297,-0.33203 -0.76172,-0.33203 -0.3711,0 -0.70313,0.0781 -0.33203,0.0781 -0.70312,0.3125 -0.35156,0.23438 -0.78125,0.66406 -0.42969,0.42969 -1.01563,1.13282 -0.5664,0.70312 -1.30859,1.71875 -0.74219,1.01562 -1.73828,2.42187 -0.48828,0.68359 -1.15235,1.50391 -0.66406,0.82031 -1.36718,1.5625 -0.6836,0.74218 -1.34766,1.30859 -0.66406,0.56641 -1.17187,0.72266 -1.71875,-0.3711 -1.71875,-4.27735 0,-1.03515 0.23437,-3.14453 0.11719,-0.95703 0.27344,-1.99219 0.15625,-1.05468 0.39062,-2.08984 0.23438,-1.05469 0.52735,-2.03125 0.3125,-0.99609 0.72265,-1.83594 0.19532,-0.39062 0.41016,-0.60547 0.21484,-0.23437 0.42969,-0.33203 0.23437,-0.11718 0.46875,-0.13672 0.2539,-0.0391 0.50781,-0.0391 0.3125,0 0.54687,0.42969 0.25391,0.42969 0.25391,1.19141 0,0.46875 -0.0781,0.8789 -0.0781,0.41016 -0.21485,0.83985 -0.13672,0.42968 -0.29297,0.9375 -0.15625,0.48828 -0.3125,1.13281 -0.11718,0.52734 -0.27343,1.17187 -0.13672,0.64453 -0.27344,1.3086 -0.11719,0.66406 -0.21485,1.30859 -0.0781,0.625 -0.0781,1.13281 0,0.35157 0.11719,0.72266 0.54687,-0.0586 1.79687,-1.64063 0.64453,-0.80078 1.40625,-1.75781 0.78125,-0.95703 1.67969,-2.10937 0.66406,-0.85938 1.30859,-1.60157 0.66407,-0.74218 1.36719,-1.28906 0.70313,-0.5664 1.48438,-0.8789 0.80078,-0.33204 1.75781,-0.33204 1.01562,0 1.67969,0.44922 0.68359,0.42969 1.09375,1.21094 0.41015,0.76172 0.625,1.83594 0.23437,1.07422 0.37109,2.36328 0.11719,1.09375 0.21484,2.16797 0.11719,1.07422 0.42969,1.93359 0.3125,0.83985 0.89844,1.36719 0.58594,0.52734 1.67969,0.52734 0.83984,0 1.75781,-0.39062 0.91797,-0.39063 1.93359,-1.07422 1.01563,-0.70313 2.08985,-1.64063 1.09375,-0.9375 2.24609,-2.05078 0.44922,-0.42968 0.97656,-1.07422 0.54688,-0.66406 1.05469,-1.26953 0.52734,-0.60547 0.97656,-1.03515 0.44922,-0.42969 0.72266,-0.42969 0.11719,0 0.37109,0.11719 0.27344,0.11718 0.27344,0.39062 z"
         style="font-style:normal;font-variant:normal;font-weight:normal;font-stretch:normal;font-family:'Segoe Script';-inkscape-font-specification:'Segoe Script';fill:none;stroke:#000000;stroke-width:2.70000005;stroke-miterlimit:4;stroke-dasharray:none;stroke-opacity:1"
         id="path4846" />
      <path
         d="m 886.30055,384.52444 q 0,0.72266 -0.39062,1.11329 -0.39063,0.37109 -0.89844,0.66406 -0.64453,0.29297 -1.44531,0.52734 -0.78125,0.23438 -1.6211,0.42969 -0.82031,0.17578 -1.66015,0.3125 -0.83985,0.11719 -1.60157,0.19531 -0.82031,0.0781 -1.73828,0.15625 -0.91797,0.0781 -1.77734,0.17578 -0.85938,0.0781 -1.60156,0.19532 -0.72266,0.11718 -1.17188,0.29296 -0.41015,1.77735 -0.8789,3.39844 -0.44922,1.60156 -0.76172,3.20313 -0.0781,0.37109 -0.21485,1.11328 -0.11718,0.74219 -0.23437,1.5625 -0.11719,0.80078 -0.21485,1.52344 -0.0781,0.70312 -0.0781,1.01562 0,0.80078 0.25391,1.21094 0.2539,0.39062 0.54687,0.625 0.3125,0.2539 0.56641,0.46875 0.2539,0.21484 0.2539,0.64453 0,0.27344 -0.27343,0.52734 -0.25391,0.25391 -0.625,0.44922 -0.3711,0.19531 -0.80079,0.29297 -0.41015,0.11719 -0.72265,0.11719 -0.56641,0 -1.01563,-0.3125 -0.44922,-0.3125 -0.76172,-0.82031 -0.3125,-0.48829 -0.48828,-1.13282 -0.17578,-0.64453 -0.17578,-1.32812 0,-0.89844 0.15625,-1.91406 0.15625,-1.03516 0.39063,-2.10938 0.23437,-1.07422 0.48828,-2.1875 0.27344,-1.13281 0.50781,-2.24609 0.0977,-0.46875 0.19531,-0.95703 0.11719,-0.50782 0.19532,-0.9375 0.0977,-0.44922 0.15625,-0.74219 0.0586,-0.29297 0.0586,-0.35156 0,-0.3125 -0.23438,-0.46875 -0.21484,-0.17579 -0.52734,-0.17579 -0.23437,0 -0.70312,0.0391 -0.46875,0.0391 -0.9961,0.0976 -0.50781,0.0586 -0.97656,0.0977 -0.46875,0.0391 -0.68359,0.0391 -0.70313,0 -1.19141,-0.0781 -0.48828,-0.0977 -0.80078,-0.33203 -0.29297,-0.23438 -0.42969,-0.64454 -0.15625,-0.42968 -0.15625,-1.09375 0,-0.27343 0.25391,-0.42968 0.2539,-0.15625 0.60547,-0.21485 0.37109,-0.0781 0.78125,-0.0781 0.41015,-0.0195 0.72265,-0.0195 0.25391,0 0.82031,-0.0391 0.58594,-0.0586 1.21094,-0.11718 0.64453,-0.0586 1.21094,-0.0977 0.58594,-0.0586 0.83984,-0.0586 0.11719,0 0.27344,-0.0195 0.15625,-0.0195 0.3125,-0.0977 0.17578,-0.0977 0.3125,-0.29297 0.13672,-0.21484 0.23438,-0.58594 0.13671,-0.60547 0.33203,-1.40625 0.19531,-0.82031 0.39062,-1.66015 0.21485,-0.85938 0.41016,-1.64063 0.19531,-0.80078 0.33203,-1.36719 0.17578,-0.54687 0.29297,-1.17187 0.13672,-0.625 0.23437,-1.25 0.11719,-0.625 0.25391,-1.21094 0.13672,-0.58594 0.35156,-1.07422 0.42969,-1.01562 1.38672,-1.01562 1.44531,0 1.44531,1.60156 0,0.99609 -0.42968,2.28516 -0.9375,2.96875 -1.38672,4.90234 -0.44922,1.91406 -0.44922,2.57813 0,0.72265 0.72265,0.72265 0.87891,0 1.64063,-0.0195 0.78125,-0.0391 1.5625,-0.0977 0.80078,-0.0781 1.67969,-0.17578 0.8789,-0.0976 1.97265,-0.21484 0.78125,-0.0977 1.48438,-0.23438 0.72265,-0.13671 1.32812,-0.2539 0.60547,-0.13672 1.07422,-0.25391 0.46875,-0.11719 0.78125,-0.15625 0.21485,-0.0195 0.41016,-0.0586 0.21484,-0.0391 0.35156,0 0.15625,0.0195 0.23438,0.15625 0.0977,0.11719 0.0977,0.41015 z"
         style="font-style:normal;font-variant:normal;font-weight:normal;font-stretch:normal;font-family:'Segoe Script';-inkscape-font-specification:'Segoe Script';fill:none;stroke:#000000;stroke-width:2.70000005;stroke-miterlimit:4;stroke-dasharray:none;stroke-opacity:1"
         id="path4848" />
      <path
         d="m 904.75758,388.25491 q 0,0.29297 -0.42968,1.03516 -1.01563,1.46484 -2.28516,2.92969 -1.25,1.46484 -2.67578,2.79297 -1.40625,1.30859 -2.94922,2.46093 -1.52344,1.13282 -3.08594,1.97266 -1.5625,0.82031 -3.125,1.26953 -1.54297,0.44922 -2.98828,0.42969 -3.125,0 -4.86328,-1.81641 -1.71875,-1.8164 -1.71875,-5.48828 0,-3.06641 0.9375,-5.95703 0.95703,-2.89063 3.24219,-5.56641 0.42968,-0.46875 0.95703,-0.89843 0.54687,-0.42969 1.13281,-0.76172 0.60547,-0.33203 1.23047,-0.52735 0.64453,-0.19531 1.28906,-0.23437 0.15625,0 0.42969,0.0391 0.27344,0.0391 0.58594,0.13672 0.3125,0.0977 0.60547,0.25391 0.29296,0.13671 0.46875,0.35156 0.54687,0.625 0.85937,1.28906 0.33203,0.66406 0.37109,1.46484 0.0391,0.89844 -0.21484,1.77735 -0.23437,0.85937 -0.82031,1.77734 -0.56641,0.89844 -1.50391,1.875 -0.9375,0.95703 -2.26562,2.07031 -0.83985,0.70313 -1.875,1.5625 -1.01563,0.83985 -2.46094,1.77735 0,1.89453 1.13281,2.89062 1.15235,0.97657 3.14453,0.97657 1.11328,0 2.2461,-0.29297 1.13281,-0.29297 2.22656,-0.76172 1.09375,-0.48828 2.10937,-1.09375 1.03516,-0.625 1.9336,-1.26953 1.66015,-1.21094 3.00781,-2.40235 1.34766,-1.21093 2.67578,-2.53906 l 1.05469,-1.05469 q 0.95703,-0.83984 1.38672,-0.83984 0.23437,0 0.23437,0.37109 z m -14.92187,-3.88672 q -0.0195,-0.29296 -0.0977,-0.5664 -0.0586,-0.29297 -0.19531,-0.50781 -0.13672,-0.21485 -0.3125,-0.33204 -0.17578,-0.13671 -0.41016,-0.13671 -1.03515,0.0586 -2.07031,1.26953 -1.03516,1.1914 -1.95312,3.16406 -0.21485,0.42969 -0.39063,0.97656 -0.15625,0.52735 -0.3125,1.09375 -0.13672,0.54688 -0.25391,1.09375 -0.0977,0.54688 -0.17578,0.97656 1.01563,-0.76171 1.875,-1.40625 0.85938,-0.64453 1.60157,-1.32812 0.46875,-0.42969 0.95703,-0.91797 0.48828,-0.50781 0.8789,-1.05469 0.41016,-0.54687 0.64453,-1.13281 0.23438,-0.58594 0.21485,-1.19141 z"
         style="font-style:normal;font-variant:normal;font-weight:normal;font-stretch:normal;font-family:'Segoe Script';-inkscape-font-specification:'Segoe Script';fill:none;stroke:#000000;stroke-width:2.70000005;stroke-miterlimit:4;stroke-dasharray:none;stroke-opacity:1"
         id="path4850" />
      <path
         d="m 932.27711,387.53226 q 0,0.52734 -0.80078,1.95312 -0.39062,0.6836 -0.76172,1.25 -0.35156,0.54688 -0.66406,0.95703 -2.5,3.20313 -4.14062,5.01953 -1.6211,1.79688 -3.63282,3.06641 -1.99218,1.23047 -4.23828,1.23047 -1.58203,0 -3.4375,-1.15234 -1.83593,-1.17188 -4.14062,-3.28125 -0.82031,0.64453 -1.46485,1.34765 -0.64453,0.6836 -1.15234,1.34766 -0.48828,0.64453 -0.83984,1.26953 -0.33203,0.60547 -0.52735,1.09375 -0.19531,0.48828 -0.41015,1.05469 -0.21485,0.58593 -0.44922,1.26953 -0.42969,1.34765 -0.85938,1.93359 -1.28906,-0.0586 -1.99218,-0.68359 -0.6836,-0.625 -0.6836,-1.875 0,-0.52735 0.15625,-1.07422 0.15625,-0.54688 0.42969,-1.09375 0.29297,-0.54688 0.64453,-1.07422 0.37109,-0.54687 0.78125,-1.03516 0.52734,-0.625 1.5625,-1.77734 1.05469,-1.15234 2.57813,-2.53906 -0.35157,-0.3711 -0.80079,-0.89844 -0.42968,-0.52734 -0.85937,-1.09375 -0.42969,-0.58594 -0.80078,-1.13281 -0.3711,-0.56641 -0.60547,-0.97656 -0.85938,-1.54297 -1.21094,-2.5586 -0.35156,-1.03515 -0.35156,-1.875 0,-0.42969 0.13672,-0.82031 0.15625,-0.39063 0.44922,-0.68359 0.3125,-0.3125 0.76172,-0.48829 0.44921,-0.19531 1.05468,-0.19531 0.52735,0 0.82032,0.33203 0.29296,0.33203 0.42968,0.76172 0.0586,0.23438 0.0977,0.56641 0.0586,0.3125 0.0977,0.66406 0.0391,0.33203 0.0781,0.66406 0.0586,0.33203 0.11719,0.56641 0.37109,1.60156 1.01562,2.67578 0.66407,1.07422 1.89453,2.24609 1.64063,-1.54296 2.92969,-3.04687 0.66406,-0.74219 1.19141,-1.64063 0.52734,-0.91796 0.95703,-1.99218 0.23437,-0.50782 0.41016,-0.82032 0.17578,-0.33203 0.35156,-0.52734 0.19531,-0.19531 0.41015,-0.25391 0.21485,-0.0781 0.50782,-0.0781 0.33203,0 0.70312,0.15625 0.3711,0.15625 0.66406,0.42969 0.3125,0.2539 0.50782,0.625 0.21484,0.35156 0.21484,0.78125 0,0.5664 -0.72266,1.64062 -0.58593,0.76172 -1.17187,1.36719 -0.56641,0.60547 -1.23047,1.40625 -0.68359,0.87891 -1.54297,1.83594 -0.83984,0.95703 -1.89453,2.07031 0.52734,0.52734 1.30859,1.13281 0.80079,0.58594 1.67969,1.11328 0.89844,0.50782 1.77735,0.85938 0.89843,0.33203 1.64062,0.33203 1.54297,0 3.06641,-1.07422 1.54297,-1.07422 3.41797,-3.08594 0.83984,-0.89843 1.73828,-1.97265 0.89843,-1.07422 1.875,-2.32422 1.93359,-2.5 2.1875,-2.5 0.33203,0 0.52734,0.17578 0.21484,0.15625 0.21484,0.42969 z"
         style="font-style:normal;font-variant:normal;font-weight:normal;font-stretch:normal;font-family:'Segoe Script';-inkscape-font-specification:'Segoe Script';fill:none;stroke:#000000;stroke-width:2.70000005;stroke-miterlimit:4;stroke-dasharray:none;stroke-opacity:1"
         id="path4852" />
      <path
         d="m 949.42555,384.52444 q 0,0.72266 -0.39062,1.11329 -0.39063,0.37109 -0.89844,0.66406 -0.64453,0.29297 -1.44531,0.52734 -0.78125,0.23438 -1.6211,0.42969 -0.82031,0.17578 -1.66015,0.3125 -0.83985,0.11719 -1.60157,0.19531 -0.82031,0.0781 -1.73828,0.15625 -0.91797,0.0781 -1.77734,0.17578 -0.85938,0.0781 -1.60156,0.19532 -0.72266,0.11718 -1.17188,0.29296 -0.41015,1.77735 -0.8789,3.39844 -0.44922,1.60156 -0.76172,3.20313 -0.0781,0.37109 -0.21485,1.11328 -0.11718,0.74219 -0.23437,1.5625 -0.11719,0.80078 -0.21485,1.52344 -0.0781,0.70312 -0.0781,1.01562 0,0.80078 0.25391,1.21094 0.2539,0.39062 0.54687,0.625 0.3125,0.2539 0.56641,0.46875 0.2539,0.21484 0.2539,0.64453 0,0.27344 -0.27343,0.52734 -0.25391,0.25391 -0.625,0.44922 -0.3711,0.19531 -0.80079,0.29297 -0.41015,0.11719 -0.72265,0.11719 -0.56641,0 -1.01563,-0.3125 -0.44922,-0.3125 -0.76172,-0.82031 -0.3125,-0.48829 -0.48828,-1.13282 -0.17578,-0.64453 -0.17578,-1.32812 0,-0.89844 0.15625,-1.91406 0.15625,-1.03516 0.39063,-2.10938 0.23437,-1.07422 0.48828,-2.1875 0.27344,-1.13281 0.50781,-2.24609 0.0977,-0.46875 0.19531,-0.95703 0.11719,-0.50782 0.19532,-0.9375 0.0977,-0.44922 0.15625,-0.74219 0.0586,-0.29297 0.0586,-0.35156 0,-0.3125 -0.23438,-0.46875 -0.21484,-0.17579 -0.52734,-0.17579 -0.23437,0 -0.70312,0.0391 -0.46875,0.0391 -0.9961,0.0976 -0.50781,0.0586 -0.97656,0.0977 -0.46875,0.0391 -0.68359,0.0391 -0.70313,0 -1.19141,-0.0781 -0.48828,-0.0977 -0.80078,-0.33203 -0.29297,-0.23438 -0.42969,-0.64454 -0.15625,-0.42968 -0.15625,-1.09375 0,-0.27343 0.25391,-0.42968 0.2539,-0.15625 0.60547,-0.21485 0.37109,-0.0781 0.78125,-0.0781 0.41015,-0.0195 0.72265,-0.0195 0.25391,0 0.82031,-0.0391 0.58594,-0.0586 1.21094,-0.11718 0.64453,-0.0586 1.21094,-0.0977 0.58594,-0.0586 0.83984,-0.0586 0.11719,0 0.27344,-0.0195 0.15625,-0.0195 0.3125,-0.0977 0.17578,-0.0977 0.3125,-0.29297 0.13672,-0.21484 0.23438,-0.58594 0.13671,-0.60547 0.33203,-1.40625 0.19531,-0.82031 0.39062,-1.66015 0.21485,-0.85938 0.41016,-1.64063 0.19531,-0.80078 0.33203,-1.36719 0.17578,-0.54687 0.29297,-1.17187 0.13672,-0.625 0.23437,-1.25 0.11719,-0.625 0.25391,-1.21094 0.13672,-0.58594 0.35156,-1.07422 0.42969,-1.01562 1.38672,-1.01562 1.44531,0 1.44531,1.60156 0,0.99609 -0.42968,2.28516 -0.9375,2.96875 -1.38672,4.90234 -0.44922,1.91406 -0.44922,2.57813 0,0.72265 0.72265,0.72265 0.87891,0 1.64063,-0.0195 0.78125,-0.0391 1.5625,-0.0977 0.80078,-0.0781 1.67969,-0.17578 0.8789,-0.0976 1.97265,-0.21484 0.78125,-0.0977 1.48438,-0.23438 0.72265,-0.13671 1.32812,-0.2539 0.60547,-0.13672 1.07422,-0.25391 0.46875,-0.11719 0.78125,-0.15625 0.21485,-0.0195 0.41016,-0.0586 0.21484,-0.0391 0.35156,0 0.15625,0.0195 0.23438,0.15625 0.0977,0.11719 0.0977,0.41015 z"
         style="font-style:normal;font-variant:normal;font-weight:normal;font-stretch:normal;font-family:'Segoe Script';-inkscape-font-specification:'Segoe Script';fill:none;stroke:#000000;stroke-width:2.70000005;stroke-miterlimit:4;stroke-dasharray:none;stroke-opacity:1"
         id="path4854" />
      <path
         d="m 950.24586,401.73148 -4.66796,0 0,-5.56641 4.66796,0 0,5.56641 z"
         style=""
         id="path4856" />
    </g>
  </g>
</svg>
