<?xml version="1.0" encoding="UTF-8" standalone="no"?>
<!-- Created with Inkscape (http://www.inkscape.org/) -->

<svg
   xmlns:dc="http://purl.org/dc/elements/1.1/"
   xmlns:cc="http://creativecommons.org/ns#"
   xmlns:rdf="http://www.w3.org/1999/02/22-rdf-syntax-ns#"
   xmlns:svg="http://www.w3.org/2000/svg"
   xmlns="http://www.w3.org/2000/svg"
   xmlns:sodipodi="http://sodipodi.sourceforge.net/DTD/sodipodi-0.dtd"
   xmlns:inkscape="http://www.inkscape.org/namespaces/inkscape"
   width="297mm"
   height="210mm"
   viewBox="0 0 1052.3622 744.09448"
   id="svg2"
   version="1.1"
   inkscape:version="0.91 r13725"
   sodipodi:docname="text1.svg">
  <defs
     id="defs4" />
  <sodipodi:namedview
     id="base"
     pagecolor="#ffffff"
     bordercolor="#666666"
     borderopacity="1.0"
     inkscape:pageopacity="0.0"
     inkscape:pageshadow="2"
     inkscape:zoom="0.73377778"
     inkscape:cx="526.1811"
     inkscape:cy="372.04724"
     inkscape:document-units="px"
     inkscape:current-layer="text4254"
     showgrid="false"
     inkscape:window-width="1366"
     inkscape:window-height="705"
     inkscape:window-x="-8"
     inkscape:window-y="-8"
     inkscape:window-maximized="1" />
  <metadata
     id="metadata7">
    <rdf:RDF>
      <cc:Work
         rdf:about="">
        <dc:format>image/svg+xml</dc:format>
        <dc:type
           rdf:resource="http://purl.org/dc/dcmitype/StillImage" />
        <dc:title></dc:title>
      </cc:Work>
    </rdf:RDF>
  </metadata>
  <g
     inkscape:label="Layer 1"
     inkscape:groupmode="layer"
     id="layer1"
     transform="translate(0,-308.26772)">
    <g
       style="font-style:normal;font-weight:normal;font-size:40px;line-height:125%;font-family:sans-serif;letter-spacing:0px;word-spacing:0px;fill:none;fill-opacity:1;stroke:#000000;stroke-width:2.79999995;stroke-linecap:butt;stroke-linejoin:miter;stroke-miterlimit:4;stroke-dasharray:none;stroke-opacity:1"
       id="text4136">
      <g
         transform="scale(0.81069875,1.2335038)"
         style="font-style:normal;font-weight:normal;font-size:63.33548355px;line-height:125%;font-family:sans-serif;letter-spacing:0px;word-spacing:0px;fill:none;fill-opacity:1;stroke:#000000;stroke-width:4.5;stroke-linecap:butt;stroke-linejoin:miter;stroke-miterlimit:4;stroke-dasharray:none;stroke-opacity:1"
         id="text4193">
        <g
           transform="scale(1.2268335,0.81510655)"
           style="font-style:normal;font-weight:normal;font-size:68.79193878px;line-height:125%;font-family:sans-serif;letter-spacing:0px;word-spacing:0px;fill:none;fill-opacity:1;stroke:#000000;stroke-width:4.93376637;stroke-linecap:butt;stroke-linejoin:miter;stroke-miterlimit:4;stroke-dasharray:none;stroke-opacity:1"
           id="text4254">
          <path
             d="m 459.21373,435.62155 -4.67786,0.75671 c -0.20637,-0.20637 -0.68792,-0.41275 -1.16946,-0.41275 -1.51342,0 -2.75168,1.23826 -2.75168,2.95806 0,2.06375 1.10067,3.16442 2.75168,3.23322 0.61913,-0.0688 1.03188,-0.27517 1.37584,-0.61913 l 4.47148,-0.68792 0,19.88087 c 0,3.30201 1.99496,5.77852 5.36577,5.77852 6.19127,0 17.8859,-9.42449 17.8859,-12.10738 0,-1.92617 -0.75671,-3.30201 -3.50839,-3.30201 -1.651,0 -2.68288,1.16946 -2.61409,2.68288 -2.82047,3.50839 -8.18624,6.53524 -9.56208,6.53524 -0.8255,0 -1.16946,-0.8255 -1.16946,-1.92618 l 0,-18.57382 9.01174,-1.44463 c 0.20638,0.20638 0.61913,0.27517 1.10067,0.27517 1.44463,0 2.40772,-1.10067 2.40772,-3.30202 0,-1.37583 -0.8943,-2.75167 -2.5453,-2.75167 -0.55034,0 -0.96309,0.20637 -1.30705,0.55033 l -8.66778,1.37584 0,-4.19631 c 0.41275,-0.55033 0.61912,-1.16946 0.61912,-1.7198 0,-1.78859 -1.651,-2.06375 -3.09563,-2.06375 -2.54531,0 -4.3339,0.55033 -4.3339,2.40771 0,1.10068 0.13759,1.37584 0.41276,1.7198 l 0,4.95302 z"
             style="font-style:normal;font-variant:normal;font-weight:bold;font-stretch:normal;font-family:'Tekton Pro';-inkscape-font-specification:'Tekton Pro Bold';fill:none;stroke:#000000;stroke-width:4.93376637;stroke-miterlimit:4;stroke-dasharray:none;stroke-opacity:1"
             id="path4283" />
          <path
             d="m 502.2732,435.07122 c -9.01175,0 -18.02349,9.21812 -18.02349,22.01342 0,7.08557 4.47148,9.63087 10.31879,9.63087 11.28188,0 17.26678,-8.04866 17.26678,-9.97483 0,-1.37584 -0.55034,-3.02685 -3.09564,-3.02685 -2.27013,0 -3.64597,1.44463 -3.4396,3.02685 -1.23825,1.85738 -5.22818,4.60906 -9.97483,4.60906 -2.95805,0 -4.74664,-1.37584 -4.74664,-4.81544 0,-1.37584 0.13758,-2.61409 0.48154,-3.71476 l 3.16443,-0.55034 c 15.95973,-2.82047 18.09228,-5.64094 18.09228,-8.73657 0,-2.68289 -2.27013,-8.46141 -10.04362,-8.46141 z m -0.27517,5.22818 c 3.02684,0 4.19631,1.85739 4.19631,3.50839 0,0.96309 -1.7198,1.99497 -13.89597,4.12752 2.06375,-4.40268 5.77852,-7.63591 9.69966,-7.63591 z"
             style="font-style:normal;font-variant:normal;font-weight:bold;font-stretch:normal;font-family:'Tekton Pro';-inkscape-font-specification:'Tekton Pro Bold';fill:none;stroke:#000000;stroke-width:4.93376637;stroke-miterlimit:4;stroke-dasharray:none;stroke-opacity:1"
             id="path4285" />
          <path
             d="m 529.56639,454.67692 c 3.02685,2.82047 6.12249,6.67282 8.25504,10.11241 0.61912,1.37584 1.58221,1.85739 2.61409,1.85739 1.92617,0 3.16443,-1.16947 3.16443,-2.75168 0,-2.75168 -4.95302,-8.5302 -10.18121,-13.6208 2.33893,-3.02685 4.88423,-6.12249 7.36074,-9.21812 0.89429,-0.41276 1.51342,-1.23826 1.51342,-2.47651 0,-1.78859 -1.99496,-3.37081 -3.71476,-3.37081 -1.99497,0 -2.47651,1.30705 -2.47651,2.40772 -2.40772,2.88926 -5.09061,5.9849 -7.01678,8.66778 -2.20134,-2.06376 -5.0906,-4.60906 -6.39765,-7.97986 -0.13758,-1.16947 -0.61913,-2.68289 -2.61409,-2.68289 -1.99497,0 -4.12752,1.65101 -4.12752,3.4396 0,1.23825 0.48154,1.92617 1.16946,2.20134 2.5453,4.2651 6.26007,8.11745 8.04866,9.56208 -2.40772,3.09564 -5.1594,6.32886 -7.7047,9.56208 -0.8255,0 -1.651,0.75671 -1.651,2.33893 0,2.47651 2.27013,3.64597 3.43959,3.64597 2.40772,0 2.5453,-1.10067 2.6141,-2.13255 l 7.70469,-9.56208 z"
             style="font-style:normal;font-variant:normal;font-weight:bold;font-stretch:normal;font-family:'Tekton Pro';-inkscape-font-specification:'Tekton Pro Bold';fill:none;stroke:#000000;stroke-width:4.93376637;stroke-miterlimit:4;stroke-dasharray:none;stroke-opacity:1"
             id="path4287" />
          <path
             d="m 553.26521,435.62155 -4.67785,0.75671 c -0.20638,-0.20637 -0.68792,-0.41275 -1.16947,-0.41275 -1.51342,0 -2.75167,1.23826 -2.75167,2.95806 0,2.06375 1.10067,3.16442 2.75167,3.23322 0.61913,-0.0688 1.03188,-0.27517 1.37584,-0.61913 l 4.47148,-0.68792 0,19.88087 c 0,3.30201 1.99497,5.77852 5.36577,5.77852 6.19128,0 17.8859,-9.42449 17.8859,-12.10738 0,-1.92617 -0.75671,-3.30201 -3.50838,-3.30201 -1.65101,0 -2.68289,1.16946 -2.6141,2.68288 -2.82047,3.50839 -8.18624,6.53524 -9.56208,6.53524 -0.8255,0 -1.16946,-0.8255 -1.16946,-1.92618 l 0,-18.57382 9.01174,-1.44463 c 0.20638,0.20638 0.61913,0.27517 1.10067,0.27517 1.44464,0 2.40772,-1.10067 2.40772,-3.30202 0,-1.37583 -0.89429,-2.75167 -2.5453,-2.75167 -0.55033,0 -0.96309,0.20637 -1.30705,0.55033 l -8.66778,1.37584 0,-4.19631 c 0.41275,-0.55033 0.61913,-1.16946 0.61913,-1.7198 0,-1.78859 -1.65101,-2.06375 -3.09564,-2.06375 -2.5453,0 -4.33389,0.55033 -4.33389,2.40771 0,1.10068 0.13758,1.37584 0.41275,1.7198 l 0,4.95302 z"
             style="font-style:normal;font-variant:normal;font-weight:bold;font-stretch:normal;font-family:'Tekton Pro';-inkscape-font-specification:'Tekton Pro Bold';fill:none;stroke:#000000;stroke-width:4.93376637;stroke-miterlimit:4;stroke-dasharray:none;stroke-opacity:1"
             id="path4289" />
          <path
             d="m 118.14331,427.84806 9.4245,-1.78859 c 0.55033,0.27517 1.16946,0.55034 2.13255,0.55034 1.85738,0 2.95805,-1.58222 2.95805,-3.30201 0,-2.06376 -1.23825,-3.23323 -3.02684,-3.23323 -0.82551,0 -1.37584,0.13759 -2.13255,0.48155 l -10.38759,1.85738 c -1.16946,-0.68792 -3.98993,-0.27517 -4.95301,0.8943 l -9.14933,1.78859 c -0.48155,-0.27517 -0.82551,-0.48155 -1.99497,-0.48155 -1.513422,0 -2.820469,1.51342 -2.820469,3.50839 0,1.85738 1.238255,3.02685 3.164429,3.02685 0.8255,0 1.58222,-0.34396 2.13255,-0.68792 l 8.04866,-1.58222 0,31.78188 c -0.27517,0.55033 -0.41275,1.44463 -0.41275,2.40772 0,1.99496 1.03188,2.88926 3.09563,2.88926 3.30202,0 4.54027,-1.44463 4.54027,-3.30202 0,-0.75671 -0.41275,-1.37583 -0.61913,-1.71979 l 0,-33.08893 z"
             style="font-style:normal;font-variant:normal;font-weight:bold;font-stretch:normal;font-family:'Tekton Pro';-inkscape-font-specification:'Tekton Pro Bold';fill:none;stroke:#000000;stroke-width:4.93376637;stroke-miterlimit:4;stroke-dasharray:none;stroke-opacity:1"
             id="path4263" />
          <path
             d="m 152.45007,461.34974 c -0.55034,0.55033 -0.68792,1.51342 -0.68792,2.27013 0,1.44463 1.44463,2.33893 3.57718,2.33893 1.92617,0 4.05872,-1.44463 4.05872,-3.02685 0,-0.55033 -0.48154,-1.10067 -0.55033,-1.51342 l 0,-18.98658 c 0,-4.60906 -1.16946,-6.8104 -4.81544,-6.8104 -3.64597,0 -8.4614,2.13255 -12.86409,6.12248 l -0.13758,0 0,-16.23489 c 0.27516,-0.61913 0.61912,-1.37584 0.61912,-2.06376 0,-1.7198 -2.20134,-3.09564 -3.30201,-3.09564 -2.47651,0 -4.33389,1.23826 -4.33389,3.50839 0,0.61913 0.55033,1.37584 0.61913,1.99497 l 0,35.63422 c -0.34396,0.41275 -0.48155,1.16946 -0.48155,2.27014 0,1.44463 0.75671,2.20134 2.82047,2.20134 2.20134,0 4.60906,-1.10067 4.60906,-2.82047 0,-0.82551 -0.20637,-1.44463 -0.55033,-1.92618 l 0,-12.65771 c 3.78355,-4.88423 7.97986,-6.19128 9.90604,-6.19128 1.16946,0 1.51342,0.61913 1.51342,3.02685 l 0,15.95973 z"
             style="font-style:normal;font-variant:normal;font-weight:bold;font-stretch:normal;font-family:'Tekton Pro';-inkscape-font-specification:'Tekton Pro Bold';fill:none;stroke:#000000;stroke-width:4.93376637;stroke-miterlimit:4;stroke-dasharray:none;stroke-opacity:1"
             id="path4265" />
          <path
             d="m 171.40655,422.34471 c -2.61409,0 -4.12752,2.75168 -4.12752,6.26006 0,1.92618 0.8943,3.30202 3.09564,3.30202 2.13255,0 4.12752,-2.33893 4.12752,-6.39765 0,-1.99497 -1.10067,-3.16443 -3.09564,-3.16443 z m 2.95805,16.37248 c 0.0688,-1.44463 -1.78859,-3.23322 -3.3708,-3.23322 -4.19631,0 -4.33389,2.06376 -4.33389,3.98993 0,0.61913 0.20637,1.37584 0.61912,1.78859 l 0,19.12416 c -0.27516,0.34396 -0.8255,1.10067 -0.8255,2.33893 0,1.99496 1.30705,3.23322 3.09564,3.23322 2.13255,0 5.02181,-1.03188 5.02181,-3.37081 0,-0.8255 -0.55034,-1.651 -0.8943,-1.92617 l 0,-19.6745 c 0.13759,-0.41275 0.68792,-1.10067 0.68792,-2.27013 z"
             style="font-style:normal;font-variant:normal;font-weight:bold;font-stretch:normal;font-family:'Tekton Pro';-inkscape-font-specification:'Tekton Pro Bold';fill:none;stroke:#000000;stroke-width:4.93376637;stroke-miterlimit:4;stroke-dasharray:none;stroke-opacity:1"
             id="path4267" />
          <path
             d="m 199.11895,434.3833 c -8.25504,0 -18.43624,5.22818 -18.43624,12.45134 0,3.57718 2.33892,6.39765 6.05369,6.39765 3.23322,0 5.43456,-0.75671 8.25503,-1.51342 2.68288,-0.68792 4.40268,-1.51343 6.32886,-1.51343 1.85738,0 2.82047,1.03188 2.82047,2.82047 0,5.29698 -8.25504,8.25504 -13.00168,8.25504 -1.85738,0 -3.4396,-0.82551 -4.05872,-1.51343 0.13758,-0.27516 0.20637,-0.55033 0.20637,-0.96308 0,-0.61913 -0.55033,-1.78859 -2.47651,-1.78859 -2.33892,0 -3.4396,1.71979 -3.4396,3.64597 0,3.23322 4.67786,5.77852 9.49329,5.77852 5.29698,0 19.6745,-3.57718 19.6745,-14.58389 0,-4.54027 -3.37081,-6.94799 -7.49832,-6.94799 -2.54531,0 -4.88423,0.82551 -7.7047,1.51343 -2.5453,0.61912 -4.67785,1.51342 -6.32886,1.51342 -1.23825,0 -1.92617,-0.68792 -1.92617,-1.78859 0,-3.09564 5.22818,-6.67282 12.03859,-6.67282 2.95805,0 3.3708,0.34396 3.64597,0.75671 0.27517,0.41275 0.48154,0.75671 1.651,0.75671 1.65101,0 2.68289,-1.03188 2.68289,-2.68288 0,-2.6141 -3.50839,-3.92114 -7.97986,-3.92114 z"
             style="font-style:normal;font-variant:normal;font-weight:bold;font-stretch:normal;font-family:'Tekton Pro';-inkscape-font-specification:'Tekton Pro Bold';fill:none;stroke:#000000;stroke-width:4.93376637;stroke-miterlimit:4;stroke-dasharray:none;stroke-opacity:1"
             id="path4269" />
          <path
             d="m 233.2118,422.34471 c -2.61409,0 -4.12751,2.75168 -4.12751,6.26006 0,1.92618 0.89429,3.30202 3.09563,3.30202 2.13255,0 4.12752,-2.33893 4.12752,-6.39765 0,-1.99497 -1.10067,-3.16443 -3.09564,-3.16443 z m 2.95806,16.37248 c 0.0688,-1.44463 -1.78859,-3.23322 -3.37081,-3.23322 -4.19631,0 -4.33389,2.06376 -4.33389,3.98993 0,0.61913 0.20637,1.37584 0.61913,1.78859 l 0,19.12416 c -0.27517,0.34396 -0.82551,1.10067 -0.82551,2.33893 0,1.99496 1.30705,3.23322 3.09564,3.23322 2.13255,0 5.02181,-1.03188 5.02181,-3.37081 0,-0.8255 -0.55033,-1.651 -0.89429,-1.92617 l 0,-19.6745 c 0.13758,-0.41275 0.68792,-1.10067 0.68792,-2.27013 z"
             style="font-style:normal;font-variant:normal;font-weight:bold;font-stretch:normal;font-family:'Tekton Pro';-inkscape-font-specification:'Tekton Pro Bold';fill:none;stroke:#000000;stroke-width:4.93376637;stroke-miterlimit:4;stroke-dasharray:none;stroke-opacity:1"
             id="path4271" />
          <path
             d="m 260.9242,434.3833 c -8.25504,0 -18.43624,5.22818 -18.43624,12.45134 0,3.57718 2.33892,6.39765 6.05369,6.39765 3.23322,0 5.43456,-0.75671 8.25503,-1.51342 2.68289,-0.68792 4.40268,-1.51343 6.32886,-1.51343 1.85738,0 2.82047,1.03188 2.82047,2.82047 0,5.29698 -8.25503,8.25504 -13.00168,8.25504 -1.85738,0 -3.43959,-0.82551 -4.05872,-1.51343 0.13758,-0.27516 0.20637,-0.55033 0.20637,-0.96308 0,-0.61913 -0.55033,-1.78859 -2.47651,-1.78859 -2.33892,0 -3.43959,1.71979 -3.43959,3.64597 0,3.23322 4.67785,5.77852 9.49328,5.77852 5.29698,0 19.6745,-3.57718 19.6745,-14.58389 0,-4.54027 -3.37081,-6.94799 -7.49832,-6.94799 -2.5453,0 -4.88423,0.82551 -7.7047,1.51343 -2.5453,0.61912 -4.67785,1.51342 -6.32886,1.51342 -1.23825,0 -1.92617,-0.68792 -1.92617,-1.78859 0,-3.09564 5.22819,-6.67282 12.03859,-6.67282 2.95805,0 3.3708,0.34396 3.64597,0.75671 0.27517,0.41275 0.48154,0.75671 1.65101,0.75671 1.651,0 2.68288,-1.03188 2.68288,-2.68288 0,-2.6141 -3.50839,-3.92114 -7.97986,-3.92114 z"
             style="font-style:normal;font-variant:normal;font-weight:bold;font-stretch:normal;font-family:'Tekton Pro';-inkscape-font-specification:'Tekton Pro Bold';fill:none;stroke:#000000;stroke-width:4.93376637;stroke-miterlimit:4;stroke-dasharray:none;stroke-opacity:1"
             id="path4273" />
          <path
             d="m 307.94994,434.3833 c -8.25503,0 -18.43624,5.22818 -18.43624,12.45134 0,3.57718 2.33893,6.39765 6.05369,6.39765 3.23322,0 5.43456,-0.75671 8.25503,-1.51342 2.68289,-0.68792 4.40269,-1.51343 6.32886,-1.51343 1.85738,0 2.82047,1.03188 2.82047,2.82047 0,5.29698 -8.25503,8.25504 -13.00168,8.25504 -1.85738,0 -3.43959,-0.82551 -4.05872,-1.51343 0.13758,-0.27516 0.20638,-0.55033 0.20638,-0.96308 0,-0.61913 -0.55034,-1.78859 -2.47651,-1.78859 -2.33893,0 -3.4396,1.71979 -3.4396,3.64597 0,3.23322 4.67785,5.77852 9.49329,5.77852 5.29698,0 19.67449,-3.57718 19.67449,-14.58389 0,-4.54027 -3.3708,-6.94799 -7.49832,-6.94799 -2.5453,0 -4.88423,0.82551 -7.7047,1.51343 -2.5453,0.61912 -4.67785,1.51342 -6.32886,1.51342 -1.23825,0 -1.92617,-0.68792 -1.92617,-1.78859 0,-3.09564 5.22819,-6.67282 12.03859,-6.67282 2.95805,0 3.3708,0.34396 3.64597,0.75671 0.27517,0.41275 0.48155,0.75671 1.65101,0.75671 1.651,0 2.68288,-1.03188 2.68288,-2.68288 0,-2.6141 -3.50839,-3.92114 -7.97986,-3.92114 z"
             style="font-style:normal;font-variant:normal;font-weight:bold;font-stretch:normal;font-family:'Tekton Pro';-inkscape-font-specification:'Tekton Pro Bold';fill:none;stroke:#000000;stroke-width:4.93376637;stroke-miterlimit:4;stroke-dasharray:none;stroke-opacity:1"
             id="path4275" />
          <path
             d="m 342.34269,434.79605 c -10.38758,0 -19.05537,8.94295 -19.05537,21.11912 0,7.7047 5.64094,10.93792 9.49329,10.93792 6.05369,0 9.4245,-1.30704 14.72147,-6.53523 1.65101,-1.65101 5.29698,-6.74161 5.29698,-12.52013 0,-4.95302 -1.99496,-13.00168 -10.45637,-13.00168 z m -1.30705,5.36577 c 3.92114,0 5.29698,3.50839 5.29698,7.97987 0,3.64597 -1.51342,7.22315 -4.12751,9.76845 -2.47651,2.40772 -4.88423,3.57718 -7.91108,3.57718 -2.47651,0 -4.54027,-2.61409 -4.54027,-6.60402 0,-7.77349 5.70974,-14.72148 11.28188,-14.72148 z"
             style="font-style:normal;font-variant:normal;font-weight:bold;font-stretch:normal;font-family:'Tekton Pro';-inkscape-font-specification:'Tekton Pro Bold';fill:none;stroke:#000000;stroke-width:4.93376637;stroke-miterlimit:4;stroke-dasharray:none;stroke-opacity:1"
             id="path4277" />
          <path
             d="m 365.67606,448.07289 c 4.47147,-4.05872 8.46141,-6.67281 10.04362,-6.67281 0.8943,0 1.16946,0.41275 1.16946,1.51342 l 0,17.95469 c -0.61912,0.68792 -1.10067,1.7198 -1.10067,2.33893 0,1.85738 1.23826,2.75168 3.23322,2.75168 3.02685,0 4.2651,-0.68792 4.2651,-4.74665 l 0,-13.13926 c 5.9849,-5.0906 9.28692,-6.94798 10.93792,-6.94798 0.68792,0 1.10067,0.68792 1.10067,1.51342 l 0,18.7802 c -0.34396,0.27517 -0.61912,0.75671 -0.61912,1.65101 0,2.40771 1.23825,2.88926 3.3708,2.88926 1.92618,0 4.40269,-0.82551 4.40269,-2.88926 0,-0.96309 -0.13759,-1.23826 -0.75672,-1.78859 l 0,-23.18289 c 0,-2.47651 -1.651,-3.78355 -3.92114,-3.78355 -2.95805,0 -8.5302,3.23322 -14.5151,8.11744 l 0,-3.30201 c 0,-3.09564 -1.37583,-4.81543 -4.12751,-4.81543 -3.4396,0 -9.49329,4.47147 -13.48322,7.77348 l 0,-2.61409 c 0.41275,-0.75671 0.48154,-1.44463 0.48154,-2.13255 0,-1.65101 -0.96309,-3.02684 -3.02684,-3.02684 -3.16443,0 -4.54027,0.96308 -4.54027,3.16442 0,1.23826 0.41275,1.92618 0.68792,2.40772 l 0,20.70638 c -0.13759,0.55033 -0.61913,1.10067 -0.61913,1.99496 0,2.47651 1.37584,3.37081 3.98993,3.37081 2.6141,0 3.57718,-1.03188 3.57718,-3.16443 0,-0.75671 -0.27516,-1.30705 -0.55033,-1.78859 l 0,-12.93289 z"
             style="font-style:normal;font-variant:normal;font-weight:bold;font-stretch:normal;font-family:'Tekton Pro';-inkscape-font-specification:'Tekton Pro Bold';fill:none;stroke:#000000;stroke-width:4.93376637;stroke-miterlimit:4;stroke-dasharray:none;stroke-opacity:1"
             id="path4279" />
          <path
             d="m 425.82279,435.07122 c -9.01175,0 -18.02349,9.21812 -18.02349,22.01342 0,7.08557 4.47148,9.63087 10.31879,9.63087 11.28188,0 17.26678,-8.04866 17.26678,-9.97483 0,-1.37584 -0.55034,-3.02685 -3.09564,-3.02685 -2.27013,0 -3.64597,1.44463 -3.4396,3.02685 -1.23825,1.85738 -5.22818,4.60906 -9.97483,4.60906 -2.95805,0 -4.74664,-1.37584 -4.74664,-4.81544 0,-1.37584 0.13758,-2.61409 0.48154,-3.71476 l 3.16443,-0.55034 c 15.95973,-2.82047 18.09228,-5.64094 18.09228,-8.73657 0,-2.68289 -2.27013,-8.46141 -10.04362,-8.46141 z m -0.27517,5.22818 c 3.02685,0 4.19631,1.85739 4.19631,3.50839 0,0.96309 -1.7198,1.99497 -13.89597,4.12752 2.06376,-4.40268 5.77852,-7.63591 9.69966,-7.63591 z"
             style="font-style:normal;font-variant:normal;font-weight:bold;font-stretch:normal;font-family:'Tekton Pro';-inkscape-font-specification:'Tekton Pro Bold';fill:none;stroke:#000000;stroke-width:4.93376637;stroke-miterlimit:4;stroke-dasharray:none;stroke-opacity:1"
             id="path4281" />
          <path
             d="m 598.14122,435.62155 -4.67786,0.75671 c -0.20637,-0.20637 -0.68791,-0.41275 -1.16946,-0.41275 -1.51342,0 -2.75168,1.23826 -2.75168,2.95806 0,2.06375 1.10068,3.16442 2.75168,3.23322 0.61913,-0.0688 1.03188,-0.27517 1.37584,-0.61913 l 4.47148,-0.68792 0,19.88087 c 0,3.30201 1.99496,5.77852 5.36577,5.77852 6.19127,0 17.8859,-9.42449 17.8859,-12.10738 0,-1.92617 -0.75671,-3.30201 -3.50839,-3.30201 -1.651,0 -2.68288,1.16946 -2.61409,2.68288 -2.82047,3.50839 -8.18624,6.53524 -9.56208,6.53524 -0.8255,0 -1.16946,-0.8255 -1.16946,-1.92618 l 0,-18.57382 9.01174,-1.44463 c 0.20638,0.20638 0.61913,0.27517 1.10067,0.27517 1.44463,0 2.40772,-1.10067 2.40772,-3.30202 0,-1.37583 -0.8943,-2.75167 -2.5453,-2.75167 -0.55034,0 -0.96309,0.20637 -1.30705,0.55033 l -8.66778,1.37584 0,-4.19631 c 0.41275,-0.55033 0.61912,-1.16946 0.61912,-1.7198 0,-1.78859 -1.651,-2.06375 -3.09563,-2.06375 -2.5453,0 -4.3339,0.55033 -4.3339,2.40771 0,1.10068 0.13759,1.37584 0.41276,1.7198 l 0,4.95302 z"
             style="font-style:normal;font-variant:normal;font-weight:bold;font-stretch:normal;font-family:'Tekton Pro';-inkscape-font-specification:'Tekton Pro Bold';fill:none;stroke:#000000;stroke-width:4.93376637;stroke-miterlimit:4;stroke-dasharray:none;stroke-opacity:1"
             id="path4291" />
          <path
             d="m 642.23257,434.79605 c -10.38759,0 -19.05537,8.94295 -19.05537,21.11912 0,7.7047 5.64094,10.93792 9.49329,10.93792 6.05369,0 9.42449,-1.30704 14.72147,-6.53523 1.65101,-1.65101 5.29698,-6.74161 5.29698,-12.52013 0,-4.95302 -1.99496,-13.00168 -10.45637,-13.00168 z m -1.30705,5.36577 c 3.92114,0 5.29698,3.50839 5.29698,7.97987 0,3.64597 -1.51342,7.22315 -4.12752,9.76845 -2.47651,2.40772 -4.88422,3.57718 -7.91107,3.57718 -2.47651,0 -4.54027,-2.61409 -4.54027,-6.60402 0,-7.77349 5.70973,-14.72148 11.28188,-14.72148 z"
             style="font-style:normal;font-variant:normal;font-weight:bold;font-stretch:normal;font-family:'Tekton Pro';-inkscape-font-specification:'Tekton Pro Bold';fill:none;stroke:#000000;stroke-width:4.93376637;stroke-miterlimit:4;stroke-dasharray:none;stroke-opacity:1"
             id="path4293" />
          <path
             d="m 676.20396,437.20377 c 0,-1.78859 -1.37584,-2.40772 -3.50839,-2.40772 -1.58221,0 -3.30201,1.10067 -3.30201,3.50839 0,0.8255 0.20637,1.651 0.75671,2.06376 l 5.43456,21.94462 c 0.13759,2.68289 0.96309,3.78356 3.16443,3.78356 2.06376,0 3.37081,-0.8255 3.57718,-3.50839 l 6.8792,-14.85906 4.88422,15.75336 c 0.0688,1.51342 1.03188,2.61409 3.30202,2.61409 2.88926,0 3.43959,-0.96309 3.02684,-2.61409 1.16947,-4.60906 2.82047,-8.5302 5.09061,-13.00168 1.92617,-3.3708 2.82047,-6.26007 3.30201,-10.38758 0.55034,-0.48155 0.75671,-1.30705 0.75671,-2.20134 0,-1.37584 -1.37584,-2.54531 -2.88926,-2.54531 -2.13255,0 -4.33389,1.16947 -4.33389,2.88927 0,0.68792 0.27517,1.37583 0.48154,1.78859 0.20638,2.33892 -0.8255,5.43456 -2.06376,7.97986 -1.37584,2.40772 -2.68288,5.1594 -3.23322,7.56711 l -0.13758,0 -4.74665,-14.51509 c 0,-3.98994 -1.23825,-5.29698 -3.16443,-5.29698 -2.27013,0 -3.64597,1.03188 -3.64597,2.5453 0,1.03188 0.20638,1.7198 0.68792,2.75168 l -6.74161,14.79026 -0.13758,0 -3.92114,-16.78523 c 0.27516,-0.61913 0.48154,-0.96309 0.48154,-1.85738 z"
             style="font-style:normal;font-variant:normal;font-weight:bold;font-stretch:normal;font-family:'Tekton Pro';-inkscape-font-specification:'Tekton Pro Bold';fill:none;stroke:#000000;stroke-width:4.93376637;stroke-miterlimit:4;stroke-dasharray:none;stroke-opacity:1"
             id="path4295" />
          <path
             d="m 730.10348,434.79605 c -10.38759,0 -19.05537,8.94295 -19.05537,21.11912 0,7.7047 5.64094,10.93792 9.49329,10.93792 6.05369,0 9.42449,-1.30704 14.72147,-6.53523 1.65101,-1.65101 5.29698,-6.74161 5.29698,-12.52013 0,-4.95302 -1.99496,-13.00168 -10.45637,-13.00168 z m -1.30705,5.36577 c 3.92114,0 5.29698,3.50839 5.29698,7.97987 0,3.64597 -1.51342,7.22315 -4.12752,9.76845 -2.47651,2.40772 -4.88422,3.57718 -7.91107,3.57718 -2.47651,0 -4.54027,-2.61409 -4.54027,-6.60402 0,-7.77349 5.70973,-14.72148 11.28188,-14.72148 z"
             style="font-style:normal;font-variant:normal;font-weight:bold;font-stretch:normal;font-family:'Tekton Pro';-inkscape-font-specification:'Tekton Pro Bold';fill:none;stroke:#000000;stroke-width:4.93376637;stroke-miterlimit:4;stroke-dasharray:none;stroke-opacity:1"
             id="path4297" />
          <path
             d="m 747.03918,461.55611 c -0.48154,0.34396 -0.89429,1.03188 -0.89429,1.7198 0,1.78859 1.03187,2.68289 3.23322,2.68289 3.71476,0 4.88422,-1.03188 4.88422,-3.09564 0,-0.68792 -0.41275,-1.51342 -0.8255,-1.92617 l 0,-12.58893 c 3.50839,-4.12752 7.15436,-6.46644 8.25503,-6.46644 0.55034,0 0.82551,0.68792 0.82551,1.51342 -0.20638,0.55034 -0.34396,1.16946 -0.34396,1.78859 0,1.16946 1.16946,1.85738 3.16443,1.85738 2.33892,0 3.43959,-1.23825 3.43959,-3.16443 0,-6.32885 -2.13255,-8.39261 -4.2651,-8.39261 -3.30201,0 -7.22315,2.68288 -11.00671,6.12248 l -0.0688,0 0,-2.40772 c 0.48154,-0.55033 0.41275,-1.10067 0.41275,-1.58221 0,-1.37584 -1.30704,-2.27014 -3.3708,-2.27014 -2.20134,0 -3.98993,1.16947 -3.98993,2.47651 l 0.55033,1.78859 0,21.94463 z"
             style="font-style:normal;font-variant:normal;font-weight:bold;font-stretch:normal;font-family:'Tekton Pro';-inkscape-font-specification:'Tekton Pro Bold';fill:none;stroke:#000000;stroke-width:4.93376637;stroke-miterlimit:4;stroke-dasharray:none;stroke-opacity:1"
             id="path4299" />
          <path
             d="m 779.43377,425.30276 c 0.41276,-0.41275 0.55034,-1.23825 0.55034,-1.78859 0,-2.20134 -1.10067,-3.09564 -3.71477,-3.09564 -3.43959,0 -4.05872,1.65101 -4.05872,3.23322 0,0.68792 0.48154,1.65101 0.8255,1.92618 l 0,34.80872 c -0.61912,0.55034 -0.68792,1.51342 -0.68792,1.99497 0,2.95805 2.13255,3.57718 3.78356,3.57718 2.75168,0 4.05873,-1.03188 4.05873,-3.4396 0,-0.75671 -0.55034,-1.58221 -0.75672,-2.27013 l 0,-8.5302 0.13759,-0.0688 c 1.85738,2.40772 3.16443,3.78356 4.19631,4.95302 l 7.08557,7.63591 c 0.41275,1.23825 1.23825,1.99497 2.40771,1.99497 2.68289,0 4.3339,-1.51343 4.3339,-3.50839 0,-1.44463 -1.23826,-2.40772 -2.54531,-2.27014 l -10.59395,-11.35067 9.76845,-10.04362 c 1.03188,0 2.33893,-0.96309 2.33893,-2.5453 0,-1.7198 -1.16947,-3.37081 -3.57718,-3.37081 -1.44463,0 -2.54531,1.03188 -2.6141,2.20134 l -6.26006,6.0537 c -1.23826,1.30704 -2.54531,2.75167 -4.54027,5.15939 l -0.13759,-0.0688 0,-21.18792 z"
             style="font-style:normal;font-variant:normal;font-weight:bold;font-stretch:normal;font-family:'Tekton Pro';-inkscape-font-specification:'Tekton Pro Bold';fill:none;stroke:#000000;stroke-width:4.93376637;stroke-miterlimit:4;stroke-dasharray:none;stroke-opacity:1"
             id="path4301" />
          <path
             d="m 820.37144,437.20377 c 0,-1.78859 -1.37584,-2.40772 -3.50839,-2.40772 -1.58221,0 -3.30201,1.10067 -3.30201,3.50839 0,0.8255 0.20637,1.651 0.75671,2.06376 l 5.43456,21.94462 c 0.13759,2.68289 0.96309,3.78356 3.16443,3.78356 2.06376,0 3.37081,-0.8255 3.57718,-3.50839 l 6.8792,-14.85906 4.88423,15.75336 c 0.0688,1.51342 1.03187,2.61409 3.30201,2.61409 2.88926,0 3.4396,-0.96309 3.02684,-2.61409 1.16947,-4.60906 2.82047,-8.5302 5.09061,-13.00168 1.92617,-3.3708 2.82047,-6.26007 3.30201,-10.38758 0.55034,-0.48155 0.75671,-1.30705 0.75671,-2.20134 0,-1.37584 -1.37584,-2.54531 -2.88926,-2.54531 -2.13255,0 -4.33389,1.16947 -4.33389,2.88927 0,0.68792 0.27517,1.37583 0.48154,1.78859 0.20638,2.33892 -0.8255,5.43456 -2.06376,7.97986 -1.37584,2.40772 -2.68288,5.1594 -3.23322,7.56711 l -0.13758,0 -4.74665,-14.51509 c 0,-3.98994 -1.23825,-5.29698 -3.16442,-5.29698 -2.27014,0 -3.64598,1.03188 -3.64598,2.5453 0,1.03188 0.20638,1.7198 0.68792,2.75168 l -6.74161,14.79026 -0.13758,0 -3.92114,-16.78523 c 0.27517,-0.61913 0.48154,-0.96309 0.48154,-1.85738 z"
             style="font-style:normal;font-variant:normal;font-weight:bold;font-stretch:normal;font-family:'Tekton Pro';-inkscape-font-specification:'Tekton Pro Bold';fill:none;stroke:#000000;stroke-width:4.93376637;stroke-miterlimit:4;stroke-dasharray:none;stroke-opacity:1"
             id="path4303" />
          <path
             d="m 863.08796,422.34471 c -2.61409,0 -4.12751,2.75168 -4.12751,6.26006 0,1.92618 0.89429,3.30202 3.09563,3.30202 2.13255,0 4.12752,-2.33893 4.12752,-6.39765 0,-1.99497 -1.10067,-3.16443 -3.09564,-3.16443 z m 2.95806,16.37248 c 0.0688,-1.44463 -1.7886,-3.23322 -3.37081,-3.23322 -4.19631,0 -4.33389,2.06376 -4.33389,3.98993 0,0.61913 0.20637,1.37584 0.61913,1.78859 l 0,19.12416 c -0.27517,0.34396 -0.82551,1.10067 -0.82551,2.33893 0,1.99496 1.30705,3.23322 3.09564,3.23322 2.13255,0 5.02181,-1.03188 5.02181,-3.37081 0,-0.8255 -0.55033,-1.651 -0.89429,-1.92617 l 0,-19.6745 c 0.13758,-0.41275 0.68792,-1.10067 0.68792,-2.27013 z"
             style="font-style:normal;font-variant:normal;font-weight:bold;font-stretch:normal;font-family:'Tekton Pro';-inkscape-font-specification:'Tekton Pro Bold';fill:none;stroke:#000000;stroke-width:4.93376637;stroke-miterlimit:4;stroke-dasharray:none;stroke-opacity:1"
             id="path4305" />
          <path
             d="m 878.28025,435.62155 -4.67785,0.75671 c -0.20637,-0.20637 -0.68792,-0.41275 -1.16946,-0.41275 -1.51342,0 -2.75168,1.23826 -2.75168,2.95806 0,2.06375 1.10067,3.16442 2.75168,3.23322 0.61913,-0.0688 1.03188,-0.27517 1.37584,-0.61913 l 4.47147,-0.68792 0,19.88087 c 0,3.30201 1.99497,5.77852 5.36578,5.77852 6.19127,0 17.8859,-9.42449 17.8859,-12.10738 0,-1.92617 -0.75671,-3.30201 -3.50839,-3.30201 -1.65101,0 -2.68288,1.16946 -2.61409,2.68288 -2.82047,3.50839 -8.18624,6.53524 -9.56208,6.53524 -0.82551,0 -1.16947,-0.8255 -1.16947,-1.92618 l 0,-18.57382 9.01175,-1.44463 c 0.20637,0.20638 0.61913,0.27517 1.10067,0.27517 1.44463,0 2.40772,-1.10067 2.40772,-3.30202 0,-1.37583 -0.8943,-2.75167 -2.5453,-2.75167 -0.55034,0 -0.96309,0.20637 -1.30705,0.55033 l -8.66779,1.37584 0,-4.19631 c 0.41276,-0.55033 0.61913,-1.16946 0.61913,-1.7198 0,-1.78859 -1.651,-2.06375 -3.09563,-2.06375 -2.54531,0 -4.3339,0.55033 -4.3339,2.40771 0,1.10068 0.13759,1.37584 0.41275,1.7198 l 0,4.95302 z"
             style="font-style:normal;font-variant:normal;font-weight:bold;font-stretch:normal;font-family:'Tekton Pro';-inkscape-font-specification:'Tekton Pro Bold';fill:none;stroke:#000000;stroke-width:4.93376637;stroke-miterlimit:4;stroke-dasharray:none;stroke-opacity:1"
             id="path4307" />
          <path
             d="m 924.07524,461.34974 c -0.55034,0.55033 -0.68792,1.51342 -0.68792,2.27013 0,1.44463 1.44463,2.33893 3.57718,2.33893 1.92617,0 4.05872,-1.44463 4.05872,-3.02685 0,-0.55033 -0.48154,-1.10067 -0.55033,-1.51342 l 0,-18.98658 c 0,-4.60906 -1.16947,-6.8104 -4.81544,-6.8104 -3.64597,0 -8.46141,2.13255 -12.86409,6.12248 l -0.13759,0 0,-16.23489 c 0.27517,-0.61913 0.61913,-1.37584 0.61913,-2.06376 0,-1.7198 -2.20134,-3.09564 -3.30201,-3.09564 -2.47651,0 -4.33389,1.23826 -4.33389,3.50839 0,0.61913 0.55033,1.37584 0.61912,1.99497 l 0,35.63422 c -0.34396,0.41275 -0.48154,1.16946 -0.48154,2.27014 0,1.44463 0.75671,2.20134 2.82047,2.20134 2.20134,0 4.60906,-1.10067 4.60906,-2.82047 0,-0.82551 -0.20638,-1.44463 -0.55034,-1.92618 l 0,-12.65771 c 3.78356,-4.88423 7.97987,-6.19128 9.90604,-6.19128 1.16947,0 1.51343,0.61913 1.51343,3.02685 l 0,15.95973 z"
             style="font-style:normal;font-variant:normal;font-weight:bold;font-stretch:normal;font-family:'Tekton Pro';-inkscape-font-specification:'Tekton Pro Bold';fill:none;stroke:#000000;stroke-width:4.93376637;stroke-miterlimit:4;stroke-dasharray:none;stroke-opacity:1"
             id="path4309" />
          <path
             d="m 941.44953,466.16517 c 3.09564,0 4.2651,-2.33892 4.2651,-4.60906 0,-2.95805 -1.37583,-4.12751 -3.30201,-4.12751 -2.75168,0 -4.2651,2.5453 -4.2651,4.60906 0,2.82047 1.85738,4.12751 3.30201,4.12751 z"
             style="font-style:normal;font-variant:normal;font-weight:bold;font-stretch:normal;font-family:'Tekton Pro';-inkscape-font-specification:'Tekton Pro Bold';fill:none;stroke:#000000;stroke-width:4.93376637;stroke-miterlimit:4;stroke-dasharray:none;stroke-opacity:1"
             id="path4311" />
        </g>
      </g>
    </g>
  </g>
</svg>
