<?xml version="1.0" encoding="UTF-8" standalone="no"?>
<!-- Created with Inkscape (http://www.inkscape.org/) -->

<svg
   width="1920"
   height="1080"
   viewBox="0 0 1920 1080"
   version="1.1"
   id="svg5"
   inkscape:version="1.1.2 (b8e25be833, 2022-02-05)"
   sodipodi:docname="bluebirdtech.svg"
   xmlns:inkscape="http://www.inkscape.org/namespaces/inkscape"
   xmlns:sodipodi="http://sodipodi.sourceforge.net/DTD/sodipodi-0.dtd"
   xmlns:xlink="http://www.w3.org/1999/xlink"
   xmlns="http://www.w3.org/2000/svg"
   xmlns:svg="http://www.w3.org/2000/svg">
  <sodipodi:namedview
     id="namedview7"
     pagecolor="#ffffff"
     bordercolor="#cccccc"
     borderopacity="1"
     inkscape:pageshadow="0"
     inkscape:pageopacity="1"
     inkscape:pagecheckerboard="0"
     inkscape:document-units="px"
     showgrid="false"
     inkscape:zoom="0.46388889"
     inkscape:cx="970.05988"
     inkscape:cy="540"
     inkscape:window-width="1366"
     inkscape:window-height="697"
     inkscape:window-x="-8"
     inkscape:window-y="-8"
     inkscape:window-maximized="1"
     inkscape:current-layer="layer1" />
  <defs
     id="defs2">
    <rect
       x="860.11976"
       y="228.50299"
       width="933.41317"
       height="569.1018"
       id="rect4927" />
    <linearGradient
       inkscape:collect="always"
       id="linearGradient1645">
      <stop
         style="stop-color:#ffaaaa;stop-opacity:1;"
         offset="0"
         id="stop1641" />
      <stop
         style="stop-color:#ff8933;stop-opacity:0.98431373"
         offset="1"
         id="stop1643" />
    </linearGradient>
    <rect
       x="253.51145"
       y="179.31298"
       width="1385.0382"
       height="296.79389"
       id="rect1397" />
    <radialGradient
       inkscape:collect="always"
       xlink:href="#linearGradient1645"
       id="radialGradient1647"
       cx="426.82635"
       cy="517.3653"
       fx="426.82635"
       fy="517.3653"
       r="344.09882"
       gradientTransform="matrix(1,0,0,0.98120568,0,9.7235269)"
       gradientUnits="userSpaceOnUse" />
  </defs>
  <g
     inkscape:label="Layer 1"
     inkscape:groupmode="layer"
     id="layer1">
    <ellipse
       style="fill:url(#radialGradient1647);stroke:#ffff00;stroke-width:5.91133;stroke-miterlimit:4;stroke-dasharray:none;fill-opacity:1"
       id="path1461"
       cx="426.82635"
       cy="517.3653"
       rx="341.14316"
       ry="334.67606" />
    <path
       style="fill:#0082ff;stroke:#000000;stroke-width:7;stroke-linecap:butt;stroke-linejoin:miter;stroke-miterlimit:4;stroke-dasharray:none;stroke-opacity:1;fill-opacity:1"
       d="m 301.79641,168.14372 c 0,0 29.26974,2.02313 66.82635,64.67066 37.55661,62.64753 94.85029,331.97604 94.85029,331.97604 0,0 65.265,-24.0185 92.69461,-4.31137 27.42961,19.70713 90.07304,101.6485 45.26946,75.4491 -62.04909,-47.75629 -92.69461,32.33533 -92.69461,32.33533 0,0 151.02525,70.42328 181.07784,101.31736 30.05259,30.89408 23.71258,45.26946 23.71258,45.26946 0,0 -209.6482,12.3482 -232.81436,-56.0479 -23.16616,-68.3961 -81.91617,-15.08982 -81.91617,-15.08982 l 6.46706,58.20359 c 0,0 -78.3126,-36.37629 -101.31736,-75.4491 -23.00476,-39.07281 -19.4012,-144.43114 -19.4012,-144.43114 l 56.0479,32.33533 c 0,0 21.61668,-83.14445 -53.89221,-153.05389 -75.50889,-69.90944 13.62921,-293.05193 15.08982,-293.17365 z"
       id="path41"
       sodipodi:nodetypes="czczcczczcczcczc" />
    <text
       xml:space="preserve"
       id="text4925"
       style="font-style:normal;font-weight:normal;font-size:40px;line-height:1.25;font-family:sans-serif;white-space:pre;shape-inside:url(#rect4927);fill:#000000;fill-opacity:1;stroke:none"
       transform="matrix(3.9879264,0,0,3.7562019,-2633.3112,-609.67964)"><tspan
         x="860.11914"
         y="264.89891"
         id="tspan12193"><tspan
           style="font-weight:bold;font-family:'Berlin Sans FB';-inkscape-font-specification:'Berlin Sans FB, Bold'"
           id="tspan12191">Bluebird 
</tspan></tspan><tspan
         x="860.11914"
         y="316.99214"
         id="tspan12197"><tspan
           style="font-weight:bold;font-family:'Berlin Sans FB';-inkscape-font-specification:'Berlin Sans FB, Bold'"
           id="tspan12195">Community 
</tspan></tspan><tspan
         x="860.11914"
         y="369.08538"
         id="tspan12201"><tspan
           style="font-weight:bold;font-family:'Berlin Sans FB';-inkscape-font-specification:'Berlin Sans FB, Bold'"
           id="tspan12199">College</tspan></tspan></text>
  </g>
</svg>
