<?xml version="1.0" encoding="UTF-8" standalone="no"?>
<!-- Created with Inkscape (http://www.inkscape.org/) -->
<svg
   xmlns:dc="http://purl.org/dc/elements/1.1/"
   xmlns:cc="http://web.resource.org/cc/"
   xmlns:rdf="http://www.w3.org/1999/02/22-rdf-syntax-ns#"
   xmlns:svg="http://www.w3.org/2000/svg"
   xmlns="http://www.w3.org/2000/svg"
   xmlns:sodipodi="http://sodipodi.sourceforge.net/DTD/sodipodi-0.dtd"
   xmlns:inkscape="http://www.inkscape.org/namespaces/inkscape"
   width="744.09448819"
   height="1052.3622047"
   id="svg2"
   sodipodi:version="0.32"
   inkscape:version="0.45.1"
   sodipodi:docbase="C:\Documents and Settings\Student\Desktop"
   sodipodi:docname="brain.svg"
   inkscape:output_extension="org.inkscape.output.svg.inkscape">
  <defs
     id="defs4">
    <filter
       inkscape:collect="always"
       id="filter6476">
      <feGaussianBlur
         inkscape:collect="always"
         stdDeviation="9.2072419"
         id="feGaussianBlur6478" />
    </filter>
    <filter
       inkscape:collect="always"
       id="filter7466">
      <feGaussianBlur
         inkscape:collect="always"
         stdDeviation="3.4645145"
         id="feGaussianBlur7468" />
    </filter>
  </defs>
  <sodipodi:namedview
     id="base"
     pagecolor="#ffffff"
     bordercolor="#666666"
     borderopacity="1.0"
     gridtolerance="10000"
     guidetolerance="10"
     objecttolerance="10"
     inkscape:pageopacity="0.0"
     inkscape:pageshadow="2"
     inkscape:zoom="0.73548823"
     inkscape:cx="372.04724"
     inkscape:cy="526.18109"
     inkscape:document-units="px"
     inkscape:current-layer="layer1"
     inkscape:window-width="1280"
     inkscape:window-height="975"
     inkscape:window-x="-4"
     inkscape:window-y="-4" />
  <metadata
     id="metadata7">
    <rdf:RDF>
      <cc:Work
         rdf:about="">
        <dc:format>image/svg+xml</dc:format>
        <dc:type
           rdf:resource="http://purl.org/dc/dcmitype/StillImage" />
      </cc:Work>
    </rdf:RDF>
  </metadata>
  <g
     inkscape:label="Layer 1"
     inkscape:groupmode="layer"
     id="layer1">
    <path
       id="path4492"
       d="M 498.77516,688.46172 C 497.20131,687.60568 494.43518,684.13144 492.6282,680.7412 C 490.82121,677.35094 486.11811,670.53606 482.17686,665.597 C 471.80028,652.59334 461.80476,637.66815 460.63466,633.43041 C 459.92697,630.86737 458.67834,629.36769 456.50122,628.46589 C 452.70099,626.89179 443.60116,617.45672 441.0504,612.44586 C 440.02613,610.43374 439.09671,608.67511 438.98504,608.5378 C 438.65311,608.12969 431.81108,611.84574 427.13742,614.97248 C 419.38313,620.16021 405.84624,619.77366 401.49364,614.24022 C 400.28397,612.70238 397.38516,611.25269 393.79992,610.3926 C 389.1632,609.28027 386.85873,607.85663 381.92109,603.05418 C 376.91403,598.1842 375.65974,596.24938 375.05451,592.46201 L 374.31401,587.82822 L 368.35695,588.41811 C 365.08057,588.74254 359.24061,589.33323 355.37926,589.73073 C 350.92829,590.18894 346.97838,589.99796 344.58768,589.20895 C 340.69385,587.92387 335.29656,583.63126 335.29656,581.81946 C 335.29656,581.2535 338.40547,580.4575 342.20526,580.05057 C 346.00504,579.64365 349.11395,578.95717 349.11395,578.52507 C 349.11395,578.09297 345.50996,577.46686 341.10509,577.13372 C 324.01306,575.84105 315.06695,564.61185 315.12036,544.51753 C 315.15057,533.15545 317.69731,523.73261 324.46575,509.93996 C 327.9082,502.92498 331.56402,495.20345 332.58978,492.78102 C 334.70737,487.78013 340.35196,482.02286 349.64539,475.38491 C 353.15288,472.87964 357.14584,469.45009 358.51863,467.76368 C 361.47789,464.12839 372.14788,456.84422 378.87449,453.86719 C 381.50511,452.70294 389.15781,449.49333 395.88051,446.73473 C 402.6032,443.97613 410.46912,440.20892 413.36034,438.36315 C 416.25155,436.51737 419.59961,434.99198 420.80047,434.97339 C 422.00133,434.95479 423.91228,434.23735 425.04703,433.37907 C 427.55346,431.48331 439.20909,431.26625 443.10806,433.04274 C 444.58578,433.71603 446.05569,435.08882 446.37453,436.09337 C 446.82705,437.51913 448.7553,438.08308 455.16368,438.66391 C 459.67889,439.07315 466.24291,439.35413 469.75041,439.28832 C 473.66153,439.21491 478.50755,439.99164 482.28192,441.29686 C 486.8705,442.88366 489.11892,443.16553 491.11984,442.40477 C 496.71026,440.2793 500.71891,441.16196 505.92021,445.66366 C 512.04375,450.96354 518.12949,454.13896 522.16326,454.13896 C 526.54949,454.13896 532.26597,458.31252 533.47706,462.39908 C 534.03638,464.28642 534.92069,465.8306 535.44218,465.8306 C 538.63792,465.8306 544.21984,469.96166 546.89188,474.30428 C 548.56021,477.01567 551.85768,480.78704 554.21958,482.68513 C 558.43465,486.07244 562.75208,492.85035 562.75208,496.08023 C 562.75208,496.98039 563.44285,497.71689 564.28712,497.71689 C 567.62689,497.71689 571.45352,503.08712 577.16233,515.78578 C 582.00409,526.5558 583.03573,529.82723 582.61013,533.06127 C 582.32138,535.25552 582.57486,538.6465 583.17341,540.59679 C 584.59937,545.24299 580.65598,563.50813 577.00547,569.16567 C 573.73038,574.24141 569.13488,576.66649 564.45518,575.78857 C 561.34542,575.20518 560.83068,575.43148 560.32137,577.606 C 560.00142,578.97208 560.10146,582.35517 560.54372,585.12396 C 561.37601,590.33482 559.63354,605.33551 557.58492,610.59581 C 556.96991,612.17499 555.14879,615.52305 553.53798,618.03594 C 550.04778,623.48075 547.34825,628.14669 545.89365,631.24864 C 544.70331,633.78704 540.68503,636.8861 535.11729,639.55981 C 526.34324,643.77326 521.98966,646.59313 520.88521,648.77813 C 519.87938,650.76802 512.90096,656.26288 507.64193,659.20599 C 506.3512,659.92832 506.65847,661.2755 509.49788,667.3432 C 511.36942,671.34257 513.18743,676.70687 513.5379,679.26389 C 514.10902,683.4307 513.86597,684.17867 511.19494,686.47381 C 509.55583,687.88225 507.37167,689.03461 506.34125,689.03461 C 505.31082,689.03461 503.83076,689.2559 503.05222,689.52638 C 502.27367,689.79685 500.34901,689.31775 498.77516,688.46172 z "
       style="fill:#ffe680;stroke:none;stroke-opacity:1;filter:url(#filter6476)"
       transform="matrix(1.518491,0,0,1.518491,-302.52513,-357.55237)" />
    <path
       style="fill:#666666;stroke:none;stroke-opacity:1"
       d="M 452.81463,675.64772 C 450.56613,674.42472 446.61427,669.46122 444.0327,664.6177 C 441.45113,659.77417 434.73199,650.038 429.10127,642.98176 C 414.27664,624.40393 399.99641,603.08087 398.32474,597.02657 C 397.3137,593.36485 395.52982,591.22232 392.41945,589.93396 C 386.9902,587.68509 373.98963,574.20556 370.34545,567.04674 C 368.88211,564.1721 367.55429,561.65961 367.39475,561.46345 C 366.92054,560.88039 357.14558,566.18937 350.46851,570.65642 C 339.39025,578.06794 320.0506,577.51569 313.83221,569.61028 C 312.104,567.41322 307.96257,565.3421 302.84047,564.11332 C 296.21618,562.52418 292.92386,560.49028 285.86965,553.62921 C 278.71625,546.67165 276.9243,543.90745 276.05962,538.49658 L 275.00171,531.87646 L 266.49108,532.7192 C 261.81024,533.18271 253.46691,534.0266 247.95033,534.5945 C 241.59141,535.24912 235.94832,534.97627 232.53282,533.84905 C 226.96985,532.01311 219.25895,525.88041 219.25895,523.29196 C 219.25895,522.48339 223.70053,521.34618 229.12914,520.76482 C 234.55775,520.18347 238.99933,519.20272 238.99933,518.58539 C 238.99933,517.96807 233.85045,517.07357 227.55738,516.59763 C 203.13863,514.75084 190.35768,498.7081 190.43398,470.00011 C 190.47714,453.76754 194.11556,440.30548 203.78537,420.60045 C 208.70348,410.57841 213.9264,399.54695 215.39187,396.08611 C 218.41719,388.94154 226.48141,380.71634 239.75858,371.23296 C 244.7696,367.65377 250.47419,362.7541 252.43544,360.3448 C 256.66322,355.1512 271.90704,344.74458 281.51708,340.49141 C 285.27534,338.82808 296.20848,334.24264 305.81294,330.30153 C 315.41739,326.36042 326.65514,320.97834 330.7857,318.34136 C 334.91627,315.70437 339.69952,313.5251 341.41514,313.49855 C 343.13076,313.47197 345.86087,312.44699 347.48204,311.22081 C 351.06289,308.5124 367.71484,308.20229 373.28515,310.7403 C 375.39631,311.7022 377.49632,313.66345 377.95183,315.09863 C 378.59832,317.13555 381.35316,317.94124 390.50856,318.77105 C 396.95926,319.35572 406.33704,319.75714 411.34806,319.66312 C 416.93574,319.55825 423.85906,320.66793 429.25136,322.53266 C 435.8069,324.79966 439.01913,325.20235 441.87776,324.11549 C 449.86458,321.0789 455.59159,322.33993 463.02249,328.77133 C 471.77096,336.34307 480.46543,340.87967 486.22831,340.87967 C 492.49476,340.87967 500.66168,346.84229 502.39192,352.6806 C 503.191,355.37696 504.45438,357.58307 505.19941,357.58307 C 509.76505,357.58307 517.73972,363.48496 521.55716,369.68911 C 523.94064,373.56276 528.65161,378.95078 532.02597,381.6625 C 538.04788,386.50182 544.21602,396.18516 544.21602,400.79957 C 544.21602,402.0856 545.2029,403.1378 546.40909,403.1378 C 551.18049,403.1378 556.64745,410.81006 564.8034,428.95215 C 571.72065,444.33887 573.19451,449.01263 572.58648,453.63299 C 572.17395,456.76782 572.53608,461.61239 573.39122,464.3987 C 575.42842,471.03655 569.79465,497.13126 564.57931,505.21397 C 559.9003,512.4655 553.33489,515.93012 546.64918,514.67586 C 542.20639,513.84239 541.471,514.1657 540.74337,517.27236 C 540.28626,519.22403 540.42919,524.05731 541.06102,528.01298 C 542.25009,535.45753 539.76069,556.88845 536.83391,564.40364 C 535.95526,566.65976 533.3535,571.443 531.05219,575.03308 C 526.06588,582.81187 522.20915,589.47792 520.13102,593.90956 C 518.43044,597.53607 512.68967,601.96358 504.73526,605.78342 C 492.2001,611.80301 485.9803,615.83165 484.40242,618.95328 C 482.96543,621.79616 472.99562,629.64646 465.48225,633.85116 C 463.63822,634.88313 464.07722,636.8078 468.13378,645.47649 C 470.80757,651.19023 473.40488,658.85401 473.90559,662.50712 C 474.72154,668.46009 474.37429,669.52868 470.55829,672.80767 C 468.21657,674.81985 465.09614,676.46618 463.62401,676.46618 C 462.15188,676.46618 460.03737,676.78233 458.9251,677.16876 C 457.81282,677.55517 455.06312,676.87069 452.81463,675.64772 z "
       id="path4483" />
    <path
       style="opacity:0.69444442;fill:#ffffff;stroke:none;stroke-opacity:1;filter:url(#filter7466)"
       d="M 359.39908,312.0739 C 357.49039,312.55742 352.61981,311.15801 356.24076,314.13743 C 360.17734,317.8324 361.5713,323.83764 358.05533,328.3239 C 354.45943,334.42093 349.03795,339.85774 349.6004,347.54812 C 348.66476,360.05019 345.12224,372.70066 337.18033,382.6364 C 329.44521,393.56708 319.10147,402.67414 310.93033,413.29265 C 316.12509,420.1797 317.54089,429.31802 323.02408,436.04265 C 325.36725,440.36461 320.13601,446.18393 315.96158,442.54265 C 307.08554,436.39041 308.89116,422.05305 298.43033,417.6989 C 295.38744,416.07363 291.82508,417.28413 291.83658,421.16765 C 290.22361,431.72681 288.43712,443.76565 278.93033,450.23015 C 271.94339,455.70137 259.5854,458.0915 258.55533,468.6989 C 258.082,474.51017 265.89928,473.44756 269.68033,474.16765 C 276.39956,474.32544 283.17789,475.81475 288.43033,480.2614 C 275.97928,485.80121 261.7797,482.77473 249.05533,479.85515 C 240.25941,477.30155 229.70921,472.44677 227.14908,462.9489 C 227.85833,456.55778 236.25979,459.04658 238.43033,463.10515 C 241.57347,465.58705 245.20005,467.24462 248.86783,468.91765 C 248.83768,465.94625 251.59325,462.72037 247.83658,461.54265 C 242.11988,454.40221 238.76493,445.45027 235.14908,437.0739 C 234.87919,433.97888 233.01804,432.4492 230.05533,434.04265 C 221.21265,438.03458 220.19191,449.66083 220.77408,458.10515 C 220.54775,463.18735 225.48305,467.09287 224.96158,472.04265 C 224.39246,474.45481 221.65915,476.06569 219.30533,475.3864 C 218.76212,482.48601 224.50467,489.36545 231.98753,488.39555 C 250.55577,489.95716 269.37228,487.88247 287.80533,487.29265 C 290.12622,483.91351 296.21564,482.80845 296.58658,478.60515 C 291.95393,467.89474 278.17203,469.51741 268.61783,469.23015 C 263.77402,468.4688 263.03469,460.87254 268.21158,460.0114 C 277.82132,457.70387 288.89604,459.57033 297.08658,464.1364 C 300.39126,460.5843 295.91514,455.13278 296.24925,450.92066 C 294.64014,442.41194 293.33175,433.78464 291.86783,425.41765 C 291.92665,422.03684 295.34977,420.84381 297.99283,420.8864 C 302.51562,418.85981 306.43757,424.4088 304.83658,428.54265 C 303.97266,441.40302 305.47591,455.13564 311.49283,466.3864 C 318.05938,464.06277 322.20159,457.0773 327.49283,452.66765 C 331.23823,448.10664 337.30977,443.07305 334.46158,436.5739 C 332.68991,428.5205 326.33875,422.48235 319.33658,418.8864 C 315.75968,414.86176 321.56143,410.63032 325.55533,411.8864 C 328.08798,411.8056 330.97774,415.54441 331.58658,411.3864 C 333.77348,406.64877 339.83935,400.18641 345.08658,404.1364 C 348.84493,409.15946 342.21452,413.32126 339.86783,416.98015 C 338.15045,425.11179 345.96705,431.70939 345.05533,439.9489 C 345.74033,442.09883 345.45345,435.73664 345.77408,434.16765 C 347.05481,414.56996 357.88159,396.71305 356.62396,376.79515 C 357.06676,358.94069 361.66111,341.31624 370.11783,325.6989 C 371.31522,322.16191 375.17279,317.26341 372.18033,313.9489 C 368.47578,311.51538 363.60889,312.26233 359.39908,312.0739 z M 296.49283,464.0739 C 296.38919,464.10641 296.53576,464.13156 296.49283,464.0739 z M 341.58658,318.1989 C 332.40361,319.90937 325.15527,327.04824 316.21158,329.7614 C 314.19715,330.99856 302.49975,334.75808 308.39908,333.8239 C 320.23988,332.13875 333.01338,333.5072 344.36783,329.6364 C 347.94983,327.54335 352.09909,320.2163 345.99283,318.60515 C 344.57087,318.16092 343.06813,318.01146 341.58658,318.1989 z M 379.58658,328.6364 C 373.70282,343.79696 365.16911,358.73581 367.05533,375.5739 C 367.2649,392.05882 362.47903,407.84761 357.34043,423.29313 C 357.4334,424.83231 354.48157,431.13541 357.08658,429.7614 C 364.73965,425.82506 373.26853,424.64312 381.52408,422.66765 C 379.78765,415.67018 377.29921,408.79746 374.52408,402.2614 C 373.55068,396.00099 378.41777,390.77227 381.05533,385.98015 C 374.57223,382.31454 379.72078,371.91302 386.52408,373.0114 C 390.2346,375.1017 391.66789,369.31996 392.99283,366.48015 C 394.41284,361.39199 386.16655,361.91339 384.36783,358.0114 C 380.98278,353.98779 386.27395,350.2654 390.30533,351.1989 C 393.8529,351.33587 397.11492,354.62303 399.64908,355.8864 C 403.54731,350.89367 409.62781,348.30863 414.71158,344.6989 C 410.75354,343.99647 404.67002,341.34086 405.18033,336.91765 C 408.91856,330.10152 417.30193,336.09137 422.93033,333.73015 C 425.62893,331.92529 427.40189,328.33076 428.83658,325.98015 C 426.543,324.89882 425.0347,324.42407 425.46158,327.3864 C 423.20705,333.68896 415.08271,330.64413 410.96158,328.23015 C 402.15776,323.86868 392.48826,320.938 382.58658,320.9489 C 381.58658,323.5114 380.58658,326.0739 379.58658,328.6364 z M 449.27408,326.04265 C 436.45843,328.25519 431.19674,342.87626 423.55533,351.04265 C 433.21636,358.09938 445.23627,361.17002 457.14908,360.10515 C 468.40114,360.2584 478.96112,365.19909 487.27408,372.48015 C 494.13834,374.6275 500.92195,376.82789 506.69727,381.33304 C 517.76385,388.25364 530.19263,394.2093 538.33658,404.60515 C 540.03197,407.84391 541.18921,412.41845 545.58658,412.4489 C 548.92071,413.49707 553.42563,417.56372 554.89908,418.2614 C 553.33128,416.01169 551.91144,410.98106 549.68033,410.6989 C 545.66368,413.7339 541.24448,409.30094 540.80533,405.1989 C 538.02298,395.2528 533.82142,383.80152 522.93033,380.2614 C 516.74081,377.30627 508.65548,378.4463 503.27408,374.04265 C 500.37678,370.28523 504.6004,365.34983 508.89908,366.8239 C 510.90809,366.588 517.13221,368.85975 513.49283,366.0114 C 507.2579,360.01036 498.37937,360.62573 490.46158,360.16765 C 485.83434,360.34413 481.94252,353.95648 486.74283,351.10515 C 489.40152,349.36193 493.15679,349.8881 495.86783,349.4489 C 490.14288,342.51654 479.37418,344.1485 472.61783,340.0114 C 473.85801,345.71171 466.23395,346.64088 462.24283,345.73015 C 456.05692,344.70212 449.87056,346.47739 444.08658,347.6989 C 440.39916,347.2268 441.24507,342.75912 438.83658,340.91765 C 437.19842,336.07983 443.50108,333.50777 447.33658,334.79265 C 454.00505,335.32042 460.91046,334.41456 467.36783,336.2614 C 461.86445,332.29508 456.5633,326.0729 449.27408,326.04265 z M 335.99283,341.29265 C 324.85895,342.25761 311.86527,342.78707 302.11783,345.8239 C 305.78741,351.40147 301.15636,358.40967 300.39908,364.2614 C 298.22479,374.26551 301.7164,384.52899 302.05533,394.54265 C 302.62966,398.35765 303.23494,402.1802 304.18033,405.91765 C 307.42759,401.45664 312.18803,397.07048 314.99283,392.9489 C 311.36082,390.00216 312.40618,384.34814 311.86783,380.16765 C 312.51695,367.40102 319.14342,354.85231 329.14908,347.1364 C 334.24215,346.43153 335.43689,353.20306 332.33658,356.2614 C 326.8089,362.63124 322.89628,370.45791 322.52408,379.0114 C 321.62236,384.01572 321.68714,387.49119 325.40388,381.48464 C 334.36994,371.98546 338.79674,359.28143 339.09635,346.38902 C 338.85277,343.39223 341.3156,339.44723 335.99283,341.29265 z M 283.89908,343.9489 C 271.28696,349.79837 260.35257,358.28788 250.52408,367.91765 C 238.82086,377.98409 222.48667,385.90626 218.68033,402.16765 C 215.51391,410.3415 210.28225,417.45183 207.11783,425.73015 C 213.52604,420.9525 220.74956,415.62615 221.71158,407.10515 C 224.79573,393.04704 238.07918,385.02536 248.54854,376.67982 C 261.74971,367.85403 273.67451,357.38424 283.30533,344.79265 C 282.57733,345.08725 285.12912,343.23582 283.89908,343.9489 z M 291.64908,351.10515 C 282.70919,361.0631 273.65435,370.52478 262.89908,378.5114 C 253.05625,386.46202 241.49016,392.96149 233.74283,403.10515 C 230.33119,410.41854 229.19969,421.00157 223.64908,425.85515 C 226.54834,423.49679 231.37958,424.97647 233.89908,423.35515 C 233.34432,418.11268 235.85505,408.74619 242.68033,410.7614 C 248.32143,414.08243 243.33543,420.46212 243.61783,425.2614 C 243.6428,435.76581 250.81712,445.7863 254.27408,454.41765 C 256.10539,451.25176 260.24237,449.14315 262.39908,447.3239 C 256.90632,440.7029 250.46647,433.37228 249.39908,424.4489 C 248.23545,419.72226 254.40975,415.88386 257.55533,420.0114 C 260.41327,422.66901 259.56769,427.83979 262.43033,430.0114 C 272.26343,424.06717 275.32718,411.28323 285.18033,405.41765 C 287.68142,402.33731 292.08412,404.45593 291.96158,407.4489 C 294.79588,406.95801 292.04316,402.00581 292.33658,400.10515 C 291.05529,383.64859 289.97972,366.78695 292.36783,350.3864 L 291.66072,351.09351 L 291.64908,351.10515 z M 412.80533,357.7614 C 403.1299,364.33558 400.38204,376.65189 393.55533,385.5739 C 390.8361,390.59489 385.71809,395.35419 385.18033,401.0114 C 388.11967,407.02544 389.5068,414.62078 389.14908,420.6364 C 397.55683,418.18697 407.20089,418.94522 414.99283,415.16765 C 416.506,410.97994 412.11018,406.85944 409.61783,403.98015 C 404.93829,403.23575 397.85992,397.75446 403.11783,393.16765 C 407.55277,389.39125 412.98305,396.26303 415.99283,396.3239 C 416.81571,390.13326 412.33852,383.85294 413.96158,378.29265 C 418.44208,374.00772 424.05935,380.95066 424.49283,385.3864 C 426.59893,395.47919 424.37567,406.66512 425.18033,416.2614 C 428.31519,416.33148 431.20831,418.08214 433.71158,419.5739 C 437.41969,417.2326 444.87444,417.60887 444.55533,423.3864 C 442.29257,429.4116 434.2339,429.60507 430.11783,433.66765 C 424.60186,438.09403 427.29171,447.04515 431.05533,451.60515 C 441.91761,451.36988 451.77542,443.91791 458.43033,435.79265 C 465.09909,428.1395 469.5282,418.9207 472.86783,409.48015 C 475.32617,403.258 483.42427,396.75026 490.02408,400.85515 C 493.71889,403.40367 490.82876,408.52251 486.93033,408.85515 C 480.04089,412.34841 480.06864,422.37677 475.56132,428.41211 C 468.96496,440.5878 458.73578,450.53396 447.61783,458.3864 C 446.50523,461.67955 443.81271,467.30013 439.58658,464.2614 C 437.72901,462.82747 436.91161,458.63705 434.08658,461.91765 C 425.29233,468.37533 415.74512,473.81893 405.36783,477.16765 C 409.07086,482.24809 416.00606,483.53152 420.99283,486.6364 C 422.28003,480.64766 421.51514,472.72859 427.33658,468.85515 C 432.96164,468.26598 433.88241,475.01002 432.24283,478.98015 C 431.84788,484.21441 427.98276,491.58534 434.18033,494.6989 C 444.25867,501.69565 458.59846,498.02013 467.30533,490.3864 C 467.81296,488.81988 469.80921,486.43165 470.11783,485.79265 C 462.53353,486.98662 454.18014,486.49777 447.05533,488.60515 C 446.5087,492.38218 445.7285,499.8917 440.05533,497.41765 C 436.01038,494.5126 437.76375,488.37167 437.89908,484.10515 C 438.19171,480.6731 444.22747,480.47357 442.24283,476.91765 C 440.63513,472.37457 447.16952,469.05541 449.71158,473.2614 C 450.92915,475.516 451.90637,477.95631 455.02408,477.04265 C 464.40203,478.12029 473.26539,474.3445 482.33658,473.16765 C 487.53141,474.10911 486.63824,481.84969 481.80533,482.6364 C 479.88513,483.74285 475.76947,484.44278 475.05533,485.1364 C 480.84729,488.95838 476.66068,497.30615 471.89908,500.1989 C 461.73254,507.28039 448.53884,510.23628 436.49283,507.9489 C 425.28907,516.22456 409.1523,517.81571 396.55533,511.5739 C 405.28844,503.86869 418.34985,508.15121 427.36783,501.91765 C 418.60209,493.5031 403.70664,493.36683 396.77408,482.79265 C 392.39703,490.60229 386.96612,497.93131 379.58658,503.16765 C 383.44898,505.58519 384.43737,499.42617 387.99283,498.48015 C 395.15223,495.05319 405.04691,491.4604 412.24283,496.5114 C 415.75376,499.60847 413.10741,504.78652 408.61783,504.60515 C 402.7278,505.25725 394.85173,504.18185 391.05533,509.6364 C 400.93982,521.86115 418.82864,525.49666 433.27408,519.54265 C 450.50947,513.52247 467.77191,501.18352 486.96158,505.54265 C 495.46792,507.99272 504.47629,510.02873 513.14908,507.1989 C 521.56608,505.6299 533.9231,506.61803 539.99283,506.04265 C 535.1705,505.40849 535.34518,498.18549 540.18033,497.66765 C 545.67345,495.83435 546.97725,489.30188 545.43033,484.4489 C 545.66056,481.26565 549.45933,479.62277 552.11783,481.16765 C 550.70437,473.54047 550.4231,464.47181 555.58658,458.16765 C 551.51611,458.73893 544.09573,463.3844 542.43033,457.1989 C 542.5993,454.26833 540.96088,459.693 539.71158,460.2614 C 530.44223,469.50841 516.39296,464.23474 504.93033,465.7614 C 500.79414,465.64945 503.49976,471.64254 502.89908,474.0114 C 504.97408,479.88288 497.1806,488.87665 493.02408,481.48015 C 491.11156,477.57788 494.5727,472.81632 493.05533,469.1989 C 481.68309,465.56202 467.96231,470.87062 457.36783,464.0739 C 453.66491,460.3044 458.47433,453.66415 463.24847,456.14251 C 472.10233,458.36218 481.86025,459.36255 490.74283,457.3864 C 492.93975,453.49115 492.19258,448.34197 493.93033,444.0739 C 495.86013,432.75789 502.47,423.30601 509.02408,414.23015 C 511.80328,410.11424 511.41612,401.39275 517.83658,401.16765 C 524.04249,402.98723 521.69671,410.98884 519.52408,415.10515 C 516.54287,419.99668 514.94206,425.27652 514.49283,430.8239 C 513.40784,433.19453 510.27498,433.45142 508.30533,432.10515 C 505.24728,439.61135 502.54571,448.69013 501.96158,456.0114 C 504.90598,455.64805 509.94253,456.03252 511.46158,455.9489 C 506.54308,454.95507 507.69087,448.75676 510.55533,446.10515 C 516.94991,435.8928 528.17034,428.63209 532.86783,417.5114 C 530.50485,405.41044 516.91483,400.5192 508.24283,393.60515 C 507.34904,401.64902 497.27916,395.8862 499.96158,389.9489 C 499.23096,386.18983 494.31661,385.6808 491.46158,384.4489 C 494.34852,391.06073 483.60418,392.93073 482.02408,386.73015 C 479.50162,379.81318 474.45496,373.40209 466.80533,371.9489 C 462.86034,370.90317 457.63315,369.73601 454.30533,370.23015 C 454.44331,374.06926 451.12976,377.50395 454.09959,381.17569 C 458.48647,391.87864 461.94098,405.46496 454.77408,415.9489 C 451.96305,420.12435 444.77944,417.70669 446.30533,412.54265 C 447.30741,407.79083 450.41573,403.54349 449.11783,398.48015 C 448.27776,389.37103 438.8827,380.69056 443.39908,371.29265 C 446.47584,368.73586 442.02925,368.90314 440.36783,369.41765 C 441.502,373.47902 437.52835,378.76669 433.27408,376.0739 C 431.39694,372.00891 429.44114,366.63307 425.05533,363.8239 C 421.4072,361.47523 417.25132,357.65397 412.80533,357.7614 z M 263.11783,381.91765 C 268.83618,383.78823 266.74379,391.21065 270.14908,395.10515 C 272.84944,398.23916 274.20316,404.29218 269.30533,406.1364 C 260.62712,405.22983 258.45076,394.46632 258.27408,387.2614 C 258.18175,384.55038 260.14829,381.55654 263.11783,381.91765 z M 542.24283,421.3239 C 537.90845,432.65525 527.24402,440.31143 520.08658,449.85515 C 517.97986,452.13133 516.69003,456.0065 513.05533,456.10515 C 519.43985,455.76668 528.39679,458.1298 532.86783,452.35515 C 536.11548,446.01178 535.34113,435.63313 543.74283,433.2614 C 549.09571,432.87944 548.95281,440.34064 546.02408,443.0739 C 545.0751,446.09977 543.66903,451.82166 543.52408,453.41765 C 546.19693,450.06925 551.12825,448.74789 554.74283,448.1364 C 549.11548,439.92745 551.52543,426.70331 542.24283,421.3239 z M 280.43033,425.16765 C 277.32132,430.47869 272.49687,435.51074 267.93033,438.6989 C 269.37548,440.40833 271.64729,445.15767 273.77408,441.6364 C 278.51591,436.95067 280.11178,430.03352 281.43033,423.60515 L 280.89128,424.44742 L 280.43033,425.16765 z M 420.39908,426.66765 C 406.70763,427.54085 393.22254,429.30546 380.02032,433.30675 C 369.91516,435.26989 356.41648,437.60776 353.24283,449.23015 C 352.01994,459.65992 364.17107,467.69731 373.83658,466.66765 C 379.24826,466.1132 382.70289,474.8835 376.77408,476.7614 C 370.83858,478.48967 364.01954,474.76205 358.64908,475.8239 C 359.06107,484.77043 349.79017,490.77597 341.61783,490.3864 C 337.04869,490.82011 331.25276,493.90415 330.68033,498.8239 C 335.4398,503.92815 335.58239,512.99279 342.18033,516.41765 C 346.29354,515.71419 352.55007,519.37846 349.86783,524.0114 C 348.66113,526.68157 344.30307,524.79614 343.43033,526.4489 C 344.85182,531.60216 337.10037,538.15775 333.55533,532.41765 C 331.34937,529.08669 335.77375,524.03789 331.64908,521.66765 C 327.61004,516.60729 327.41983,507.86866 321.11783,505.1989 C 314.4884,507.0704 310.06767,513.15605 305.30533,517.5739 C 303.91532,523.79627 305.96692,530.31967 305.05533,536.66765 C 306.00055,540.79136 301.31463,546.1208 297.64908,542.4489 C 292.65765,535.5932 295.72882,526.35489 295.11783,518.48015 C 294.60246,512.92813 298.15618,508.45685 302.64908,505.73015 C 307.66929,500.75857 313.80152,496.76127 320.33658,494.2614 C 322.9425,492.03483 324.92453,489.25269 323.46158,486.0114 C 324.84636,479.48126 333.55153,480.99891 338.46158,480.66765 C 342.39235,480.92508 348.87705,480.14617 347.77087,474.60926 C 347.85796,470.29451 350.28096,466.16243 346.74283,462.6364 C 344.87405,459.43682 343.66952,455.47935 342.89908,452.1989 C 336.40089,456.79889 331.17836,463.51632 327.27468,470.53591 C 325.21959,475.2312 324.17981,485.59465 316.58658,482.3864 C 314.38525,481.55581 315.39766,476.54459 313.0254,479.63727 C 300.71476,489.19485 285.16145,499.99294 284.58658,517.16765 C 285.32159,520.54063 290.42187,521.03628 290.83658,524.8864 C 292.83652,530.02182 285.34401,532.49628 282.24283,528.9489 C 279.89951,527.44626 282.04346,534.32018 282.39908,535.98015 C 286.34928,547.77712 298.69878,556.50996 311.08658,556.73015 C 317.20133,556.76817 321.95095,551.18612 320.46158,545.0739 C 319.44571,542.2182 323.57336,538.79836 319.71158,537.54265 C 314.60677,533.29058 307.07076,526.42098 311.11783,519.1364 C 314.70293,515.15711 319.70807,520.36088 320.61783,524.1989 C 327.65462,534.63386 343.25017,537.75263 347.64908,550.1989 C 347.85869,556.32114 338.26783,556.146 337.11783,550.8239 C 335.58485,549.81583 329.69991,543.86643 331.05533,546.85515 C 338.55695,559.83113 359.3674,561.56279 368.12492,549.042 C 376.21657,540.6902 383.78625,531.51006 393.77408,525.3864 C 392.21275,523.92456 389.23465,520.31898 387.43033,523.4489 C 378.25114,530.01428 368.1849,535.23616 358.52408,540.9489 C 365.38626,541.86296 363.95944,552.69473 356.99283,550.91765 C 350.95056,550.82443 342.35888,544.99493 346.14908,538.2614 C 355.02212,529.06313 368.45796,525.22302 378.52408,517.16765 C 382.80493,515.24703 380.02192,513.72202 376.80533,512.8864 C 367.39266,509.14965 356.19074,510.37717 346.96158,506.4489 C 343.61831,503.81791 347.7468,500.12615 350.93033,500.5114 C 357.51096,499.59023 365.65071,500.27242 371.27408,500.4489 C 371.78571,494.77198 378.81675,493.04481 381.33658,488.29265 C 387.1412,481.41096 392.83611,471.59271 387.80533,462.73015 C 386.46602,457.52529 380.18085,453.90291 380.71158,448.3239 C 382.48197,443.40122 389.44955,445.33328 391.49283,449.04265 C 395.99323,453.77486 396.73187,460.86095 400.68033,465.8239 C 408.894,467.46697 415.89125,461.51404 422.55533,457.5739 C 416.84969,449.17304 413.41135,436.2634 421.86783,428.41765 C 424.65934,426.07956 423.29737,426.7502 420.39908,426.66765 z M 218.49283,429.5739 C 213.3354,432.58885 210.19081,437.5629 207.68033,442.6364 C 205.71526,444.54457 202.23567,444.08777 200.68033,441.91765 C 198.69265,448.91908 196.12437,456.56701 196.96158,463.66765 C 201.05101,468.49873 201.12273,476.36237 205.93033,480.23015 C 210.12796,478.89404 210.04312,474.32003 209.74283,470.7614 C 209.7566,468.29044 211.66294,464.26481 210.43033,462.6364 C 207.23796,464.72861 201.70792,467.01219 199.64908,462.1989 C 198.22172,456.31178 204.54983,452.48203 209.68033,452.54265 C 211.40196,444.71786 213.25487,435.04644 218.49283,429.5739 z M 560.18033,446.66765 C 559.85551,448.42751 557.83935,449.49637 560.61783,449.2614 C 562.41393,450.5414 559.84731,446.76514 560.18033,446.66765 z M 532.74283,468.04265 C 539.2125,468.01569 538.9545,476.79649 535.71158,480.4489 C 533.14131,485.32245 526.71017,487.51126 525.18033,492.8239 C 527.12127,496.62881 524.49389,503.60787 519.46158,501.1364 C 515.3672,497.70803 514.51,490.59179 508.49283,489.4489 C 503.49134,486.75918 507.39239,478.42708 512.77408,480.98015 C 515.46573,481.42726 519.60168,484.67592 521.39908,481.10515 C 525.85783,477.68751 528.73252,472.75518 531.61783,468.04265 L 532.61783,468.04265 L 532.74283,468.04265 z M 560.27408,476.73015 C 560.03379,479.11898 558.6073,482.80855 558.24283,484.16765 C 560.03715,482.20968 560.33235,478.63601 560.27408,476.73015 z M 212.14908,487.98015 C 209.7628,490.80943 211.6547,496.37706 215.86548,495.26744 C 220.35923,495.97563 219.70077,495.43671 216.83658,493.3864 C 214.93169,491.99289 213.52338,489.16154 212.14908,487.98015 z M 562.80533,492.35515 C 556.51598,496.72463 551.53509,502.94007 544.43033,506.1364 C 550.68496,506.19192 558.67294,505.89313 560.93033,498.79265 C 561.61918,497.09004 563.75719,492.50772 562.80533,492.35515 z M 212.74283,504.6989 C 217.32089,507.94515 223.23769,508.48349 228.61783,508.85515 C 225.7493,504.23977 219.08824,506.61149 214.61783,504.8864 C 214.31909,504.95483 211.61767,504.06972 212.74283,504.6989 z M 237.83658,506.29265 C 242.57416,511.04344 249.61341,512.88542 255.89908,514.7614 C 249.30954,513.27267 246.39303,505.31568 239.05533,506.1989 C 239.00647,506.48774 237.65519,505.83785 237.83658,506.29265 z M 264.43033,506.3864 C 260.34419,506.3575 267.52509,507.89203 268.96158,508.10515 C 271.08514,508.49682 276.25258,509.0782 275.86783,506.5114 C 272.06328,506.22558 268.24109,506.30842 264.43033,506.3864 z M 236.71158,522.7614 C 235.3187,523.37591 227.26804,522.77663 230.74283,524.60515 C 239.08934,528.76411 248.63232,525.59901 257.49283,525.41765 C 250.65692,523.76413 243.83168,521.52095 236.71158,522.7614 z M 490.21158,538.6364 C 487.71024,539.9832 485.42748,541.78441 483.46158,543.7614 C 484.58114,542.60059 491.25364,538.91406 490.21158,538.6364 z M 505.83658,543.1989 C 503.22039,544.70601 498.26332,547.44097 496.99283,548.23015 C 500.47856,546.62688 503.94293,544.90808 506.99283,542.54265 L 506.12314,543.03626 L 505.83658,543.1989 z M 379.93033,552.54265 C 377.43689,555.46544 372.57872,558.9247 376.11783,562.73015 C 381.7277,573.48516 392.66151,582.19915 403.68033,585.5114 C 404.19251,581.65702 403.28648,578.31796 400.77408,575.16765 C 394.53277,567.24553 390.77547,555.4657 380.14908,552.35515 L 379.93033,552.54265 z M 327.61783,559.23015 C 326.09305,561.77867 321.47339,563.12308 320.77408,564.85515 C 326.48337,569.03179 336.36028,568.63306 341.24283,566.1364 C 336.25268,564.89373 331.58304,562.03508 327.61783,559.23015 z M 452.33658,560.5114 C 450.40655,563.47622 449.78588,569.00604 451.24283,571.35515 C 451.49295,567.78169 453.57591,563.60966 453.39908,560.6364 C 453.05309,560.65417 452.48502,559.88826 452.33658,560.5114 z M 483.86783,567.29265 C 483.11382,567.9948 485.39136,566.20025 483.86783,567.29265 z M 406.96158,593.2614 C 404.65457,595.22303 405.98198,596.91639 407.55533,599.2614 C 415.6891,613.2533 426.03663,625.76278 435.64908,638.73016 C 433.88441,636.03976 432.21527,631.42466 435.86783,629.48016 C 423.86687,622.09055 413.85259,610.91605 409.58658,597.3864 C 408.76836,596.00844 407.87601,594.47203 406.96158,593.2614 z M 459.21158,604.23015 C 461.06083,604.43588 463.42998,604.52076 463.02408,606.41765 C 463.02889,609.0334 460.17223,607.20543 458.30533,607.79265 C 458.05976,606.16867 457.90373,605.48075 459.21158,604.23015 z M 458.11783,605.8864 L 458.14908,605.91765 L 458.11783,605.8864 z "
       id="path6482" />
    <path
       id="path4335"
       d="M 453.27726,676.64108 C 451.02876,675.41809 447.0769,670.45458 444.49533,665.61107 C 441.91376,660.76753 435.19462,651.03137 429.5639,643.97512 C 414.73927,625.39729 400.45904,604.07423 398.78737,598.01993 C 397.77633,594.35821 395.99245,592.21568 392.88208,590.92732 C 387.45283,588.67845 374.45226,575.19893 370.80808,568.04011 C 369.34474,565.16547 368.01692,562.65297 367.85738,562.45681 C 367.38317,561.87376 357.60821,567.18274 350.93114,571.64979 C 339.85288,579.0613 320.51323,578.50906 314.29484,570.60364 C 312.56663,568.40658 308.4252,566.33546 303.3031,565.10669 C 296.67881,563.51754 293.38649,561.48364 286.33228,554.62257 C 279.17888,547.66501 277.38693,544.90081 276.52225,539.48994 L 275.46434,532.86982 L 266.95371,533.71257 C 262.27287,534.17607 253.92954,535.01996 248.41296,535.58786 C 242.05404,536.24248 236.41095,535.96964 232.99545,534.84242 C 227.43248,533.00647 219.72158,526.87377 219.72158,524.28532 C 219.72158,523.47675 224.16316,522.33954 229.59177,521.75819 C 235.02038,521.17683 239.46196,520.19609 239.46196,519.57876 C 239.46196,518.96143 234.31308,518.06693 228.02001,517.59099 C 203.60126,515.7442 190.82031,499.70147 190.89661,470.99347 C 190.93977,454.76091 194.57819,441.29885 204.248,421.59381 C 209.16611,411.57177 214.38903,400.54032 215.8545,397.07948 C 218.87982,389.9349 226.94404,381.70971 240.22121,372.22632 C 245.23223,368.64713 250.93682,363.74746 252.89807,361.33816 C 257.12585,356.14456 272.36967,345.73794 281.97971,341.48477 C 285.73797,339.82145 296.67111,335.236 306.27557,331.29489 C 315.88002,327.35379 327.11777,321.97171 331.24833,319.33473 C 335.3789,316.69773 340.16215,314.51847 341.87777,314.49191 C 343.59339,314.46534 346.3235,313.44036 347.94467,312.21417 C 351.52552,309.50576 368.17747,309.19566 373.74778,311.73366 C 375.85894,312.69557 377.95895,314.65682 378.41446,316.09199 C 379.06095,318.12891 381.81579,318.9346 390.97119,319.76441 C 397.42189,320.34908 406.79967,320.75051 411.81069,320.65648 C 417.39837,320.55162 424.32169,321.6613 429.71399,323.52602 C 436.26953,325.79302 439.48176,326.19571 442.34039,325.10885 C 450.32721,322.07226 456.05422,323.33329 463.48512,329.7647 C 472.23359,337.33644 480.92806,341.87304 486.69094,341.87304 C 492.95739,341.87304 501.12431,347.83565 502.85455,353.67396 C 503.65363,356.37033 504.91701,358.57644 505.66204,358.57644 C 510.22768,358.57644 518.20235,364.47833 522.01979,370.68247 C 524.40327,374.55613 529.11424,379.94414 532.4886,382.65586 C 538.51051,387.49519 544.67865,397.17853 544.67865,401.79293 C 544.67865,403.07896 545.66553,404.13117 546.87172,404.13117 C 551.64312,404.13117 557.11008,411.80342 565.26603,429.94551 C 572.18328,445.33223 573.65714,450.006 573.04911,454.62635 C 572.63658,457.76119 572.99871,462.60575 573.85385,465.39206 C 575.89105,472.02992 570.25728,498.12462 565.04194,506.20734 C 560.36293,513.45886 553.79752,516.92348 547.11181,515.66922 C 542.66902,514.83575 541.93363,515.15907 541.206,518.26572 C 540.74889,520.21739 540.89182,525.05067 541.52365,529.00634 C 542.71272,536.45089 540.22332,557.88181 537.29654,565.39701 C 536.41789,567.65312 533.81613,572.43637 531.51482,576.02644 C 526.52851,583.80523 522.67178,590.47129 520.59365,594.90293 C 518.89307,598.52943 513.1523,602.95694 505.19789,606.77678 C 492.66273,612.79637 486.44293,616.82502 484.86505,619.94664 C 483.42806,622.78953 473.45825,630.63982 465.94488,634.84452 C 464.10085,635.87649 464.53985,637.80116 468.59641,646.46985 C 471.2702,652.1836 473.86751,659.84737 474.36822,663.50048 C 475.18417,669.45346 474.83692,670.52205 471.02092,673.80103 C 468.6792,675.81321 465.55877,677.45955 464.08664,677.45955 C 462.61451,677.45955 460.5,677.7757 459.38773,678.16212 C 458.27545,678.54853 455.52575,677.86406 453.27726,676.64108 z M 449.70339,661.28291 C 445.96157,653.22092 441.48664,644.33775 439.75909,641.54253 C 438.03154,638.74729 437.20446,636.46029 437.92114,636.46029 C 440.11064,636.46029 446.76559,647.84963 452.98097,662.23384 C 456.22758,669.74744 459.72809,675.90531 460.75987,675.91799 C 462.91698,675.94452 459.48552,666.3735 452.07392,651.69121 C 449.55564,646.70251 447.5261,641.40556 447.56385,639.9202 C 447.64922,636.55995 453.29658,647.0256 459.83133,662.65426 C 462.53767,669.12683 465.65245,674.42257 466.75303,674.42257 C 469.5101,674.42257 469.29903,673.34749 465.13956,666.20428 C 463.15157,662.79023 459.39733,654.87199 456.79681,648.60822 C 452.29064,637.75442 451.65807,637.00745 443.32831,632.70374 C 431.18588,626.43017 419.38002,615.00549 416.59585,606.83438 C 415.35956,603.20607 412.61139,597.68174 410.48881,594.55806 C 407.88557,590.72706 407.04926,588.12874 407.91913,586.57437 C 408.75216,585.08582 408.26857,582.89112 406.5531,580.37496 C 405.09251,578.23267 401.06872,571.99556 397.61136,566.51469 C 393.341,559.74506 389.60215,555.72783 385.9519,553.98714 C 378.90135,550.62497 379.07474,550.5841 374.1376,556.77177 L 369.8713,562.11866 L 373.31852,569.02104 C 377.70116,577.79641 387.05124,586.43848 396.26256,590.22765 C 402.87931,592.94952 405.60416,595.46103 401.9405,595.46103 C 401.10533,595.46103 400.42201,596.46633 400.42201,597.69502 C 400.42201,600.52666 417.62615,625.86936 430.34612,641.77501 C 435.68929,648.45637 442.18139,657.6812 444.773,662.27464 C 455.45071,681.20011 458.649,680.55677 449.70339,661.28291 z M 464.94846,653.98523 C 461.14449,645.78935 458.30207,638.81371 458.63196,638.48382 C 459.60615,637.50961 463.41264,644.1755 467.30804,653.67731 C 469.307,658.55323 471.20151,661.76562 471.51806,660.81597 C 471.8346,659.86633 469.80475,653.99854 467.00725,647.77646 C 462.80248,638.4244 461.31098,636.46331 458.40196,636.46195 C 455.4582,636.46056 455.05215,637.01875 455.91774,639.87689 C 457.96999,646.65343 470.74919,672.10682 471.30038,670.51582 C 471.61079,669.61988 468.75242,662.18111 464.94846,653.98523 z M 463.43938,633.35833 C 465.38299,633.29021 464.56296,632.58632 461.16165,631.40318 C 458.23855,630.3864 455.61916,630.0833 455.34077,630.72964 C 454.44287,632.8143 451.57391,631.98628 447.97272,628.60315 C 444.91238,625.7281 444.45825,625.63946 444.45825,627.9172 C 444.45825,631.04579 453.03067,635.20696 457.36542,634.18251 C 459.03576,633.78776 461.76904,633.41688 463.43938,633.35833 z M 469.03882,629.34903 C 467.94265,628.91038 466.63297,628.96432 466.12837,629.4689 C 465.62379,629.97349 466.52066,630.33237 468.12139,630.26644 C 469.89036,630.19358 470.25017,629.83376 469.03882,629.34903 z M 439.8595,618.84308 C 437.31932,609.77043 434.56417,608.17584 435.90383,616.55368 C 436.98891,623.33937 440.28607,629.99566 441.20168,627.24888 C 441.50398,626.34198 440.9,622.55937 439.8595,618.84308 z M 478.71369,623.46934 C 481.51016,621.22891 481.47496,621.1987 478.0269,622.88008 C 474.42219,624.63785 461.79826,624.20977 455.84693,622.12797 C 453.84651,621.42822 454.10566,621.86047 456.60617,623.39442 C 461.64266,626.48408 474.8947,626.52899 478.71369,623.46934 z M 427.28041,612.16443 C 425.00129,605.2131 423.59942,603.05349 421.36623,603.05349 C 419.0278,603.05349 418.65325,603.74051 419.50356,606.47009 C 420.40385,609.36016 428.7693,621.27538 429.89806,621.27538 C 430.10131,621.27538 428.92337,617.17545 427.28041,612.16443 z M 479.19373,618.80783 C 481.80363,618.28585 483.93901,617.26087 483.93901,616.5301 C 483.93901,614.6033 476.73808,615.0159 467.99486,617.44368 L 460.4024,619.55191 L 467.42542,619.65441 C 471.28808,619.71077 476.58382,619.32981 479.19373,618.80783 z M 449.77296,615.20142 C 448.10262,614.48364 445.711,613.89638 444.45825,613.89638 C 443.02254,613.89638 443.30322,614.37882 445.21749,615.20142 C 446.88783,615.91919 449.27946,616.50645 450.53221,616.50645 C 451.96791,616.50645 451.68724,616.02401 449.77296,615.20142 z M 429.99453,605.73431 L 427.47367,602.29424 L 428.37469,605.71798 C 428.87025,607.60105 429.76255,610.67599 430.35758,612.55119 L 431.43945,615.96066 L 431.97742,612.56752 C 432.27331,610.70129 431.381,607.62635 429.99453,605.73431 z M 485.83713,612.67726 C 484.79316,612.25601 483.08486,612.25601 482.0409,612.67726 C 480.99694,613.0985 481.85109,613.44317 483.93901,613.44317 C 486.02694,613.44317 486.88109,613.0985 485.83713,612.67726 z M 465.60135,609.50636 C 464.328,607.46741 462.37034,606.97324 457.19635,607.38474 C 451.06485,607.8724 449.83001,607.34849 443.62068,601.62492 C 439.86381,598.16196 436.07923,595.76792 435.21048,596.30483 C 430.76585,599.05178 453.06107,612.16443 462.1763,612.16443 C 466.6396,612.16443 467.05837,611.83943 465.60135,609.50636 z M 494.31744,608.454 C 494.03792,608.22052 487.65932,607.62782 480.14278,607.13689 C 469.33192,606.43081 466.98183,606.62484 468.89547,608.0655 C 470.44438,609.23159 475.54323,609.70537 483.07013,609.3826 C 489.53568,609.10536 494.59698,608.68748 494.31744,608.454 z M 458.50429,605.0848 C 457.46033,604.66356 455.75202,604.66356 454.70806,605.0848 C 453.6641,605.50605 454.51825,605.85072 456.60617,605.85072 C 458.6941,605.85072 459.54825,605.50605 458.50429,605.0848 z M 490.01298,602.95594 C 481.24369,602.33372 472.53135,601.33811 470.65222,600.74347 C 468.59159,600.0914 467.23561,600.29521 467.23561,601.25704 C 467.23561,603.43507 472.8984,604.11958 490.77222,604.10208 L 505.95713,604.08723 L 490.01298,602.95594 z M 464.19177,600.39613 C 464.18363,599.04803 439.71893,586.35009 437.1297,586.35009 C 431.99529,586.35009 439.08075,594.69697 447.91063,599.05035 C 452.91664,601.51845 464.20416,602.45145 464.19177,600.39613 z M 515.65285,597.14278 C 518.22375,595.71726 518.72962,594.79777 517.3963,593.97375 C 516.00635,593.11471 516.27329,592.26886 518.42297,590.72036 C 520.0207,589.56947 521.93901,587.60284 522.68589,586.35009 C 523.43276,585.09733 521.83226,585.92523 519.12919,588.18985 C 512.43318,593.79976 505.6967,595.56428 486.97599,596.61188 C 476.03748,597.22402 472.22366,597.87543 474.82807,598.68681 C 480.90914,600.58132 511.54082,599.42279 515.65285,597.14278 z M 421.68088,594.06908 C 421.68088,592.46835 422.45487,590.90064 423.40088,590.58531 C 425.9228,589.74467 423.47179,583.31311 420.62949,583.31311 C 418.81134,583.31311 418.47501,584.36676 419.17537,587.86858 C 419.67647,590.37409 419.44167,592.42405 418.65359,592.42405 C 417.86552,592.42405 417.61404,593.44903 418.09477,594.70179 C 419.33682,597.93853 421.68088,597.52495 421.68088,594.06908 z M 486.21675,592.36307 C 478.70022,591.76454 468.14408,589.84673 462.75864,588.10126 C 457.37322,586.35578 452.64692,585.24771 452.25574,585.63887 C 451.86458,586.03003 451.82926,586.35325 452.17724,586.35712 C 452.52523,586.36099 456.90987,588.05307 461.92089,590.11731 C 469.61276,593.28589 473.2787,593.83781 485.4575,593.66088 L 499.88317,593.45128 L 486.21675,592.36307 z M 414.08843,590.14631 C 413.04873,588.89356 411.51475,587.86858 410.67958,587.86858 C 409.83252,587.86858 409.99696,588.87573 411.05144,590.14631 C 412.09114,591.39907 413.62512,592.42405 414.46029,592.42405 C 415.30735,592.42405 415.14291,591.4169 414.08843,590.14631 z M 508.93289,585.84715 L 513.54959,582.55386 L 505.95713,582.15356 C 501.78128,581.93337 491.87313,583.01575 483.93901,584.55883 L 469.51335,587.36442 L 476.34656,589.05212 C 486.42632,591.54164 503.27279,589.88472 508.93289,585.84715 z M 515.88468,586.4118 C 518.77623,583.94023 520.34046,581.89026 519.36073,581.85633 C 518.38102,581.82239 515.52947,583.84458 513.02396,586.35009 C 507.16377,592.21028 509.05321,592.25103 515.88468,586.4118 z M 427.94327,584.42666 C 426.44358,582.93814 426.26917,583.11256 427.09322,585.27671 C 427.66346,586.77428 428.51254,587.61704 428.98007,587.14951 C 429.4476,586.68198 428.98104,585.45671 427.94327,584.42666 z M 415.00585,582.20587 C 414.50126,581.70129 414.14238,582.59815 414.20831,584.19889 C 414.28117,585.96785 414.64099,586.32766 415.12572,585.11631 C 415.56437,584.02014 415.51043,582.71046 415.00585,582.20587 z M 443.5748,582.3914 C 448.26579,580.5913 445.87638,578.82771 439.14353,579.12073 C 432.5498,579.4077 431.17865,580.15678 433.32265,582.30077 C 434.58692,583.56505 440.38283,583.61627 443.5748,582.3914 z M 464.24415,571.52164 C 465.79613,569.54864 466.70541,566.99491 466.26481,565.84672 C 465.21395,563.10823 472.42098,548.79396 477.59432,543.3446 C 479.83114,540.98842 485.41954,537.05478 490.01298,534.60318 C 494.60641,532.15159 501.43962,527.37465 505.19789,523.98774 C 511.71637,518.11337 511.83,517.8726 507.66481,518.75985 C 502.31054,519.90039 482.42161,534.85649 473.79707,544.22775 C 463.20012,555.7422 455.1982,575.26488 458.66844,581.13784 C 460.26234,583.8353 460.4436,583.71031 460.9124,579.59065 C 461.1929,577.12571 462.6922,573.49465 464.24415,571.52164 z M 471.03184,575.33122 C 476.19314,566.40281 482.0472,561.94235 494.62064,557.35784 C 505.63665,553.34119 529.20158,535.72744 533.03146,528.64743 C 535.79917,523.53096 535.63944,523.60457 528.74941,530.6206 C 518.80852,540.74332 516.98687,538.85784 526.35964,528.14707 C 530.58891,523.31405 534.02749,518.2037 534.00093,516.79076 C 533.9594,514.58145 533.64111,514.64697 531.72759,517.25875 C 530.50383,518.92909 528.28279,521.66237 526.79197,523.33271 C 525.30113,525.00305 522.91445,528.21419 521.48826,530.46856 C 520.06206,532.72294 513.93414,537.43551 507.87067,540.94097 C 501.8072,544.44642 493.20228,549.43513 488.7486,552.02701 C 479.62651,557.33573 464.19863,574.95592 464.19863,580.06554 C 464.19863,585.17011 466.10954,583.84616 471.03184,575.33122 z M 483.78328,575.63563 C 490.43428,571.41303 500.87754,566.34143 506.99053,564.36545 C 513.10351,562.38945 520.83834,559.67113 524.17902,558.32473 C 529.40506,556.21844 529.61704,555.97116 525.69751,556.55333 C 518.17274,557.67099 497.32869,563.63785 492.83936,565.95936 C 487.86923,568.52952 486.97599,568.62925 486.97599,566.61406 C 486.97599,565.78129 489.19679,564.08002 491.91109,562.83348 C 495.50469,561.18312 495.81426,560.80931 493.04996,561.45827 C 486.61143,562.96984 478.06765,569.38611 474.07817,575.70583 C 467.85508,585.56384 468.14877,585.56173 483.78328,575.63563 z M 409.49027,575.21038 C 407.72343,572.56793 404.21357,566.13739 401.6906,560.92028 C 397.92529,553.13422 397.19663,549.93701 397.62382,543.07595 C 398.13267,534.90351 397.11199,532.32254 395.26975,537.12333 C 393.66887,541.29517 394.3152,555.08794 396.26854,558.43729 C 406.18322,575.43774 410.28537,581.50883 411.39447,580.82336 C 412.11401,580.37867 411.25712,577.85282 409.49027,575.21038 z M 455.08768,577.47686 C 455.08768,571.71457 460.22905,557.04654 464.37297,550.98644 C 466.20692,548.30445 470.47685,543.20596 473.86165,539.65649 C 481.1907,531.97092 479.1921,531.2126 470.02834,538.20203 C 462.23806,544.14389 456.60617,552.01635 456.60617,556.96407 C 456.60617,561.53184 453.59291,561.68219 453.49849,557.11914 C 453.44568,554.56717 452.44841,555.58532 449.55784,561.14229 C 446.79498,566.45369 445.94898,569.88752 446.60058,573.14549 C 448.37299,582.00758 455.08768,585.43441 455.08768,577.47686 z M 418.6439,576.77012 C 418.6439,575.67699 417.63949,573.4562 416.41187,571.83503 C 414.39392,569.17014 414.35302,569.36075 415.98554,573.82254 C 417.92615,579.12641 418.6439,579.92224 418.6439,576.77012 z M 521.14204,575.90542 L 527.21601,573.13285 L 518.86431,573.86215 C 514.27087,574.26326 508.8043,575.50149 506.71638,576.61375 C 502.99793,578.59461 503.04459,578.63647 508.99411,578.65702 C 512.33479,578.66856 517.80136,577.43033 521.14204,575.90542 z M 501.40166,575.16755 C 501.40166,575.05417 503.06659,573.07339 505.10151,570.7658 L 508.80137,566.57021 L 503.58302,568.3556 C 500.71293,569.33758 495.97305,571.79371 493.04996,573.81368 L 487.73524,577.48635 L 494.56845,576.43003 C 498.32671,575.84905 501.40166,575.28094 501.40166,575.16755 z M 341.01758,574.25473 C 343.82883,573.44847 347.92425,571.58671 350.11849,570.11748 L 354.10803,567.44615 L 346.00647,566.41877 C 340.23829,565.6873 336.22151,564.03856 332.06006,560.69433 C 326.66679,556.36018 326.14453,556.21995 325.30051,558.87922 C 324.79744,560.4643 321.97837,562.90358 319.03595,564.29985 C 314.41755,566.49143 313.95795,567.16612 315.67457,569.23454 C 320.39188,574.91854 331.22238,577.06395 341.01758,574.25473 z M 442.93976,571.10468 C 442.93976,568.5659 444.31006,563.8027 445.98488,560.51978 C 448.40134,555.78314 448.55808,554.73193 446.74412,555.42802 C 443.3854,556.71689 443.93065,554.3698 448.75846,546.75714 C 454.04562,538.42015 460.04457,533.26724 471.68815,527.06129 C 480.27747,522.48322 489.15471,514.98101 485.98254,514.98101 C 483.97061,514.98101 473.68868,521.94347 459.64316,532.81687 C 451.649,539.00557 447.00807,543.94746 444.07276,549.39696 C 438.04962,560.57909 436.49706,575.72065 441.37361,575.72065 C 442.23499,575.72065 442.93976,573.64346 442.93976,571.10468 z M 534.04922,568.78058 C 534.04922,568.363 532.68257,568.75275 531.01223,569.64669 C 529.34189,570.54062 527.97525,571.61369 527.97525,572.03128 C 527.97525,572.44886 529.34189,572.05911 531.01223,571.16518 C 532.68257,570.27124 534.04922,569.19817 534.04922,568.78058 z M 439.835,550.03295 C 440.76622,548.29295 441.129,546.86932 440.6412,546.86932 C 438.59458,546.86932 433.90226,560.24589 433.98288,565.85046 C 434.06305,571.42438 434.23785,571.15353 436.10606,562.5605 C 437.22576,557.41034 438.90379,551.77294 439.835,550.03295 z M 528.36553,567.3254 C 533.60518,563.76496 539.73148,555.08241 538.13236,553.48329 C 537.74941,553.10034 535.3801,555.28132 532.86721,558.32989 C 530.3543,561.37847 525.66317,565.49223 522.44243,567.47158 C 518.01061,570.19523 517.33171,571.08192 519.65069,571.11779 C 521.33594,571.14386 525.25762,569.43727 528.36553,567.3254 z M 430.72866,546.86932 C 431.81705,544.7814 435.05675,539.76038 437.92799,535.71151 C 444.29713,526.73011 443.35142,524.65758 436.29707,532.13736 C 426.63186,542.38546 422.80213,554.46202 425.84671,565.09121 C 426.69395,568.0491 427.13456,566.87541 427.84192,559.77649 C 428.34123,554.76547 429.64026,548.95725 430.72866,546.86932 z M 320.91898,560.33118 C 323.6002,557.8123 324.53644,555.22722 324.65289,550.02124 C 324.80263,543.32756 324.85169,543.25612 325.99232,548.07039 C 328.28609,557.75174 339.10662,565.09121 351.08596,565.09121 C 360.73249,565.09121 365.05212,562.42411 376.96718,549.1111 C 382.64884,542.76285 390.25049,535.83824 393.85974,533.72309 C 397.46898,531.60792 400.42201,529.63539 400.42201,529.33966 C 400.42201,529.04394 398.02683,526.9751 395.09939,524.74222 L 389.77676,520.68246 L 378.01637,528.34602 C 371.54814,532.56098 363.01019,537.56421 359.04313,539.46429 C 351.07274,543.28186 349.8268,546.30862 355.62652,547.76426 C 357.71445,548.28829 359.42275,549.29074 359.42275,549.99193 C 359.42275,551.56504 350.64393,548.63519 349.41904,546.65329 C 348.02465,544.39713 351.74883,540.8878 359.94516,536.73441 C 364.09566,534.63118 372.16792,529.80078 377.88347,526.0002 C 385.82199,520.72144 387.89455,518.63111 386.66219,517.14621 C 384.06765,514.01997 371.60249,510.02579 360.94124,508.9045 L 351.07105,507.86639 L 360.54533,507.62747 C 366.69743,507.47233 372.68763,508.40233 377.62835,510.27966 C 383.54557,512.52801 385.2371,512.71979 385.2371,511.1423 C 385.2371,505.43549 402.9055,499.08528 408.97389,502.61103 C 411.29199,503.95786 410.42244,504.26871 404.21823,504.31107 C 399.39885,504.34398 394.82329,505.46192 391.69068,507.37191 C 384.18059,511.95091 385.32342,515.22699 397.38503,523.69565 C 402.43231,527.23942 406.60465,528.75254 413.34895,529.48506 C 424.54987,530.70161 431.38497,528.98212 450.93762,520.02893 C 469.09837,511.7131 478.724,510.34398 491.60613,514.24437 C 499.56425,516.6539 501.90862,516.7596 511.07197,515.12202 C 516.80191,514.09802 528.92826,513.43317 538.01943,513.64457 C 556.83852,514.08218 559.92852,512.9681 564.51505,504.09179 C 566.09928,501.0258 568.79804,492.22052 570.51231,484.52447 C 573.87969,469.40695 573.28819,464.14392 567.25467,455.53869 C 565.70544,453.32912 563.57867,448.1639 562.52851,444.06042 C 561.47836,439.95694 559.41896,434.93157 557.95209,432.89291 C 555.31456,429.22733 555.29333,429.28719 556.03461,438.29721 L 556.78421,447.40816 L 553.96184,436.87342 C 551.06057,426.04413 547.00424,420.83457 541.47345,420.83457 C 539.59846,420.83457 538.60469,421.90743 538.60469,423.93165 C 538.60469,425.64515 534.30516,431.60664 528.98052,437.276 C 523.68725,442.912 518.14208,449.3765 516.65795,451.64156 C 515.17384,453.90663 513.30828,455.75986 512.51231,455.75986 C 510.44388,455.75986 515.98426,448.37183 527.29731,436.04421 C 532.82662,430.01904 537.0862,423.99332 537.0862,422.19662 C 537.0862,416.4061 532.26004,408.71979 525.8977,404.37745 C 522.44693,402.02227 516.96574,398.27008 513.7173,396.03927 C 506.53209,391.10491 505.59121,391.03781 504.75104,395.39984 C 504.28262,397.83187 504.03339,397.3729 503.88618,393.80711 C 503.7068,389.46178 502.82395,388.40947 497.22581,385.86838 C 487.94687,381.65651 485.15335,381.87458 486.97599,386.66852 C 489.35176,392.91729 486.42225,390.92321 483.69885,384.43783 C 479.33171,374.03814 469.26618,369.75551 447.26474,368.93598 C 434.99323,368.4789 434.22386,368.62737 435.59492,371.18817 C 436.40223,372.69602 436.73072,374.74598 436.3249,375.74365 C 435.90685,376.77141 435.53511,376.45635 435.46719,375.01673 C 435.17263,368.77365 420.36276,357.05795 412.76541,357.05795 C 409.36656,357.05795 403.16299,363.89362 398.79935,372.44706 C 397.15154,375.677 392.40096,383.53162 388.24248,389.90177 C 384.08402,396.27191 380.68162,402.34304 380.68162,403.39318 C 380.68162,404.44331 381.7024,407.25974 382.95001,409.65193 C 384.19761,412.04411 385.14401,416.39298 385.05312,419.31608 L 384.88784,424.6308 L 383.81544,419.31608 C 383.22563,416.39298 381.57835,411.78057 380.15484,409.06626 C 377.7366,404.45523 377.73218,403.80711 380.08745,399.19607 C 381.47388,396.48177 383.96708,392.3292 385.62787,389.96814 C 387.92546,386.70176 388.22464,385.25244 386.87906,383.90686 C 385.53349,382.56129 384.76823,382.68004 383.67862,384.40348 C 382.4431,386.35775 382.24342,386.32621 382.22336,384.17362 C 382.19671,381.31415 386.20966,379.24199 387.55582,381.42011 C 389.24005,384.14526 390.82745,382.87402 394.74927,375.65946 C 399.15597,367.55292 398.55487,365.47608 390.55182,361.15669 C 386.67821,359.06604 386.47455,358.68893 389.19122,358.63724 C 390.94838,358.6038 394.13222,360.19471 396.2664,362.17259 L 400.14672,365.76875 L 403.10313,361.76998 C 404.72916,359.57065 408.7202,356.41596 411.97211,354.75954 C 417.44813,351.97023 423.0862,346.92396 423.1656,344.74096 C 423.18417,344.2304 421.57194,344.12377 419.58287,344.504 C 417.5938,344.88425 414.09301,344.21379 411.80336,343.01412 C 407.81098,340.92231 407.98137,340.86119 415.96053,341.52289 C 421.82685,342.00937 424.78626,341.60294 425.99488,340.14483 C 432.71477,332.03785 435.64664,328.00382 435.15662,327.53894 C 434.84391,327.24225 430.87659,325.90448 426.34037,324.56608 C 417.37921,321.92214 409.53295,321.38123 409.53295,323.40741 C 409.53295,324.92271 416.33561,328.20662 419.47459,328.20662 C 420.68805,328.20662 421.68088,328.93598 421.68088,329.82744 C 421.68088,331.83215 417.57039,330.64305 406.49597,325.43469 C 401.3302,323.00519 394.6687,321.29231 389.03332,320.94449 L 379.92238,320.38218 L 375.90085,330.74798 C 373.689,336.44918 369.98644,345.55538 367.67292,350.98398 C 364.06317,359.4542 363.39898,363.29378 362.99017,378.05418 C 362.49183,396.04715 361.60002,400.91625 355.52515,418.81189 C 352.16828,428.70073 350.60012,440.57495 352.65102,440.57495 C 353.10243,440.57495 355.32322,439.21356 357.58612,437.54965 C 359.84902,435.88574 368.19204,433.15067 376.12615,431.47172 C 384.06027,429.79277 391.5768,428.00652 392.82955,427.50231 C 394.08231,426.99808 399.8525,426.03942 405.65221,425.37199 C 417.39972,424.02004 420.7135,421.45255 419.17485,414.8947 C 418.11786,410.38975 411.40864,402.61268 408.57923,402.61268 C 407.53202,402.61268 406.25289,401.92936 405.73673,401.09419 C 404.10307,398.45089 407.39762,399.44469 413.10238,403.31604 L 418.61409,407.05639 L 419.55389,403.31193 C 420.5524,399.33351 419.83519,391.69049 417.99209,386.66852 C 416.8894,383.66403 416.90336,383.66332 419.2953,386.60118 C 421.25056,389.00267 421.63422,392.85198 421.30065,406.72118 L 420.88818,423.87155 L 424.89483,423.87155 C 427.09848,423.87155 429.74021,424.88217 430.76534,426.11738 C 432.17283,427.81331 433.3544,427.97511 435.59093,426.77814 C 437.21987,425.90636 439.36892,425.49761 440.36658,425.86981 C 441.36424,426.24201 440.13358,427.35819 437.63176,428.35022 C 435.12996,429.34223 430.8592,431.85008 428.14119,433.9232 C 423.94491,437.12388 423.20022,438.65447 423.20505,444.06883 C 423.20821,447.6276 424.47207,452.51359 426.06522,455.12619 C 428.66781,459.39417 429.43782,459.72816 434.79086,458.91108 C 438.02,458.41819 443.44192,456.53203 446.83956,454.71962 C 457.45257,449.0583 471.71739,430.86823 474.94557,418.87971 C 476.83979,411.84507 481.23078,407.14745 485.83713,407.22758 C 488.79308,407.27901 488.625,407.56082 484.59051,409.31771 C 480.87772,410.93451 479.23333,413.2516 476.52246,420.68644 C 472.12386,432.75 460.88537,447.57436 451.27888,453.98447 C 447.10994,456.76627 443.32588,460.52454 442.86984,462.33617 C 442.13925,465.23849 441.91928,465.31416 441.0194,462.97269 C 439.66176,459.44023 434.03054,459.59643 430.11472,463.27516 C 425.78866,467.33928 406.93761,477.01874 403.34866,477.01874 C 400.04355,477.01874 399.66859,478.84761 402.05823,483.31268 C 403.776,486.52236 421.32402,495.64042 423.36079,494.38162 C 424.01067,493.97998 425.00855,490.4215 425.57829,486.47391 C 426.14804,482.52632 427.25175,478.27149 428.031,477.01874 C 429.44441,474.74648 429.19714,477.92819 426.96875,490.68672 C 426.17015,495.25909 426.69117,496.62668 430.69221,500.45991 C 437.5222,507.00347 450.00159,507.72599 461.92314,502.26813 C 467.24269,499.83276 470.85205,497.14901 471.34548,495.26213 C 471.78537,493.57996 472.68494,492.20365 473.34452,492.20365 C 474.00409,492.20365 474.16816,493.63986 473.70912,495.39524 C 471.84895,502.50852 450.92717,510.4505 441.01692,507.80531 C 437.7528,506.93406 434.92051,506.85064 434.45004,507.61188 C 432.21924,511.22139 421.37308,514.96909 413.7693,514.75776 L 405.73673,514.53451 L 414.08843,513.49406 C 423.37087,512.33767 427.28012,511.02135 431.06547,507.77755 C 433.41548,505.76375 433.2357,505.25881 428.78774,501.38002 C 426.13172,499.06388 422.25032,496.64652 420.16239,496.00809 C 412.69564,493.72498 402.02203,487.60084 400.47654,484.71307 C 399.61138,483.09651 398.90352,480.3623 398.90352,478.63705 C 398.90352,476.9118 398.2202,475.50024 397.38503,475.50024 C 396.54986,475.50024 395.86653,476.73311 395.86653,478.23994 C 395.86653,483.93964 379.87972,504.38099 375.45826,504.33473 C 374.57284,504.32547 375.98996,502.62967 378.6074,500.56628 C 384.02124,496.29842 392.13475,484.2777 393.59474,478.36152 C 394.95491,472.84975 391.98313,462.86555 387.33992,457.3474 C 385.19971,454.80391 384.08679,452.72288 384.86677,452.72288 C 387.41445,452.72288 391.4213,458.31352 394.26866,465.84105 C 396.835,472.62563 397.50874,473.26093 402.60068,473.69755 C 406.72935,474.05159 410.63886,472.77549 417.94772,468.68814 C 423.34164,465.67169 427.75485,462.80529 427.75485,462.31836 C 427.75485,461.83144 426.46191,459.30242 424.88166,456.69833 C 418.64528,446.42138 419.43722,438.65663 427.3572,432.42677 C 430.40709,430.02773 430.68912,429.19751 429.01416,427.54926 C 427.42637,425.98679 423.66376,425.85578 411.38261,426.9353 C 402.79545,427.69011 395.16838,428.67927 394.43353,429.13344 C 393.69869,429.58759 386.39419,431.33843 378.20132,433.02418 C 361.76561,436.40595 354.59653,440.2685 351.07799,447.63765 C 348.0532,453.97269 348.20238,457.04976 351.8221,462.98657 C 355.79052,469.49533 363.36635,473.96903 370.43181,473.97607 C 373.65405,473.97929 376.12615,474.72777 376.12615,475.70018 C 376.12615,476.88333 374.1159,477.07349 369.67256,476.31068 C 366.12309,475.70132 361.16901,475.09886 358.6635,474.97187 C 354.70205,474.77111 354.16054,475.21667 354.51074,478.38892 C 355.25416,485.12329 351.23552,488.83272 341.93786,489.99439 C 334.65815,490.90392 332.92607,491.78237 329.46497,496.32011 C 326.15169,500.66404 325.76898,502.03221 327.28615,504.10946 C 328.29838,505.49538 330.80214,510.19966 332.85005,514.56344 C 335.70066,520.63763 337.56085,522.71558 340.78531,523.42759 C 347.64099,524.94142 348.27031,525.3639 343.85822,525.49056 C 340.47598,525.58767 339.68237,526.31488 339.68237,529.31705 C 339.68237,531.35569 338.92598,533.49114 338.0015,534.0625 C 336.83785,534.78168 336.63158,533.68558 337.33115,530.50046 C 337.95618,527.65472 337.68056,525.49097 336.60862,524.82847 C 335.65544,524.23937 333.51663,520.58688 331.8557,516.71183 C 325.54423,501.98669 321.18314,501.03293 309.22212,511.76185 L 300.96085,519.17215 L 301.11455,532.58638 C 301.22705,542.40564 300.88901,544.9979 299.85315,542.25912 C 299.07485,540.20129 298.69272,533.79258 299.00398,528.01753 L 299.56991,517.51744 L 307.76741,510.17526 C 312.27602,506.13706 317.42168,502.83308 319.20221,502.83308 C 321.30393,502.83308 323.83444,500.70249 326.41624,496.75912 C 328.60344,493.41844 329.74981,490.68515 328.9637,490.68515 C 328.17761,490.68515 327.53597,490.17266 327.53783,489.54629 C 327.53969,488.91991 331.49841,488.3362 336.33496,488.24918 C 348.57401,488.02892 351.8303,485.9956 351.8303,478.57341 C 351.8303,475.3114 352.47983,472.24106 353.2737,471.75042 C 354.07276,471.25658 353.05595,468.4105 350.99596,465.37495 C 348.94934,462.35907 347.27482,457.93692 347.27482,455.54796 C 347.27482,451.98406 346.62532,451.20439 343.65639,451.20439 C 338.75563,451.20439 323.47852,469.01545 322.10656,476.32861 C 321.56186,479.23213 320.41068,482.04379 319.54838,482.57672 C 317.99542,483.53651 318.668,479.06858 320.98572,473.0287 C 321.6302,471.34922 319.11518,472.7361 314.53862,476.58388 C 310.41152,480.05377 302.70971,486.4245 297.42346,490.74105 C 287.56934,498.78759 282.70011,506.76286 280.84573,517.89357 C 280.10645,522.33098 280.62159,523.5964 284.39698,526.61734 C 286.82575,528.56077 287.95877,530.15423 286.9148,530.15837 C 285.87084,530.16252 283.70699,528.85622 282.10625,527.25547 C 278.50681,523.65604 277.42424,524.61011 277.42424,531.3817 C 277.42424,541.07426 280.68734,548.42227 287.57933,554.24937 C 300.34896,565.04596 313.37163,567.42155 320.91898,560.33118 z M 341.20086,553.02001 C 341.20086,552.22704 336.58844,548.36812 330.95104,544.44464 C 319.05133,536.16274 313.85654,530.6403 313.9485,526.36969 C 313.99607,524.16049 314.71992,524.77651 316.60422,528.62974 C 318.02891,531.5431 322.32059,535.98469 326.14131,538.49993 C 338.26943,546.48408 346.59988,554.46178 342.80897,554.46178 C 341.92451,554.46178 341.20086,553.81299 341.20086,553.02001 z M 542.69201,504.337 C 547.7633,502.29428 551.07449,496.29255 549.8412,491.37871 C 549.09766,488.41619 549.29903,487.50905 550.53116,488.27054 C 551.48813,488.86199 552.27111,490.33056 552.27111,491.53402 C 552.27111,494.16595 553.92585,494.28682 558.90416,492.01854 C 563.45267,489.9461 564.37146,486.8663 564.39831,473.60213 C 564.4153,465.20035 563.84468,462.77796 561.23344,460.16672 C 558.12989,457.06317 555.6651,456.93142 548.47488,459.48478 C 545.48096,460.54797 545.4797,460.5292 548.38549,458.16157 C 552.46683,454.83609 559.26229,455.15858 562.95679,458.85309 C 565.69434,461.59064 565.99989,463.54846 565.61415,475.88046 L 565.17828,489.81462 L 559.86356,493.256 C 556.94047,495.14876 552.49888,498.76187 549.99337,501.2851 C 547.48786,503.80835 544.07126,505.8289 542.40092,505.77519 C 539.56096,505.6839 539.57985,505.59059 542.69201,504.337 z M 518.94589,496.9561 C 517.95295,494.55893 515.39013,491.80006 513.25073,490.82528 C 507.83226,488.35646 509.65929,487.30331 515.52182,489.51616 C 520.03588,491.22003 520.66759,491.0089 525.82356,486.07315 C 528.8446,483.18115 531.88795,479.44832 532.58654,477.77798 C 533.82495,474.81694 533.85912,474.82158 533.95296,477.96421 C 534.01133,479.91876 531.35292,483.67278 527.19889,487.50184 C 521.56771,492.69248 520.51601,494.48348 521.28953,497.56542 C 522.57012,502.66769 521.15984,502.30103 518.94589,496.9561 z M 441.64878,493.20035 C 441.4672,488.54223 442.03149,487.20427 444.44368,486.57348 C 446.77917,485.96272 447.28967,484.8734 446.68985,481.78054 C 445.93402,477.88323 445.96047,477.86781 447.69571,481.19459 C 449.25325,484.18065 450.66827,484.61119 458.92505,484.61119 C 464.12102,484.61119 471.29806,483.57892 474.87402,482.31724 C 481.99752,479.80392 484.63838,480.28039 479.33023,483.12123 C 477.48751,484.10742 469.11095,485.51094 460.71565,486.24018 C 452.32035,486.96941 444.93891,488.09702 444.31246,488.74598 C 443.686,489.39494 442.88158,491.97587 442.52487,494.48138 C 441.95383,498.49226 441.8491,498.33912 441.64878,493.20035 z M 496.97808,478.81383 C 498.62414,468.51994 497.27809,467.66749 478.94117,467.39126 C 468.36854,467.232 462.17658,466.49593 460.93219,465.25043 C 458.48317,462.79924 461.13427,462.72926 469.4091,465.02668 C 472.89138,465.9935 479.30871,466.26326 484.81034,465.67409 L 494.24185,464.66406 L 497.54973,450.34907 C 500.28886,438.49548 502.01495,434.49453 507.58829,427.08033 C 511.29016,422.15576 514.74376,416.00258 515.26296,413.4066 C 515.78215,410.81063 516.75716,408.68664 517.42962,408.68664 C 519.05143,408.68664 516.54001,417.24297 513.60216,421.7267 C 512.32049,423.68277 511.27185,427.14613 511.27185,429.42308 C 511.27185,433.16541 511.08464,433.30692 509.32223,430.8967 C 507.54883,428.47142 507.13253,428.73388 504.71642,433.80052 C 501.66689,440.19547 495.61729,464.90731 496.80945,466.09948 C 497.24723,466.53728 497.60543,466.05573 497.60543,465.0294 C 497.60543,463.64581 501.71845,463.27137 513.5136,463.58118 C 527.60996,463.95145 529.90146,463.64147 533.6336,460.85952 C 536.66286,458.6015 538.08934,455.93708 538.71411,451.37003 C 539.19187,447.87754 540.80917,443.84908 542.30809,442.41788 C 544.91183,439.93181 544.94452,439.98508 543.0411,443.61193 C 541.94532,445.69986 540.66968,450.06998 540.20635,453.32332 C 539.61752,457.45794 538.06934,460.20046 535.06317,462.43427 C 531.25645,465.26294 529.04758,465.57853 515.83458,465.18157 C 498.81489,464.67023 498.38542,464.93644 498.95381,475.64528 C 499.16283,479.58338 498.58899,483.24408 497.67402,483.80956 C 496.52433,484.5201 496.31077,482.98701 496.97808,478.81383 z M 555.49754,476.1701 C 555.37451,471.18146 556.15011,467.45484 557.7098,465.54066 C 560.07767,462.63457 560.09682,462.63583 559.06973,465.63005 C 558.49677,467.30039 557.50125,472.08364 556.85747,476.25949 L 555.68697,483.85194 L 555.49754,476.1701 z M 451.59373,413.09244 C 454.46787,407.33107 453.43944,397.62138 449.0421,389.00189 C 445.39218,381.84746 445.16251,377.84595 448.25447,375.27984 C 450.83191,373.14076 451.19102,374.24848 449.15403,378.05464 C 448.19929,379.83859 448.88038,383.19042 451.37078,388.96387 C 453.34799,393.54762 454.99316,400.16993 455.0267,403.6801 C 455.08797,410.09167 452.56517,417.79759 450.40485,417.79759 C 449.76776,417.79759 450.30275,415.68026 451.59373,413.09244 z M 406.77604,555.30548 C 406.37006,548.92958 406.97425,543.10929 408.51002,538.60208 L 410.8671,531.68441 L 406.5809,531.68441 C 403.41958,531.68441 402.05442,532.58106 401.3791,535.10102 C 399.52546,542.01782 400.50401,551.51234 403.76158,558.21738 C 405.59833,561.99799 407.16819,565.09121 407.25014,565.09121 C 407.3321,565.09121 407.11875,560.68763 406.77604,555.30548 z M 498.79069,542.38696 C 505.70635,538.79339 513.22288,533.92491 515.49409,531.56811 C 519.34066,527.57659 520.76918,525.92131 526.29352,519.05447 C 527.4565,517.60887 528.03216,516.05026 527.57278,515.59087 C 527.1134,515.13149 523.04444,518.39377 518.53063,522.8404 C 507.33298,533.87142 496.12698,542.86005 494.98994,541.723 C 493.66357,540.39665 499.89311,534.09669 508.18125,528.38257 C 516.2928,522.79023 521.74049,516.4995 518.47185,516.4995 C 517.34287,516.4995 513.10096,519.96183 509.04541,524.19357 C 504.98987,528.42532 497.85267,533.87462 493.18497,536.30316 C 488.51728,538.7317 483.64819,541.59007 482.36476,542.65513 C 478.82331,545.59403 473.51049,553.60769 470.82054,560.06803 L 468.41285,565.85046 L 477.31481,557.3856 C 482.375,552.57387 491.64321,546.101 498.79069,542.38696 z M 415.51066,552.56366 C 415.43496,545.09938 415.11124,543.8295 413.99442,546.61592 C 412.73882,549.74856 413.57363,562.05423 415.04175,562.05423 C 415.35259,562.05423 415.56361,557.78348 415.51066,552.56366 z M 414.72343,535.86026 C 416.23662,533.56354 416.82247,531.68441 416.02529,531.68441 C 412.46513,531.68441 407.3551,549.74777 409.00879,556.48696 C 410.02168,560.61476 410.31476,559.79118 411.08039,550.66555 C 411.61682,544.27158 413.06846,538.37218 414.72343,535.86026 z M 511.00122,557.43085 C 517.80946,556.09142 521.24702,554.46357 524.4418,551.06611 L 528.7345,546.5011 L 523.87481,548.96294 C 517.74018,552.07067 516.77998,552.0526 518.00795,548.85258 C 518.93241,546.44346 518.81646,546.44193 516.17937,548.82846 C 514.63077,550.22992 509.64729,553.49767 505.10495,556.09013 C 500.56263,558.68257 497.9728,560.44973 499.34977,560.01713 C 500.72674,559.58453 505.96989,558.42071 511.00122,557.43085 z M 422.9948,536.23988 C 424.77771,532.6599 424.75009,532.61265 422.50983,535.4105 C 419.42231,539.26645 417.10026,547.76449 417.30413,554.46178 C 417.42482,558.42628 417.92808,557.26895 419.28507,549.9063 C 420.2856,544.4777 421.95497,538.32781 422.9948,536.23988 z M 441.80859,539.43839 C 450.45829,528.10505 453.8255,522.57347 452.07466,522.57347 C 450.54832,522.57347 437.56036,541.16014 433.29304,549.45127 C 431.91738,552.1241 430.83998,555.54071 430.89882,557.04373 C 430.95768,558.54674 431.98612,557.10072 433.18426,553.83031 C 434.38241,550.55992 438.26335,544.08354 441.80859,539.43839 z M 454.08495,548.38781 C 454.60205,548.38781 457.79608,545.3817 461.18277,541.70756 C 464.56948,538.03342 470.90427,533.27565 475.26009,531.13473 C 484.76966,526.4607 487.42021,524.41819 489.81837,519.91611 C 492.52177,514.84101 489.78672,515.7741 483.85727,521.94981 C 480.97914,524.94747 475.40374,529.04614 471.46752,531.05793 C 462.25136,535.76829 454.01754,543.0331 451.14038,548.99284 C 449.35722,552.68648 449.32817,553.12924 451.00572,551.04517 C 452.18219,549.58362 453.56784,548.38781 454.08495,548.38781 z M 536.32695,549.9063 C 538.05217,547.99994 538.38436,546.86932 537.21922,546.86932 C 536.05604,546.86932 535.72179,545.73906 536.32391,543.84189 C 537.94241,538.74249 533.33613,541.80442 530.52697,547.69532 C 528.15018,552.67951 528.16397,552.94329 530.80145,552.94329 C 532.32884,552.94329 534.81531,551.57664 536.32695,549.9063 z M 385.66871,548.3558 C 385.01168,545.84329 384.4601,545.62382 382.62667,547.14543 C 380.68138,548.75987 380.75561,549.14902 383.19177,550.10769 C 384.73428,550.7147 386.1032,551.25937 386.2338,551.31806 C 386.36441,551.37676 386.11012,550.04376 385.66871,548.3558 z M 531.12815,539.06025 C 532.46704,536.55854 531.45856,536.95839 526.61771,540.84861 C 523.1885,543.60438 520.3828,546.10396 520.3828,546.40321 C 520.3828,548.11113 529.68708,541.75295 531.12815,539.06025 z M 432.03359,532.44366 C 433.36975,530.77332 432.33966,531.45664 429.74449,533.96215 C 427.14935,536.46766 424.56214,540.22592 423.99515,542.31385 C 423.17837,545.32164 423.6538,545.00628 426.28425,540.79536 C 428.11023,537.87226 430.69744,534.114 432.03359,532.44366 z M 465.71712,524.12082 C 483.00438,511.45374 483.56722,510.42865 467.56784,520.75015 C 463.20012,523.56786 461.13747,521.83762 465.06872,518.65377 C 467.09219,517.01501 466.39926,517.13695 462.82247,519.04909 C 459.97765,520.56991 456.56104,523.7943 455.23001,526.2144 C 453.89898,528.63449 450.79073,533.07608 448.32281,536.08459 L 443.83566,541.5546 L 448.32281,537.56651 C 450.79073,535.37307 458.61817,529.3225 465.71712,524.12082 z M 266.41518,532.1885 C 273.07034,531.58692 275.90575,530.70296 275.90575,529.22977 C 275.90575,527.8397 274.10114,527.12894 270.5718,527.12894 C 267.63814,527.12894 260.37079,525.7802 254.42213,524.13174 C 244.94532,521.50559 242.21456,521.34157 232.36305,522.8068 C 221.25378,524.4591 221.15209,524.51543 223.83724,527.52994 C 225.33189,529.20795 228.60475,531.52858 231.11026,532.68692 C 235.61373,534.76894 238.28591,534.73122 266.41518,532.1885 z M 539.7762,526.27579 C 539.26721,525.76679 538.03223,526.94634 537.03185,528.89699 C 535.293,532.28757 535.33372,532.3283 537.95729,529.82245 C 539.46669,528.38078 540.2852,526.78479 539.7762,526.27579 z M 275.60205,523.78826 C 279.25765,520.13266 277.37953,518.36234 268.69449,517.27721 C 259.00477,516.06656 253.79743,513.84111 249.47284,509.06251 C 245.94669,505.16615 233.388,504.38586 233.388,508.06313 C 233.388,513.59814 240.20409,518.1365 253.88763,521.71237 C 270.00076,525.92317 273.16467,526.22563 275.60205,523.78826 z M 497.60543,519.36184 C 497.60543,516.7443 494.88322,518.07067 492.36383,521.91575 L 489.80991,525.81351 L 493.70768,523.2596 C 495.85144,521.85495 497.60543,520.10095 497.60543,519.36184 z M 538.29205,517.04042 C 537.84953,514.95277 537.46769,515.33461 536.8197,518.51275 C 536.25475,521.28372 536.46638,522.28219 537.41717,521.3314 C 538.22695,520.52162 538.62065,518.59068 538.29205,517.04042 z M 232.70023,511.56441 C 230.75301,506.89867 230.04571,506.54643 219.74188,505.11082 C 208.43734,503.53578 204.53667,500.90329 204.53667,494.84908 C 204.53667,493.28264 202.83403,489.76874 200.75304,487.04043 C 198.67204,484.31209 196.60923,479.74528 196.16901,476.89193 L 195.3686,471.70402 L 197.69196,477.67729 C 198.96983,480.96258 201.08342,484.83075 202.38884,486.27322 C 204.61118,488.72888 205.04463,488.73529 209.19537,486.37393 C 212.53391,484.47462 213.6349,482.72721 213.65472,479.29647 C 213.66919,476.79096 214.10261,472.19065 214.61788,469.07357 C 215.37081,464.51882 215.02991,463.20473 212.88154,462.38033 C 211.41127,461.81613 208.94148,462.14569 207.3931,463.11267 C 203.66452,465.44121 202.9372,465.33024 203.98754,462.59307 C 204.47704,461.31748 206.73567,460.31533 209.12113,460.31533 C 212.95146,460.31533 213.48895,459.66504 214.45528,453.86175 C 217.05884,438.22621 222.52954,431.46401 232.57533,431.46401 C 237.49416,431.46401 237.94347,431.09311 237.94347,427.03273 C 237.94347,421.77646 239.2879,417.79759 241.06392,417.79759 C 241.7663,417.79759 241.60964,419.89546 240.71579,422.45952 C 238.28949,429.41965 240.10094,438.30708 246.4689,450.68569 C 249.60673,456.78527 251.78839,462.1615 251.31702,462.63287 C 250.15311,463.79676 237.94347,439.27415 237.94347,435.7726 C 237.94347,432.29262 232.07263,432.01423 225.90835,435.20189 C 217.86351,439.36206 213.64842,460.13056 218.96233,469.42628 C 221.78223,474.35919 221.77772,477.09747 218.95582,473.36904 C 216.9455,470.71291 216.68782,470.68801 215.7769,473.06179 C 214.21594,477.1296 216.16287,487.59179 219.08087,490.81612 C 224.05332,496.31063 231.33902,497.20973 261.3062,496.02698 L 289.55171,494.91216 L 295.89006,489.28737 L 302.22842,483.66257 L 299.4907,479.02797 C 295.15037,471.68037 289.11088,468.97966 277.02009,468.97966 C 269.32626,468.97966 267.17468,468.57517 269.10936,467.49247 C 272.89197,465.37561 288.95078,467.15135 293.6054,470.20118 C 297.32099,472.63573 297.67717,472.62292 300.29188,469.96062 C 302.96208,467.24182 302.95865,466.6894 300.18822,453.30575 C 298.61221,445.69222 297.37839,438.17569 297.44642,436.60235 C 297.51445,435.02901 297.02833,432.3751 296.36618,430.70476 C 295.70401,429.03442 295.72075,428.17435 296.40334,428.79347 C 297.08595,429.4126 298.49959,429.20946 299.54478,428.34202 C 301.04213,427.09933 301.285,428.63169 300.68999,435.56803 C 300.19039,441.39216 300.96836,448.94129 302.98893,457.87611 C 307.58646,478.20621 311.09858,478.88334 327.00435,462.50626 C 333.13424,456.19473 338.55944,449.39781 339.06036,447.40198 C 340.97655,439.76727 333.22287,424.87846 325.60643,421.56738 C 321.97625,419.98924 321.50149,419.4195 323.77996,419.37551 C 325.47327,419.34282 328.37738,420.37981 330.23354,421.67991 C 333.37032,423.877 333.6084,423.83789 333.6084,421.12545 C 333.6084,417.50233 339.18479,410.20513 341.95351,410.20513 C 343.11451,410.20513 342.00873,412.20063 339.4048,414.80455 C 335.36549,418.84387 334.93329,420.08565 335.85557,425.00188 C 336.43316,428.08075 337.87214,432.46862 339.0533,434.75272 C 340.23446,437.03684 341.20086,440.90984 341.20086,443.35942 C 341.20086,446.67497 342.05707,448.0371 344.55115,448.68933 C 346.39381,449.17119 348.22778,449.2391 348.62666,448.84023 C 349.02552,448.44136 349.60106,443.37353 349.90561,437.57838 C 350.24921,431.04044 352.21223,421.97404 355.07821,413.68834 C 358.89227,402.66168 359.90091,396.76302 360.86694,379.83531 C 362.08454,358.49954 363.69612,352.38476 373.67347,331.2436 C 375.8413,326.65016 377.62165,321.39318 377.62981,319.56139 C 377.65315,314.32003 372.07747,311.50021 361.74223,311.52646 C 349.00759,311.55882 347.22149,312.99304 352.3402,319.07628 C 354.56526,321.72061 356.38577,324.60523 356.38577,325.48653 C 356.38577,327.2783 350.60868,337.10616 347.93951,339.85516 C 346.98982,340.83323 345.81367,346.91096 345.32584,353.36119 C 344.11665,369.34948 338.65201,379.99257 322.68222,397.46262 C 305.13554,416.6577 304.57489,417.40275 306.98221,418.32654 C 308.07858,418.74724 310.19862,422.38777 311.69345,426.4166 C 313.18827,430.44543 315.73025,435.66022 317.3423,438.00501 C 318.95434,440.34982 319.93498,442.6066 319.52151,443.02009 C 318.15993,444.38167 312.38936,435.73268 310.85325,430.028 C 309.00422,423.1612 303.91993,418.16163 297.47501,416.87264 C 290.887,415.55503 288.63837,417.85782 287.40043,427.18988 C 285.3041,442.99283 280.73869,449.82487 268.67831,455.20718 C 260.10583,459.03289 254.64478,465.76286 254.6758,472.46326 C 254.70565,478.91009 256.75824,480.27189 268.48813,481.62711 L 279.70197,482.9227 L 267.55404,482.38255 C 253.21776,481.74508 240.17653,477.23799 233.99292,470.78369 C 231.67737,468.36677 230.51032,466.3893 231.39947,466.3893 C 232.28864,466.3893 233.95395,467.52302 235.10017,468.90869 C 236.2464,470.29434 240.60083,473.01724 244.77668,474.95956 L 252.36913,478.49105 L 253.17062,471.9293 C 254.17758,463.68534 258.23795,457.37856 263.91914,455.23416 C 266.33593,454.32193 268.31329,453.0836 268.31329,452.48232 C 268.31329,451.88104 265.64349,448.30439 262.38041,444.53419 C 256.66435,437.9298 251.8897,427.64105 253.70055,425.83021 C 254.18171,425.34904 254.98873,426.24898 255.49392,427.83006 C 257.82998,435.14124 259.31303,437.53797 261.50094,437.53797 C 265.56356,437.53797 271.06492,432.97604 274.93391,426.39888 C 276.9798,422.92093 280.56019,418.36702 282.89032,416.2791 L 287.12692,412.48287 L 282.5489,418.55683 C 280.031,421.89751 276.45325,427.14836 274.59837,430.2254 C 272.74349,433.30243 269.2039,436.71501 266.7326,437.80891 C 264.2613,438.9028 262.23933,440.30355 262.23933,440.92168 C 262.23933,441.5398 264.25034,444.27711 266.70825,447.00458 C 270.40566,451.10752 271.65086,451.6769 273.92108,450.30266 C 278.24656,447.68433 283.34728,439.2333 284.24815,433.19243 C 284.70129,430.15387 285.91374,424.93449 286.94247,421.59381 C 288.49192,416.56222 289.56656,415.43383 293.20446,415.01855 L 297.59599,414.51725 L 296.32193,402.11138 C 294.26377,382.07033 295.0203,350.98398 297.56618,350.98398 C 300.05783,350.98398 300.21537,355.11861 297.9666,361.49232 C 295.03621,369.7979 295.05952,374.26146 298.15448,397.46968 C 300.89441,418.01576 302.1077,419.71552 308.05808,411.344 C 309.98738,408.6297 316.38506,401.1716 322.27515,394.77043 C 337.09477,378.66496 341.06035,370.85994 342.75143,354.46921 C 343.50186,347.19582 343.86217,340.9912 343.55214,340.68117 C 342.10526,339.23428 300.4249,344.12714 295.75116,346.29254 C 292.88585,347.62008 287.41926,352.67391 283.60323,357.52329 C 279.78721,362.37266 269.14846,372.13052 259.96159,379.20742 C 250.77472,386.28431 241.03041,393.79697 238.30756,395.90222 C 231.86081,400.88673 228.85611,405.61829 227.07457,413.591 C 225.1439,422.23112 222.39484,426.14147 214.94509,430.84428 C 211.5251,433.00322 207.97597,436.75915 207.05814,439.19079 C 204.83615,445.0775 202.72675,444.90113 204.78367,439.00063 C 205.66781,436.4644 208.12858,433.21862 210.25207,431.78779 C 219.35307,425.65541 224.17757,419.71372 225.18833,413.39279 C 226.62116,404.43238 232.7497,396.81991 246.50818,386.91067 C 265.89086,372.95073 276.12022,364.03074 282.6985,355.35273 C 291.55808,343.66528 295.75569,342.06642 322.43355,340.21785 C 344.61309,338.68099 345.06815,338.57799 349.17294,334.16578 C 360.88705,321.57436 345.63168,311.69606 330.26792,321.92423 C 326.67658,324.3151 318.95497,328.1383 313.10877,330.4202 C 282.1904,342.48836 266.27722,351.28258 253.34779,363.44633 C 248.63368,367.88126 240.20411,374.82633 234.61542,378.87979 C 223.84594,386.69086 217.5607,394.37 215.8119,401.85343 C 215.22639,404.35894 214.19066,407.12319 213.51025,407.9962 C 209.45259,413.20257 197.75802,439.80748 195.29638,449.4324 C 188.57138,475.72688 193.98882,499.37807 209.36652,510.85919 C 213.77061,514.14733 220.86482,516.11528 229.13885,516.34407 L 234.75988,516.4995 L 232.70023,511.56441 z M 264.55606,401.16959 C 263.28186,398.70555 262.30927,394.77646 262.39476,392.43827 C 262.54784,388.25141 262.56782,388.26119 263.71369,393.08407 C 264.35361,395.77746 266.00772,399.70654 267.38949,401.81539 C 268.77125,403.92424 269.22027,405.64966 268.38729,405.64966 C 267.55432,405.64966 265.83025,403.63363 264.55606,401.16959 z M 316.39631,389.64552 C 314.74805,380.9948 317.27011,371.66609 323.83357,362.13622 C 326.9382,357.62843 329.79332,354.25518 330.17824,354.64011 C 330.56318,355.02504 329.18656,357.60567 327.11909,360.37482 C 320.6956,368.97839 319.37686,372.63444 318.45657,384.39078 C 317.61942,395.08474 317.49374,395.40528 316.39631,389.64552 z M 279.60242,512.13654 C 280.84332,509.73693 281.43029,507.34531 280.90682,506.82182 C 279.31779,505.2328 251.60989,505.73568 251.60989,507.35355 C 251.60989,509.80132 258.37577,513.46864 265.45891,514.86018 C 276.12023,516.95468 277.22042,516.74282 279.60242,512.13654 z M 285.23189,500.91243 C 287.38923,496.88148 283.67983,496.16469 268.59318,497.69726 C 261.3403,498.43403 249.12922,498.90623 241.45746,498.74658 C 225.99542,498.42481 219.17951,496.00803 216.37502,489.85287 C 214.42253,485.56761 213.72992,485.38359 209.9518,488.14622 C 206.8092,490.44414 206.30235,497.19385 209.02597,500.47561 C 211.35846,503.28608 219.66371,503.86921 255.17622,503.71589 C 280.89683,503.60486 283.943,503.32072 285.23189,500.91243 z M 310.78333,476.63911 C 310.80957,476.01273 310.19652,475.50024 309.42101,475.50024 C 308.64549,475.50024 306.91815,474.4074 305.58245,473.07171 C 303.70875,471.19801 302.67065,471.04425 301.03864,472.39871 C 299.2402,473.89127 299.29338,474.79897 301.39366,478.45849 C 303.76592,482.59193 304.00032,482.66385 307.29979,480.27037 C 309.18949,478.89955 310.75707,477.26549 310.78333,476.63911 z M 570.5635,447.62178 C 568.02433,439.928 555.92958,413.5429 553.72348,410.88472 C 552.64447,409.58458 550.44497,407.81617 548.8357,406.95492 C 546.26084,405.57689 546.03763,405.79186 546.97539,408.74647 C 547.63054,410.81069 547.46537,411.74819 546.54659,411.18035 C 545.72466,410.67237 544.24342,406.99937 543.25493,403.01811 C 539.68605,388.64405 530.04145,379.73881 515.82732,377.69313 C 512.06906,377.15224 507.96913,376.02098 506.71638,375.17919 C 504.52652,373.70771 510.10322,374.12106 520.05122,376.16756 L 523.51588,376.88031 L 519.9739,371.28376 C 515.10867,363.59639 507.99725,360.09493 497.2495,360.09493 C 492.42514,360.09493 488.49449,359.41319 488.49449,358.57644 C 488.49449,357.74127 491.56943,357.05795 495.32769,357.05795 C 499.08596,357.05795 502.1609,356.42706 502.1609,355.65597 C 502.1609,351.98521 494.0405,344.9555 488.78257,344.07454 C 477.98527,342.26544 473.35235,340.09769 465.83107,333.33541 C 451.99567,320.89619 441.23356,323.2294 428.47083,341.43501 C 424.49632,347.10453 420.29445,352.51884 419.13335,353.46684 C 417.42403,354.86241 418.40478,356.01836 424.28667,359.5408 C 435.38833,366.18913 439.70756,367.4465 451.87453,367.57186 C 466.07925,367.71821 473.31861,369.90023 480.7753,376.28289 C 484.03361,379.07189 488.35352,381.3538 490.37508,381.3538 C 493.79174,381.3538 505.26935,387.90885 525.35503,401.33143 C 531.00917,405.1099 534.5736,408.85662 536.5135,413.06056 C 538.48892,417.34149 540.32878,419.24975 542.50704,419.2769 C 545.3484,419.31231 549.62669,422.42206 559.43646,431.5823 C 561.28947,433.31263 563.21436,437.23965 563.71395,440.309 C 564.21355,443.37837 565.72315,448.49159 567.06859,451.67172 C 569.03602,456.32201 569.77917,456.98146 570.86524,455.04078 C 571.68363,453.5784 571.56475,450.65562 570.5635,447.62178 z M 444.45825,346.48193 C 444.45825,345.61738 445.3124,344.82917 446.35636,344.73037 C 447.40032,344.63154 446.20451,343.98266 443.699,343.28839 C 440.62222,342.43583 443.70693,342.15326 453.20229,342.41784 C 460.9346,342.63328 467.93674,343.48526 468.76259,344.31111 C 469.75233,345.30085 466.97153,345.603 460.60435,345.19757 C 455.03411,344.84289 449.57155,345.31729 447.70141,346.31816 C 445.57128,347.45817 444.45825,347.51438 444.45825,346.48193 z "
       style="fill:#000000;stroke:none;stroke-opacity:1" />
  </g>
</svg>
